{
.formatVersion = 3;
DisplayStrings = (
"/kn_test"
);
axes = (
{
name = Weight;
tag = wght;
}
);
classes = (
{
code = "kn_k kn_kh kn_g kn_gh kn_ng kn_c kn_ch kn_j kn_jh kn_ny kn_tt kn_tth kn_dd kn_ddh kn_nn kn_t kn_th kn_d kn_dh kn_n kn_p kn_ph kn_b kn_bh kn_m kn_y kn_r kn_l kn_ll kn_v kn_sh kn_ss kn_s kn_h";
name = Muula;
},
{
code = "kn_k_v kn_kh_v kn_g_v kn_gh_v kn_ng_v kn_c_v kn_ch_v kn_j_v kn_jh_v kn_ny_v kn_tt_v kn_tth_v kn_dd_v kn_ddh_v kn_nn_v kn_t_v kn_th_v kn_d_v kn_dh_v kn_n_v kn_p_v kn_ph_v kn_b_v kn_bh_v kn_m_v kn_y_v kn_r_v kn_l_v kn_ll_v kn_v_v kn_sh_v kn_ss_v kn_s_v kn_h_v";
name = Halant;
},
{
code = "kn_k_ottu kn_kh_ottu kn_g_ottu kn_gh_ottu kn_ng_ottu kn_c_ottu kn_ch_ottu kn_j_ottu kn_jh_ottu kn_ny_ottu kn_tt_ottu kn_tth_ottu kn_dd_ottu kn_ddh_ottu kn_nn_ottu kn_t_ottu kn_th_ottu kn_d_ottu kn_dh_ottu kn_n_ottu kn_p_ottu kn_ph_ottu kn_b_ottu kn_bh_ottu kn_m_ottu kn_y_ottu kn_r_ottu kn_l_ottu kn_ll_ottu kn_v_ottu kn_sh_ottu kn_ss_ottu kn_s_ottu kn_h_ottu";
name = Ottu;
},
{
code = "kn_k_ottu2 kn_kh_ottu2 kn_g_ottu2 kn_gh_ottu2 kn_ng_ottu2 kn_c_ottu2 kn_ch_ottu2 kn_j_ottu2 kn_jh_ottu2 kn_ny_ottu2 kn_tt_ottu2 kn_tth_ottu2 kn_dd_ottu2 kn_ddh_ottu2 kn_nn_ottu2 kn_t_ottu2 kn_th_ottu2 kn_d_ottu2 kn_dh_ottu2 kn_n_ottu2 kn_p_ottu2 kn_ph_ottu2 kn_b_ottu2 kn_bh_ottu2 kn_m_ottu2 kn_y_ottu2 kn_r_ottu2 kn_l_ottu2 kn_ll_ottu2 kn_v_ottu2 kn_sh_ottu2 kn_ss_ottu2 kn_s_ottu2 kn_h_ottu2";
name = Ottu2;
},
{
code = "kn_ma_aa kn_ma_i kn_ma_ii kn_ma_u kn_ma_uu kn_ma_r rrvocalsign-knda kn_ma_e kn_ma_ee kn_ma_ai kn_ma_o kn_ma_oo kn_ma_au kn_virama kn_dherge_e kn_dherge_ai uni0CDD";
name = Matra;
}
);
familyName = "Karnata GTN";
customParameters = (
{
name = glyphOrder;
value = (
.notdef,
"signspacingcandrabindu-knda",
"signcandrabindu-knda",
kn_am,
kn_ah,
"signsiddham-knda",
kn_a,
kn_aa,
kn_i,
kn_ii,
kn_u,
kn_uu,
kn_r_ext,
"lvocal-knda",
kn_e,
kn_ee,
kn_ai,
kn_o,
kn_oo,
kn_au,
kn_k,
kn_kh,
kn_g,
kn_gh,
kn_ng,
kn_c,
kn_ch,
kn_j,
kn_jh,
kn_ny,
kn_tt,
kn_tth,
kn_dd,
kn_ddh,

glyphs = (
{
color = (255, 255, 153, 255);
glyphname = kn_am;
layers = (
{
layerId = "22F7FBB9-6A27-4F4A-9FDC-2CC606CA4AF4";
shapes = (
{
closed = 1;
nodes = (
(56,486,o),
(48,319,o),
(51,274,c),
(55,191,o),
(117,42,o),
(309,42,cs),
(458,42,o),
(587,154,o),
(587,290,cs),
(587,420,o),
(482,568,o),
(270,536,cs),
(238,531,o),
(220,508,o),
(225,475,cs),
(228,452,o),
(255,432,o),
(278,435,cs),
(439,457,o),
(488,362,o),
(488,290,cs),
(488,216,o),
(406,137,o),
(309,140,cs),
(175,144,o),
(152,251,o),
(150,278,c),
(148,309,o),
(154,408,o),
(246,428,cs),
(264,432,o),
(281,462,o),
(274,486,cs),
(268,507,o),
(246,529,o),
(220,524,c)
);
}
);
width = 637;
},
{
layerId = "625C7B41-5CAD-42BA-9A13-A89677FC7E21";
shapes = (
{
closed = 1;
nodes = (
(56,486,o),
(48,319,o),
(51,274,c),
(55,191,o),
(117,42,o),
(309,42,cs),
(458,42,o),
(587,154,o),
(587,290,cs),
(587,420,o),
(481,581,o),
(241,530,cs),
(227,527,o),
(218,515,o),
(220,501,cs),
(222,487,o),
(235,477,o),
(249,480,cs),
(451,525,o),
(537,398,o),
(537,290,cs),
(537,188,o),
(436,92,o),
(309,92,cs),
(153,92,o),
(105,210,o),
(101,277,c),
(98,320,o),
(108,446,o),
(232,476,cs),
(245,479,o),
(254,492,o),
(250,506,cs),
(247,519,o),
(234,528,o),
(220,524,c)
);
}
);
width = 637;
}
);
unicode = 3202;
},
{
color = (255, 255, 153, 255);
glyphname = kn_ah;
layers = (
{
layerId = "22F7FBB9-6A27-4F4A-9FDC-2CC606CA4AF4";
shapes = (
{
closed = 1;
nodes = (
(63,189,o),
(91,273,o),
(177,273,cs),
(223,273,o),
(276,252,o),
(276,162,cs),
(276,76,o),
(228,38,o),
(177,38,cs),
(130,38,o),
(63,79,o),
(63,137,cs)
);
},
{
closed = 1;
nodes = (
(163,144,o),
(171,140,o),
(173,140,cs),
(174,140,o),
(176,149,o),
(176,157,cs),
(176,165,o),
(176,173,o),
(175,173,cs),
(172,173,o),
(165,163,o),
(163,145,cs)
);
},
{
closed = 1;
nodes = (
(50,513,o),
(102,558,o),
(177,558,cs),
(223,558,o),
(276,537,o),
(276,447,cs),
(276,361,o),
(228,323,o),
(177,323,cs),
(125,323,o),
(50,393,o),
(50,447,cs)
);
},
{
closed = 1;
nodes = (
(161,437,o),
(169,431,o),
(172,428,cs),
(176,424,o),
(176,435,o),
(176,447,cs),
(176,462,o),
(175,459,o),
(163,457,cs),
(157,456,o),
(149,452,o),
(153,447,cs)
);
}
);
width = 326;
},
{
layerId = "625C7B41-5CAD-42BA-9A13-A89677FC7E21";
shapes = (
{
closed = 1;
nodes = (
(63,189,o),
(91,273,o),
(177,273,cs),
(223,273,o),
(276,252,o),
(276,162,cs),
(276,76,o),
(228,38,o),
(177,38,cs),
(130,38,o),
(63,79,o),
(63,137,cs)
);
},
{
closed = 1;
nodes = (
(113,117,o),
(146,88,o),
(177,88,cs),
(196,88,o),
(226,100,o),
(226,162,cs),
(226,218,o),
(201,223,o),
(177,223,cs),
(135,223,o),
(113,183,o),
(113,137,cs)
);
},
{
closed = 1;
nodes = (
(50,513,o),
(102,558,o),
(177,558,cs),
(223,558,o),
(276,537,o),
(276,447,cs),
(276,361,o),
(228,323,o),
(177,323,cs),
(125,323,o),
(50,393,o),
(50,447,cs)
);
},
{
closed = 1;
nodes = (
(100,423,o),
(151,373,o),
(177,373,cs),
(196,373,o),
(226,385,o),
(226,447,cs),
(226,503,o),
(201,508,o),
(177,508,cs),
(124,508,o),
(100,479,o),
(100,447,cs)
);
}
);
width = 326;
}
);
unicode = 3203;
},
{
color = (255, 255, 153, 255);
glyphname = kn_a;
layers = (
{
layerId = "22F7FBB9-6A27-4F4A-9FDC-2CC606CA4AF4";
shapes = (
{
closed = 1;
nodes = (
(103,578,o),
(-6,380,o),
(83,178,cs),
(160,2,o),
(417,-102,o),
(558,83,cs),
(653,208,o),
(705,512,o),
(555,515,cs),
(382,518,o),
(411,339,o),
(371,302,cs),
(358,291,o),
(345,278,o),
(285,291,cs),
(262,296,o),
(234,278,o),
(230,248,cs),
(227,227,o),
(238,201,o),
(262,194,cs),
(352,169,o),
(409,199,o),
(432,223,cs),
(490,284,o),
(476,416,o),
(544,414,cs),
(558,414,o),
(540,228,o),
(484,155,cs),
(378,18,o),
(216,128,o),
(170,232,cs),
(102,387,o),
(229,541,o),
(267,561,cs),
(288,572,o),
(297,608,o),
(280,630,c),
(269,649,o),
(235,660,o),
(217,647,c)
);
}
);
width = 700;
},
{
layerId = "625C7B41-5CAD-42BA-9A13-A89677FC7E21";
shapes = (
{
closed = 1;
nodes = (
(103,575,o),
(-6,378,o),
(83,176,cs),
(160,0,o),
(416,-102,o),
(557,83,cs),
(652,208,o),
(700,515,o),
(555,515,cs),
(398,515,o),
(436,318,o),
(391,281,cs),
(377,269,o),
(350,245,o),
(285,260,cs),
(271,263,o),
(258,255,o),
(255,242,cs),
(252,228,o),
(260,215,o),
(273,212,cs),
(361,191,o),
(403,227,o),
(423,243,cs),
(494,303,o),
(440,465,o),
(555,465,cs),
(630,465,o),
(596,223,o),
(517,119,cs),
(400,-35,o),
(191,62,o),
(129,202,cs),
(53,376,o),
(145,543,o),
(249,609,cs),
(261,616,o),
(265,632,o),
(257,643,c),
(250,655,o),
(234,659,o),
(223,651,c)
);
}
);
width = 697;
}
);
unicode = 3205;
},
{
color = (255, 255, 153, 255);
glyphname = kn_aa;
layers = (
{
layerId = "22F7FBB9-6A27-4F4A-9FDC-2CC606CA4AF4";
shapes = (
{
closed = 1;
nodes = (
(144,598,o),
(39,484,o),
(51,302,cs),
(63,122,o),
(202,-21,o),
(378,-16,cs),
(621,-9,o),
(477,369,o),
(587,481,cs),
(602,496,o),
(586,440,o),
(577,420,cs),
(537,332,o),
(374,305,o),
(238,314,cs),
(213,316,o),
(191,292,o),
(189,264,cs),
(187,236,o),
(210,215,o),
(242,213,cs),
(374,204,o),
(586,230,o),
(658,359,cs),
(751,524,o),
(645,625,o),
(547,574,cs),
(366,480,o),
(493,89,o),
(375,84,cs),
(273,80,o),
(178,161,o),
(155,273,cs),
(128,407,o),
(205,523,o),
(277,569,cs),
(293,579,o),
(299,612,o),
(284,634,c),
(269,659,o),
(236,659,o),
(224,652,c)
);
}
);
width = 744;
},
{
layerId = "625C7B41-5CAD-42BA-9A13-A89677FC7E21";
shapes = (
{
closed = 1;
nodes = (
(144,598,o),
(39,484,o),
(51,302,cs),
(63,122,o),
(204,-19,o),
(380,-17,cs),
(628,-14,o),
(459,426,o),
(593,531,cs),
(623,555,o),
(634,489,o),
(599,417,cs),
(550,317,o),
(372,291,o),
(236,300,cs),
(222,301,o),
(210,290,o),
(209,277,cs),
(208,263,o),
(219,251,o),
(232,250,cs),
(364,241,o),
(577,261,o),
(643,395,cs),
(717,546,o),
(628,622,o),
(563,571,cs),
(403,445,o),
(564,38,o),
(380,35,cs),
(232,33,o),
(111,150,o),
(101,306,cs),
(91,462,o),
(180,562,o),
(252,610,cs),
(263,618,o),
(266,633,o),
(259,645,c),
(251,656,o),
(236,659,o),
(224,652,c)
);
}
);
width = 721;
}
);
unicode = 3206;
},
{
color = (255, 255, 153, 255);
glyphname = kn_i;
layers = (
{
layerId = "22F7FBB9-6A27-4F4A-9FDC-2CC606CA4AF4";
shapes = (
{
closed = 1;
nodes = (
(130,421,o),
(152,475,o),
(171,491,cs),
(209,524,o),
(296,448,o),
(305,397,cs),
(315,342,o),
(398,346,o),
(402,401,cs),
(408,483,o),
(449,520,o),
(499,520,cs),
(570,520,o),
(590,375,o),
(579,319,cs),
(565,246,o),
(544,130,o),
(452,100,cs),
(387,79,o),
(364,115,o),
(370,126,cs),
(380,143,o),
(429,133,o),
(488,95,cs),
(575,39,o),
(653,-105,o),
(864,-107,cs),
(886,-107,o),
(909,-85,o),
(909,-61,cs),
(909,-29,o),
(888,-7,o),
(861,-7,cs),
(688,-7,o),
(652,121,o),
(524,191,cs),
(415,250,o),
(318,250,o),
(280,170,cs),
(230,64,o),
(354,-59,o),
(510,16,cs),
(639,78,o),
(667,225,o),
(679,313,cs),
(692,412,o),
(662,618,o),
(500,620,cs),
(414,621,o),
(355,568,o),
(339,530,c),
(313,565,o),
(207,631,o),
(123,579,cs),
(15,512,o),
(35,361,o),
(139,316,cs),
(170,303,o),
(200,303,o),
(218,333,cs),
(232,357,o),
(219,395,o),
(196,402,cs)
);
}
);
width = 829;
},
{
layerId = "625C7B41-5CAD-42BA-9A13-A89677FC7E21";
shapes = (
{
closed = 1;
nodes = (
(86,395,o),
(79,487,o),
(149,536,cs),
(219,585,o),
(316,489,o),
(326,405,cs),
(330,375,o),
(374,376,o),
(376,406,cs),
(382,488,o),
(384,569,o),
(497,569,cs),
(617,569,o),
(638,395,o),
(627,319,cs),
(616,240,o),
(589,113,o),
(486,64,cs),
(390,19,o),
(321,89,o),
(341,133,cs),
(363,182,o),
(447,174,o),
(514,123,cs),
(620,42,o),
(651,-108,o),
(867,-107,cs),
(881,-107,o),
(892,-96,o),
(892,-82,cs),
(892,-68,o),
(881,-57,o),
(867,-57,cs),
(677,-58,o),
(662,72,o),
(544,163,cs),
(450,235,o),
(332,234,o),
(295,153,cs),
(255,66,o),
(370,-48,o),
(508,18,cs),
(637,80,o),
(666,235,o),
(677,313,cs),
(690,412,o),
(659,619,o),
(497,619,cs),
(393,619,o),
(353,562,o),
(339,507,c),
(294,575,o),
(201,633,o),
(121,578,cs),
(17,505,o),
(32,363,o),
(137,319,cs),
(150,314,o),
(165,320,o),
(170,332,cs),
(175,345,o),
(169,360,o),
(157,365,cs)
);
}
);
width = 812;
}
);
unicode = 3207;
},
{
color = (255, 255, 153, 255);
glyphname = kn_ii;
layers = (
{
layerId = "22F7FBB9-6A27-4F4A-9FDC-2CC606CA4AF4";
shapes = (
{
closed = 1;
nodes = (
(540,504,o),
(592,253,o),
(552,170,cs),
(514,91,o),
(334,29,o),
(273,199,cs),
(201,400,o),
(383,520,o),
(383,520,cs)
);
},
{
closed = 1;
nodes = (
(298,620,o),
(93,428,o),
(174,177,cs),
(261,-93,o),
(572,-35,o),
(644,129,cs),
(721,303,o),
(601,620,o),
(379,620,cs)
);
},
{
closed = 1;
nodes = (
(316,506,o),
(537,535,o),
(693,616,c),
(716,627,o),
(729,660,o),
(717,681,c),
(706,705,o),
(674,719,o),
(655,708,c),
(503,631,o),
(316,610,o),
(253,634,cs),
(230,643,o),
(194,619,o),
(194,590,cs),
(194,560,o),
(203,546,o),
(234,535,cs)
);
},
{
closed = 1;
nodes = (
(237,239,o),
(560,71,o),
(774,223,cs),
(1075,437,o),
(832,691,o),
(735,527,cs),
(699,466,o),
(684,365,o),
(702,252,cs),
(725,110,o),
(823,0,o),
(998,77,cs),
(1016,85,o),
(1027,120,o),
(1017,141,cs),
(1007,161,o),
(979,176,o),
(957,168,cs),
(845,127,o),
(817,182,o),
(799,277,cs),
(787,341,o),
(800,446,o),
(816,467,cs),
(820,473,o),
(848,408,o),
(728,315,cs),
(563,188,o),
(294,322,o),
(120,416,cs),
(101,426,o),
(72,419,o),
(56,392,cs),
(44,371,o),
(53,339,o),
(75,327,cs)
);
}
);
width = 1061;
},
{
layerId = "625C7B41-5CAD-42BA-9A13-A89677FC7E21";
shapes = (
{
closed = 1;
nodes = (
(536,570,o),
(636,293,o),
(573,149,cs),
(519,25,o),
(270,-33,o),
(197,193,cs),
(125,414,o),
(311,570,o),
(354,570,cs)
);
},
{
closed = 1;
nodes = (
(273,620,o),
(68,428,o),
(149,177,cs),
(236,-93,o),
(547,-35,o),
(619,129,cs),
(696,303,o),
(576,620,o),
(354,620,cs)
);
},
{
closed = 1;
nodes = (
(292,555,o),
(501,583,o),
(657,664,c),
(670,670,o),
(675,685,o),
(668,697,c),
(662,710,o),
(647,715,o),
(635,708,c),
(483,631,o),
(290,609,o),
(227,633,cs),
(214,638,o),
(200,632,o),
(195,619,cs),
(190,606,o),
(196,592,o),
(209,587,cs)
);
},
{
closed = 1;
nodes = (
(226,260,o),
(539,98,o),
(740,247,cs),
(1000,440,o),
(804,638,o),
(731,514,cs),
(702,465,o),
(685,360,o),
(699,266,cs),
(717,150,o),
(788,28,o),
(956,97,cs),
(968,102,o),
(974,117,o),
(969,130,cs),
(964,142,o),
(949,148,o),
(936,143,cs),
(818,94,o),
(766,166,o),
(749,274,cs),
(736,360,o),
(752,453,o),
(773,488,cs),
(804,540,o),
(888,419,o),
(710,287,cs),
(541,162,o),
(262,298,o),
(88,392,cs),
(76,399,o),
(61,394,o),
(54,382,cs),
(47,370,o),
(52,355,o),
(64,348,cs)
);
}
);
width = 1011;
}
);
unicode = 3208;
},
{
color = (255, 255, 153, 255);
glyphname = kn_u;
layers = (
{
layerId = "22F7FBB9-6A27-4F4A-9FDC-2CC606CA4AF4";
shapes = (
{
closed = 1;
nodes = (
(317,341,o),
(375,611,o),
(208,622,cs),
(27,634,o),
(-68,55,o),
(321,3,cs),
(631,-39,o),
(644,320,o),
(741,320,cs),
(840,320,o),
(906,-55,o),
(1147,-31,cs),
(1275,-18,o),
(1524,208,o),
(1245,530,cs),
(1212,568,o),
(1181,578,o),
(1153,551,cs),
(1135,533,o),
(1133,501,o),
(1157,477,cs),
(1386,239,o),
(1210,73,o),
(1138,68,cs),
(952,55,o),
(947,420,o),
(741,420,cs),
(532,420,o),
(585,62,o),
(324,104,cs),
(97,141,o),
(138,472,o),
(207,521,cs),
(210,523,o),
(211,473,o),
(172,484,cs),
(147,491,o),
(119,468,o),
(115,443,cs),
(111,420,o),
(128,393,o),
(150,387,cs)
);
}
);
width = 1423;
},
{
layerId = "625C7B41-5CAD-42BA-9A13-A89677FC7E21";
shapes = (
{
closed = 1;
nodes = (
(282,402,o),
(321,599,o),
(205,619,cs),
(36,648,o),
(-74,52,o),
(315,3,cs),
(600,-33,o),
(607,320,o),
(738,320,cs),
(871,320,o),
(903,-55,o),
(1144,-31,cs),
(1272,-18,o),
(1521,208,o),
(1242,530,cs),
(1233,541,o),
(1217,542,o),
(1207,533,cs),
(1196,524,o),
(1195,508,o),
(1204,498,cs),
(1457,206,o),
(1226,28,o),
(1140,19,cs),
(933,-1,o),
(917,370,o),
(738,370,cs),
(559,370,o),
(575,21,o),
(321,53,cs),
(-6,94,o),
(105,586,o),
(197,569,cs),
(244,561,o),
(227,468,o),
(169,484,cs),
(155,488,o),
(142,480,o),
(138,467,cs),
(134,453,o),
(142,440,o),
(155,436,cs)
);
}
);
width = 1420;
}
);
unicode = 3209;
},
{
color = (255, 255, 153, 255);
glyphname = kn_uu;
layers = (
{
layerId = "22F7FBB9-6A27-4F4A-9FDC-2CC606CA4AF4";
shapes = (
{
closed = 1;
nodes = (
(375,309,o),
(417,631,o),
(184,611,cs),
(0,596,o),
(-14,27,o),
(274,27,cs),
(554,27,o),
(466,330,o),
(647,330,cs),
(785,330,o),
(782,-15,o),
(990,-11,cs),
(1261,-6,o),
(1093,365,o),
(1251,372,cs),
(1362,377,o),
(1434,210,o),
(1395,58,c),
(1388,34,o),
(1407,5,o),
(1434,-1,c),
(1461,-9,o),
(1487,10,o),
(1494,45,c),
(1537,211,o),
(1451,479,o),
(1261,472,cs),
(964,461,o),
(1150,89,o),
(988,89,cs),
(862,89,o),
(880,428,o),
(647,430,cs),
(384,432,o),
(459,111,o),
(273,127,cs),
(113,141,o),
(142,509,o),
(196,511,cs),
(274,514,o),
(251,420,o),
(189,445,cs),
(166,454,o),
(127,436,o),
(127,396,cs),
(127,369,o),
(147,349,o),
(189,340,c)
);
}
);
width = 1555;
},
{
layerId = "625C7B41-5CAD-42BA-9A13-A89677FC7E21";
shapes = (
{
closed = 1;
nodes = (
(304,400,o),
(329,611,o),
(185,611,cs),
(7,610,o),
(-22,27,o),
(273,27,cs),
(553,27,o),
(466,330,o),
(647,330,cs),
(785,330,o),
(782,-16,o),
(990,-11,cs),
(1234,-5,o),
(1089,376,o),
(1249,417,cs),
(1393,453,o),
(1483,210,o),
(1444,58,c),
(1440,45,o),
(1448,31,o),
(1462,28,c),
(1475,24,o),
(1489,32,o),
(1492,46,c),
(1539,229,o),
(1428,513,o),
(1237,465,cs),
(1032,413,o),
(1177,43,o),
(988,39,cs),
(821,35,o),
(830,380,o),
(647,380,cs),
(419,380,o),
(518,77,o),
(273,77,cs),
(40,77,o),
(79,560,o),
(185,561,cs),
(258,561,o),
(241,462,o),
(198,469,cs),
(184,471,o),
(172,462,o),
(169,448,cs),
(167,434,o),
(176,422,o),
(190,419,c)
);
}
);
width = 1553;
}
);
unicode = 3210;
},
{
color = (255, 255, 153, 255);
glyphname = kn_r_ext;
layers = (
{
layerId = "22F7FBB9-6A27-4F4A-9FDC-2CC606CA4AF4";
shapes = (
{
closed = 1;
nodes = (
(717,468,o),
(890,462,o),
(1091,612,cs),
(1117,632,o),
(1127,653,o),
(1111,685,cs),
(1099,709,o),
(1063,715,o),
(1045,702,cs),
(855,558,o),
(708,569,o),
(661,587,cs),
(648,592,o),
(609,581,o),
(605,542,cs),
(602,515,o),
(617,496,o),
(648,487,cs)
);
},
{
closed = 1;
nodes = (
(256,470,l),
(248,468,o),
(229,499,o),
(234,509,cs),
(241,523,o),
(256,525,o),
(284,519,c),
(306,515,o),
(425,492,o),
(433,363,cs),
(439,262,o),
(430,97,o),
(265,102,cs),
(181,104,o),
(152,125,o),
(152,132,cs),
(152,136,o),
(184,170,o),
(268,170,cs),
(407,170,o),
(549,55,o),
(608,24,c),
(665,-8,o),
(756,-7,o),
(807,27,cs),
(855,59,o),
(923,143,o),
(923,258,cs),
(923,361,o),
(861,577,o),
(709,577,cs),
(660,577,o),
(640,564,o),
(640,527,cs),
(640,498,o),
(663,479,o),
(696,479,cs),
(787,479,o),
(817,333,o),
(824,273,cs),
(831,213,o),
(797,164,o),
(770,130,cs),
(739,91,o),
(682,97,o),
(641,123,cs),
(517,201,o),
(410,270,o),
(255,270,cs),
(107,270,o),
(50,177,o),
(50,141,cs),
(50,57,o),
(128,0,o),
(270,2,cs),
(497,4,o),
(538,193,o),
(535,353,cs),
(531,567,o),
(337,612,o),
(294,619,cs),
(212,632,o),
(123,592,o),
(135,489,cs),
(149,360,o),
(320,326,o),
(337,416,cs),
(344,454,o),
(327,475,o),
(303,482,cs),
(288,486,o),
(261,482,o),
(256,469,c)
);
},
{
closed = 1;
nodes = (
(1060,-147,o),
(1447,0,o),
(1157,485,cs),
(1125,538,o),
(1100,534,o),
(1072,520,c),
(1050,507,o),
(1043,461,o),
(1069,439,c),
(1301,70,o),
(1051,-13,o),
(905,173,cs),
(896,184,o),
(857,197,o),
(834,166,cs),
(805,127,o),
(838,100,o),
(847,90,cs)
);
}
);
width = 1311;
},
{
layerId = "625C7B41-5CAD-42BA-9A13-A89677FC7E21";
shapes = (
{
closed = 1;
nodes = (
(683,515,o),
(855,512,o),
(1055,664,cs),
(1066,672,o),
(1068,688,o),
(1060,699,cs),
(1052,710,o),
(1036,712,o),
(1025,704,cs),
(835,560,o),
(681,569,o),
(634,587,cs),
(621,592,o),
(607,586,o),
(602,573,cs),
(597,560,o),
(603,546,o),
(616,541,cs)
);
},
{
closed = 1;
nodes = (
(239,490,l),
(233,483,o),
(184,481,o),
(184,531,cs),
(184,572,o),
(228,576,o),
(259,569,c),
(281,565,o),
(425,542,o),
(425,363,cs),
(425,260,o),
(421,52,o),
(243,52,cs),
(125,52,o),
(100,92,o),
(100,111,cs),
(100,115,o),
(124,170,o),
(243,170,cs),
(382,170,o),
(529,57,o),
(588,26,c),
(645,-6,o),
(731,-7,o),
(782,27,cs),
(830,59,o),
(898,143,o),
(898,258,cs),
(898,361,o),
(836,577,o),
(684,577,cs),
(670,577,o),
(659,566,o),
(659,552,cs),
(659,538,o),
(670,527,o),
(684,527,cs),
(784,527,o),
(848,365,o),
(848,258,cs),
(848,163,o),
(790,93,o),
(754,69,cs),
(721,47,o),
(655,47,o),
(612,70,cs),
(550,104,o),
(398,220,o),
(243,220,cs),
(100,220,o),
(50,147,o),
(50,111,cs),
(50,102,o),
(50,2,o),
(243,2,cs),
(477,2,o),
(475,287,o),
(475,363,cs),
(475,584,o),
(289,615,o),
(269,619,cs),
(212,630,o),
(134,612,o),
(134,531,cs),
(134,415,o),
(289,412,o),
(289,489,cs),
(289,503,o),
(278,514,o),
(264,514,cs),
(250,514,o),
(239,503,o),
(239,489,c)
);
},
{
closed = 1;
nodes = (
(1038,-158,o),
(1425,22,o),
(1129,485,cs),
(1122,497,o),
(1106,501,o),
(1095,493,c),
(1083,486,o),
(1079,470,o),
(1087,459,c),
(1347,52,o),
(1038,-81,o),
(866,123,cs),
(857,134,o),
(841,135,o),
(831,126,cs),
(820,117,o),
(819,101,o),
(828,91,cs)
);
}
);
width = 1287;
}
);
unicode = 3211;
},
{
color = (255, 255, 153, 255);
glyphname = kn_e;
layers = (
{
layerId = "22F7FBB9-6A27-4F4A-9FDC-2CC606CA4AF4";
shapes = (
{
closed = 1;
nodes = (
(243,107,o),
(273,162,o),
(278,193,cs),
(289,262,o),
(245,323,o),
(168,321,cs),
(100,319,o),
(42,271,o),
(52,171,cs),
(64,50,o),
(128,0,o),
(246,0,cs),
(339,0,o),
(417,59,o),
(445,90,c),
(473,48,o),
(526,-5,o),
(633,0,cs),
(807,8,o),
(827,186,o),
(825,297,cs),
(822,497,o),
(604,620,o),
(467,620,cs),
(439,620,o),
(417,598,o),
(417,570,cs),
(417,543,o),
(440,520,o),
(467,520,cs),
(553,520,o),
(720,432,o),
(724,301,cs),
(727,187,o),
(708,104,o),
(631,100,cs),
(529,95,o),
(520,172,o),
(495,207,c),
(482,234,o),
(427,234,o),
(414,208,cs),
(400,179,o),
(330,104,o),
(246,100,cs),
(231,99,o),
(152,93,o),
(151,176,cs),
(151,213,o),
(152,218,o),
(166,220,cs),
(177,222,o),
(180,220,o),
(180,217,cs),
(180,207,o),
(177,215,o),
(154,207,cs),
(136,201,o),
(124,175,o),
(124,161,cs),
(124,132,o),
(151,113,o),
(165,112,cs)
);
}
);
width = 876;
},
{
layerId = "625C7B41-5CAD-42BA-9A13-A89677FC7E21";
shapes = (
{
closed = 1;
nodes = (
(230,111,o),
(229,174,o),
(229,191,cs),
(229,232,o),
(198,271,o),
(148,271,cs),
(96,271,o),
(50,239,o),
(50,172,cs),
(50,55,o),
(125,0,o),
(240,0,cs),
(333,0,o),
(411,59,o),
(439,90,c),
(467,48,o),
(520,-5,o),
(627,0,cs),
(801,8,o),
(817,194,o),
(817,301,cs),
(817,501,o),
(583,620,o),
(461,620,cs),
(447,620,o),
(436,609,o),
(436,595,cs),
(436,581,o),
(447,570,o),
(461,570,cs),
(565,570,o),
(767,465,o),
(767,301,cs),
(767,119,o),
(713,54,o),
(625,50,cs),
(517,45,o),
(483,111,o),
(464,147,c),
(455,166,o),
(429,165,o),
(420,147,cs),
(406,118,o),
(327,50,o),
(240,50,cs),
(155,50,o),
(100,81,o),
(100,172,cs),
(100,209,o),
(122,221,o),
(148,221,cs),
(173,221,o),
(179,202,o),
(179,191,cs),
(179,171,o),
(178,161,o),
(148,161,cs),
(134,161,o),
(123,150,o),
(123,136,cs),
(123,122,o),
(134,111,o),
(148,111,cs)
);
}
);
width = 867;
}
);
unicode = 3214;
},
{
color = (255, 255, 153, 255);
glyphname = kn_ee;
layers = (
{
layerId = "22F7FBB9-6A27-4F4A-9FDC-2CC606CA4AF4";
shapes = (
{
closed = 1;
nodes = (
(250,98,o),
(270,159,o),
(271,192,cs),
(273,250,o),
(236,304,o),
(164,303,cs),
(84,302,o),
(45,236,o),
(51,164,cs),
(60,51,o),
(122,1,o),
(233,1,cs),
(315,1,o),
(387,50,o),
(420,84,c),
(445,45,o),
(497,2,o),
(596,1,cs),
(716,0,o),
(824,147,o),
(782,297,cs),
(725,503,o),
(465,457,o),
(472,505,cs),
(481,566,o),
(682,569,o),
(798,548,cs),
(821,544,o),
(847,563,o),
(852,587,cs),
(859,619,o),
(840,641,o),
(807,648,cs),
(670,677,o),
(368,673,o),
(372,501,cs),
(376,324,o),
(619,427,o),
(681,285,cs),
(716,206,o),
(660,104,o),
(595,101,cs),
(508,97,o),
(483,167,o),
(467,199,cs),
(454,225,o),
(402,228,o),
(389,202,cs),
(376,176,o),
(314,108,o),
(244,102,cs),
(169,95,o),
(156,129,o),
(153,153,cs),
(149,187,o),
(148,203,o),
(165,203,cs),
(171,203,o),
(171,205,o),
(171,201,cs),
(171,196,o),
(170,200,o),
(156,197,cs),
(128,191,o),
(119,161,o),
(120,145,cs),
(122,121,o),
(146,98,o),
(173,98,cs)
);
}
);
width = 904;
},
{
layerId = "625C7B41-5CAD-42BA-9A13-A89677FC7E21";
shapes = (
{
closed = 1;
nodes = (
(221,104,o),
(220,167,o),
(220,181,cs),
(220,221,o),
(191,258,o),
(144,258,cs),
(93,258,o),
(50,228,o),
(50,164,cs),
(50,53,o),
(121,1,o),
(230,1,cs),
(312,1,o),
(384,50,o),
(417,84,c),
(442,45,o),
(494,-4,o),
(593,1,cs),
(713,6,o),
(831,157,o),
(771,295,cs),
(703,452,o),
(445,446,o),
(445,526,cs),
(445,623,o),
(680,619,o),
(796,598,cs),
(809,596,o),
(822,605,o),
(825,619,cs),
(827,632,o),
(818,645,o),
(804,648,cs),
(701,666,o),
(395,689,o),
(395,526,cs),
(395,391,o),
(663,416,o),
(725,275,cs),
(770,171,o),
(679,55,o),
(591,51,cs),
(491,47,o),
(458,108,o),
(442,140,cs),
(433,159,o),
(407,159,o),
(398,140,cs),
(385,114,o),
(311,51,o),
(230,51,cs),
(151,51,o),
(100,80,o),
(100,164,cs),
(100,198,o),
(118,208,o),
(144,208,cs),
(166,208,o),
(170,190,o),
(170,181,cs),
(170,161,o),
(168,154,o),
(144,154,cs),
(130,154,o),
(119,143,o),
(119,129,cs),
(119,115,o),
(130,104,o),
(144,104,cs)
);
}
);
width = 876;
}
);
unicode = 3215;
},
{
color = (255, 255, 153, 255);
glyphname = kn_ai;
layers = (
{
layerId = "22F7FBB9-6A27-4F4A-9FDC-2CC606CA4AF4";
shapes = (
{
closed = 1;
nodes = (
(247,283,o),
(207,327,o),
(146,327,cs),
(84,327,o),
(43,268,o),
(52,191,cs),
(62,106,o),
(99,0,o),
(273,0,cs),
(415,0,o),
(475,41,o),
(503,75,c),
(532,52,o),
(582,25,o),
(666,30,cs),
(775,36,o),
(840,143,o),
(840,252,cs),
(840,317,o),
(837,511,o),
(617,489,cs),
(363,464,o),
(407,283,o),
(529,283,cs),
(583,283,o),
(625,307,o),
(648,353,cs),
(694,445,o),
(572,577,o),
(431,624,cs),
(309,665,o),
(107,640,o),
(66,553,cs),
(23,462,o),
(81,361,o),
(158,361,cs),
(186,361,o),
(208,383,o),
(208,411,cs),
(208,436,o),
(187,460,o),
(163,460,cs),
(159,460,o),
(143,481,o),
(156,507,c),
(172,538,o),
(310,561,o),
(407,528,cs),
(499,497,o),
(546,422,o),
(547,421,cs),
(556,405,o),
(556,400,o),
(557,394,c),
(549,384,o),
(543,380,o),
(530,360,c),
(724,445,o),
(740,344,o),
(740,252,cs),
(740,236,o),
(725,134,o),
(662,130,cs),
(579,125,o),
(542,170,o),
(526,186,cs),
(509,203,o),
(474,200,o),
(460,182,cs),
(450,169,o),
(428,101,o),
(273,100,cs),
(156,99,o),
(153,156,o),
(151,191,cs),
(150,200,o),
(153,208,o),
(146,212,c),
(141,203,o),
(149,204,o),
(151,201,cs),
(158,190,o),
(178,178,o),
(198,181,cs),
(215,183,o),
(238,202,o),
(240,219,cs)
);
}
);
width = 890;
},
{
layerId = "625C7B41-5CAD-42BA-9A13-A89677FC7E21";
shapes = (
{
closed = 1;
nodes = (
(190,252,o),
(162,277,o),
(120,277,cs),
(78,277,o),
(50,239,o),
(50,191,cs),
(50,105,o),
(97,0,o),
(271,0,cs),
(413,0,o),
(473,41,o),
(501,75,c),
(530,52,o),
(580,25,o),
(664,30,cs),
(769,37,o),
(838,149,o),
(838,252,cs),
(838,317,o),
(836,507,o),
(615,489,cs),
(395,471,o),
(439,333,o),
(527,333,cs),
(571,333,o),
(605,354,o),
(624,392,cs),
(668,480,o),
(556,581,o),
(429,624,cs),
(307,666,o),
(105,640,o),
(64,553,cs),
(31,481,o),
(75,411,o),
(132,411,cs),
(146,411,o),
(157,422,o),
(157,436,cs),
(157,450,o),
(146,461,o),
(132,461,cs),
(113,461,o),
(91,493,o),
(110,531,c),
(133,582,o),
(298,615,o),
(413,576,cs),
(523,538,o),
(603,461,o),
(580,414,cs),
(569,393,o),
(552,383,o),
(527,383,cs),
(486,383,o),
(497,429,o),
(619,439,cs),
(774,452,o),
(788,344,o),
(788,252,cs),
(788,168,o),
(733,84,o),
(660,80,cs),
(569,74,o),
(531,114,o),
(515,130,cs),
(504,141,o),
(486,139,o),
(477,126,cs),
(467,113,o),
(441,50,o),
(271,50,cs),
(109,50,o),
(100,152,o),
(100,191,cs),
(100,205,o),
(105,227,o),
(120,227,cs),
(137,227,o),
(140,222,o),
(140,206,cs),
(140,192,o),
(151,181,o),
(165,181,cs),
(179,181,o),
(190,192,o),
(190,206,cs)
);
}
);
width = 888;
}
);
unicode = 3216;
},
{
color = (255, 255, 153, 255);
glyphname = kn_o;
layers = (
{
layerId = "22F7FBB9-6A27-4F4A-9FDC-2CC606CA4AF4";
shapes = (
{
closed = 1;
nodes = (
(162,529,o),
(136,582,o),
(150,523,c),
(156,515,o),
(244,529,o),
(244,440,cs),
(244,346,o),
(115,263,o),
(110,157,cs),
(106,72,o),
(153,0,o),
(268,0,cs),
(353,0,o),
(406,66,o),
(425,92,c),
(453,48,o),
(514,-14,o),
(599,-14,cs),
(752,-14,o),
(793,157,o),
(749,245,cs),
(737,269,o),
(704,281,o),
(682,268,cs),
(657,253,o),
(645,225,o),
(659,201,c),
(669,180,o),
(671,83,o),
(598,86,cs),
(533,89,o),
(490,170,o),
(474,211,cs),
(457,254,o),
(402,255,o),
(381,214,cs),
(360,172,o),
(322,101,o),
(270,100,cs),
(224,99,o),
(200,121,o),
(214,171,cs),
(229,224,o),
(344,310,o),
(344,440,cs),
(344,660,o),
(50,681,o),
(50,523,cs),
(50,414,o),
(232,414,o),
(231,519,cs),
(231,551,o),
(206,569,o),
(181,569,cs),
(166,569,o),
(89,524,o),
(131,519,c)
);
}
);
width = 816;
},
{
layerId = "625C7B41-5CAD-42BA-9A13-A89677FC7E21";
shapes = (
{
closed = 1;
nodes = (
(130,537,o),
(100,537,o),
(100,543,c),
(100,590,o),
(262,597,o),
(262,476,cs),
(262,381,o),
(103,263,o),
(103,157,cs),
(103,71,o),
(146,0,o),
(261,0,cs),
(346,0,o),
(400,66,o),
(419,92,c),
(447,48,o),
(507,-14,o),
(592,-14,cs),
(731,-14,o),
(781,139,o),
(747,208,cs),
(741,220,o),
(726,226,o),
(714,219,cs),
(702,213,o),
(696,198,o),
(703,186,c),
(721,149,o),
(693,36,o),
(592,36,cs),
(513,36,o),
(459,112,o),
(443,153,cs),
(435,174,o),
(406,175,o),
(397,154,cs),
(380,116,o),
(330,50,o),
(261,50,cs),
(174,50,o),
(153,100,o),
(153,157,cs),
(153,239,o),
(312,360,o),
(312,476,cs),
(312,660,o),
(50,662,o),
(50,543,cs),
(50,470,o),
(180,470,o),
(180,543,cs),
(180,557,o),
(169,568,o),
(155,568,cs),
(141,568,o),
(130,557,o),
(130,543,c)
);
}
);
width = 808;
}
);
unicode = 3218;
},
{
color = (255, 255, 153, 255);
glyphname = kn_oo;
layers = (
{
layerId = "22F7FBB9-6A27-4F4A-9FDC-2CC606CA4AF4";
shapes = (
{
closed = 1;
nodes = (
(387,555,o),
(530,592,o),
(663,609,cs),
(690,613,o),
(709,638,o),
(706,666,c),
(702,693,o),
(677,712,o),
(649,709,c),
(526,692,o),
(323,653,o),
(250,495,cs),
(238,470,o),
(249,440,o),
(274,429,cs),
(299,417,o),
(329,428,o),
(340,453,cs)
);
},
{
closed = 1;
nodes = (
(162,529,o),
(136,582,o),
(150,523,c),
(156,515,o),
(244,529,o),
(244,440,cs),
(244,346,o),
(115,263,o),
(110,157,cs),
(106,72,o),
(153,0,o),
(268,0,cs),
(353,0,o),
(406,66,o),
(425,92,c),
(453,48,o),
(514,-14,o),
(599,-14,cs),
(752,-14,o),
(793,157,o),
(749,245,cs),
(737,269,o),
(704,281,o),
(682,268,cs),
(657,253,o),
(645,225,o),
(659,201,c),
(669,180,o),
(671,83,o),
(598,86,cs),
(533,89,o),
(490,170,o),
(474,211,cs),
(457,254,o),
(402,255,o),
(381,214,cs),
(360,172,o),
(322,101,o),
(270,100,cs),
(224,99,o),
(200,121,o),
(214,171,cs),
(229,224,o),
(344,310,o),
(344,440,cs),
(344,660,o),
(50,681,o),
(50,523,cs),
(50,414,o),
(232,414,o),
(231,519,cs),
(231,551,o),
(206,569,o),
(181,569,cs),
(166,569,o),
(89,524,o),
(131,519,c)
);
}
);
width = 816;
},
{
layerId = "625C7B41-5CAD-42BA-9A13-A89677FC7E21";
shapes = (
{
closed = 1;
nodes = (
(364,604,o),
(522,642,o),
(652,659,cs),
(666,661,o),
(676,674,o),
(674,687,cs),
(672,701,o),
(659,711,o),
(646,709,cs),
(520,692,o),
(332,654,o),
(265,509,cs),
(259,497,o),
(265,482,o),
(278,476,cs),
(290,470,o),
(305,476,o),
(311,489,cs)
);
},
{
closed = 1;
nodes = (
(130,537,o),
(100,537,o),
(100,543,c),
(100,590,o),
(262,597,o),
(262,476,cs),
(262,381,o),
(103,263,o),
(103,157,cs),
(103,71,o),
(146,0,o),
(261,0,cs),
(346,0,o),
(400,66,o),
(419,92,c),
(447,48,o),
(507,-14,o),
(592,-14,cs),
(731,-14,o),
(781,139,o),
(747,208,cs),
(741,220,o),
(726,226,o),
(714,219,cs),
(702,213,o),
(696,198,o),
(703,186,c),
(721,149,o),
(693,36,o),
(592,36,cs),
(513,36,o),
(459,112,o),
(443,153,cs),
(435,174,o),
(406,175,o),
(397,154,cs),
(380,116,o),
(330,50,o),
(261,50,cs),
(174,50,o),
(153,100,o),
(153,157,cs),
(153,239,o),
(312,360,o),
(312,476,cs),
(312,660,o),
(50,662,o),
(50,543,cs),
(50,470,o),
(180,470,o),
(180,543,cs),
(180,557,o),
(169,568,o),
(155,568,cs),
(141,568,o),
(130,557,o),
(130,543,c)
);
}
);
width = 808;
}
);
unicode = 3219;
},
{
color = (255, 255, 153, 255);
glyphname = kn_au;
layers = (
{
layerId = "22F7FBB9-6A27-4F4A-9FDC-2CC606CA4AF4";
shapes = (
{
closed = 1;
nodes = (
(178,539,o),
(342,576,o),
(342,683,cs),
(342,717,o),
(333,739,o),
(305,751,cs),
(285,760,o),
(256,764,o),
(215,764,c),
(216,726,l),
(246,728,o),
(274,728,o),
(299,728,cs),
(341,727,o),
(375,724,o),
(392,721,cs),
(392,721,o),
(432,710,o),
(430,677,cs),
(429,657,o),
(427,649,o),
(393,625,cs),
(372,610,o),
(370,585,o),
(382,567,cs),
(396,547,o),
(420,544,o),
(440,556,cs),
(479,579,o),
(511,615,o),
(513,672,cs),
(516,751,o),
(460,792,o),
(409,803,cs),
(361,814,o),
(251,813,o),
(169,803,cs),
(117,797,o),
(121,720,o),
(174,720,cs),
(253,720,o),
(260,695,o),
(259,683,cs),
(257,656,o),
(169,637,o),
(111,666,cs),
(90,676,o),
(66,668,o),
(55,647,cs),
(45,627,o),
(54,601,o),
(74,591,cs)
);
},
{
closed = 1;
nodes = (
(172,529,o),
(146,582,o),
(160,523,c),
(166,515,o),
(254,529,o),
(254,440,cs),
(254,346,o),
(125,263,o),
(120,157,cs),
(116,72,o),
(163,0,o),
(278,0,cs),
(363,0,o),
(416,66,o),
(435,92,c),
(463,48,o),
(524,-14,o),
(609,-14,cs),
(762,-14,o),
(803,157,o),
(759,245,cs),
(747,269,o),
(714,281,o),
(692,268,cs),
(667,253,o),
(655,225,o),
(669,201,c),
(679,180,o),
(681,83,o),
(608,86,cs),
(543,89,o),
(500,170,o),
(484,211,cs),
(467,254,o),
(412,255,o),
(391,214,cs),
(370,172,o),
(332,101,o),
(280,100,cs),
(234,99,o),
(210,121,o),
(224,171,cs),
(239,224,o),
(354,310,o),
(354,440,cs),
(354,660,o),
(60,681,o),
(60,523,cs),
(60,414,o),
(242,414,o),
(241,519,cs),
(241,551,o),
(216,569,o),
(191,569,cs),
(176,569,o),
(99,524,o),
(141,519,c)
);
}
);
width = 826;
},
{
layerId = "625C7B41-5CAD-42BA-9A13-A89677FC7E21";
shapes = (
{
closed = 1;
nodes = (
(150,567,o),
(305,590,o),
(305,683,cs),
(305,721,o),
(284,760,o),
(242,783,cs),
(220,795,o),
(204,791,o),
(170,791,c),
(170,766,l),
(193,768,o),
(205,766,o),
(228,767,cs),
(290,770,o),
(350,768,o),
(379,762,cs),
(403,757,o),
(454,732,o),
(454,693,cs),
(454,652,o),
(447,629,o),
(415,600,cs),
(406,592,o),
(405,579,o),
(413,571,cs),
(421,562,o),
(434,561,o),
(443,569,cs),
(486,608,o),
(495,643,o),
(495,693,cs),
(495,759,o),
(426,795,o),
(388,803,cs),
(340,814,o),
(237,813,o),
(155,803,cs),
(129,800,o),
(131,762,o),
(157,762,cs),
(237,762,o),
(263,716,o),
(263,683,cs),
(263,632,o),
(146,616,o),
(85,647,cs),
(75,652,o),
(62,648,o),
(57,638,cs),
(52,628,o),
(56,615,o),
(66,610,cs)
);
},
{
closed = 1;
nodes = (
(130,537,o),
(100,537,o),
(100,543,cs),
(100,590,o),
(262,597,o),
(262,476,cs),
(262,381,o),
(103,263,o),
(103,157,cs),
(103,71,o),
(146,0,o),
(261,0,cs),
(346,0,o),
(400,66,o),
(419,92,c),
(447,48,o),
(507,-14,o),
(592,-14,cs),
(731,-14,o),
(781,139,o),
(747,208,cs),
(741,220,o),
(726,226,o),
(714,219,cs),
(702,213,o),
(696,198,o),
(703,186,c),
(721,149,o),
(693,36,o),
(592,36,cs),
(513,36,o),
(459,112,o),
(443,153,cs),
(435,174,o),
(406,175,o),
(397,154,cs),
(380,116,o),
(330,50,o),
(261,50,cs),
(174,50,o),
(153,100,o),
(153,157,cs),
(153,239,o),
(312,360,o),
(312,476,cs),
(312,660,o),
(50,662,o),
(50,543,cs),
(50,470,o),
(180,470,o),
(180,543,cs),
(180,557,o),
(169,568,o),
(155,568,cs),
(141,568,o),
(130,557,o),
(130,543,cs)
);
}
);
width = 808;
}
);
unicode = 3220;
},
{
color = (255, 255, 153, 255);
glyphname = kn_k;
layers = (
{
layerId = "22F7FBB9-6A27-4F4A-9FDC-2CC606CA4AF4";
shapes = (
{
closed = 1;
nodes = (
(183,398,o),
(131,337,o),
(131,216,cs),
(131,93,o),
(262,-13,o),
(393,-10,cs),
(513,-7,o),
(635,90,o),
(635,216,cs),
(635,332,o),
(580,365,o),
(466,417,cs),
(448,425,o),
(496,620,o),
(389,606,cs),
(235,586,o),
(79,626,o),
(78,532,cs),
(77,382,o),
(623,561,o),
(680,590,cs),
(701,601,o),
(709,634,o),
(698,656,cs),
(687,678,o),
(657,691,o),
(637,681,cs),
(633,679,ls),
(529,627,o),
(197,561,o),
(151,573,c),
(155,492,l),
(179,501,o),
(269,490,o),
(361,502,c),
(361,502,l),
(363,470,o),
(339,377,o),
(406,335,cs),
(508,271,o),
(532,294,o),
(532,216,cs),
(532,148,o),
(456,93,o),
(392,92,cs),
(319,91,o),
(232,151,o),
(232,216,cs),
(232,263,o),
(237,304,o),
(328,320,cs),
(387,331,o),
(373,375,o),
(371,388,cs),
(367,411,o),
(342,426,o),
(319,421,c)
);
},
{
closed = 1;
nodes = (
(242,317,o),
(609,334,o),
(706,367,cs),
(737,378,o),
(752,401,o),
(743,435,c),
(732,463,o),
(700,473,o),
(681,464,cs),
(616,434,o),
(248,417,o),
(104,433,c),
(90,434,o),
(56,427,o),
(51,387,cs),
(48,360,o),
(69,336,o),
(98,333,cs)
);
}
);
width = 796;
},
{
layerId = "625C7B41-5CAD-42BA-9A13-A89677FC7E21";
shapes = (
{
closed = 1;
nodes = (
(164,399,o),
(101,331,o),
(101,216,cs),
(101,98,o),
(244,-13,o),
(368,-10,cs),
(478,-8,o),
(614,98,o),
(614,216,cs),
(614,332,o),
(559,339,o),
(441,417,cs),
(389,452,o),
(471,619,o),
(364,605,cs),
(210,585,o),
(79,616,o),
(79,556,cs),
(79,455,o),
(582,606,o),
(639,635,cs),
(652,642,o),
(656,657,o),
(650,669,cs),
(643,682,o),
(629,687,o),
(616,680,cs),
(612,678,ls),
(508,626,o),
(164,557,o),
(120,573,c),
(120,540,l),
(144,549,o),
(279,543,o),
(371,555,c),
(372,555,l),
(381,522,o),
(347,420,o),
(413,375,cs),
(537,293,o),
(563,300,o),
(563,216,cs),
(563,131,o),
(455,43,o),
(367,41,cs),
(265,39,o),
(152,131,o),
(152,216,cs),
(152,299,o),
(190,351,o),
(303,371,cs),
(317,373,o),
(326,387,o),
(324,400,cs),
(321,414,o),
(308,424,o),
(294,421,c)
);
},
{
closed = 1;
nodes = (
(217,366,o),
(603,381,o),
(682,418,cs),
(694,424,o),
(700,439,o),
(694,452,cs),
(688,464,o),
(673,470,o),
(660,464,cs),
(595,433,o),
(223,416,o),
(79,432,c),
(65,433,o),
(53,424,o),
(51,410,cs),
(50,396,o),
(59,384,o),
(73,382,cs)
);
}
);
width = 747;
}
);
unicode = 3221;
},
{
color = (255, 255, 153, 255);
glyphname = kn_kh;
layers = (
{
layerId = "22F7FBB9-6A27-4F4A-9FDC-2CC606CA4AF4";
shapes = (
{
closed = 1;
nodes = (
(315,508,o),
(364,412,o),
(354,312,cs),
(344,207,o),
(225,113,o),
(181,103,cs),
(157,98,o),
(150,95,o),
(150,123,cs),
(150,157,o),
(162,180,o),
(209,177,cs),
(218,176,o),
(229,175,o),
(241,172,cs),
(372,144,o),
(395,90,o),
(525,42,cs),
(733,-36,o),
(794,180,o),
(813,272,cs),
(835,391,o),
(816,557,o),
(747,660,cs),
(743,666,o),
(739,671,o),
(733,675,cs),
(717,686,o),
(695,686,o),
(678,675,cs),
(666,668,o),
(659,656,o),
(656,644,cs),
(653,631,o),
(656,618,o),
(663,606,cs),
(680,580,o),
(742,429,o),
(720,316,cs),
(680,106,o),
(615,115,o),
(559,136,cs),
(447,178,o),
(410,238,o),
(263,270,cs),
(250,273,o),
(238,275,o),
(227,276,cs),
(91,289,o),
(50,193,o),
(50,123,cs),
(50,114,o),
(51,106,o),
(52,98,cs),
(61,25,o),
(115,-18,o),
(205,5,cs),
(278,23,o),
(421,134,o),
(450,275,cs),
(452,284,o),
(453,293,o),
(454,302,cs),
(464,409,o),
(421,570,o),
(341,606,cs),
(238,653,o),
(142,600,o),
(148,484,cs),
(150,457,o),
(178,438,o),
(205,441,cs),
(219,443,o),
(230,451,o),
(238,461,cs),
(259,488,o),
(250,536,o),
(299,514,c)
);
}
);
width = 872;
},
{
layerId = "625C7B41-5CAD-42BA-9A13-A89677FC7E21";
shapes = (
{
closed = 1;
nodes = (
(377,496,o),
(409,401,o),
(400,315,cs),
(389,209,o),
(301,99,o),
(202,59,cs),
(165,44,o),
(100,47,o),
(100,98,cs),
(100,132,o),
(135,189,o),
(209,177,cs),
(220,175,o),
(230,173,o),
(239,171,cs),
(372,142,o),
(396,85,o),
(531,39,cs),
(694,-15,o),
(780,112,o),
(811,277,cs),
(835,399,o),
(808,551,o),
(744,658,cs),
(741,663,o),
(738,668,o),
(735,672,cs),
(727,683,o),
(712,687,o),
(700,679,cs),
(689,672,o),
(686,656,o),
(693,644,cs),
(696,640,o),
(699,635,o),
(702,630,cs),
(758,533,o),
(782,397,o),
(761,287,cs),
(730,124,o),
(660,49,o),
(547,87,cs),
(424,128,o),
(389,190,o),
(249,221,cs),
(239,223,o),
(228,225,o),
(217,227,cs),
(118,244,o),
(62,173,o),
(52,116,cs),
(51,110,o),
(50,104,o),
(50,98,cs),
(50,66,o),
(82,-23,o),
(196,5,cs),
(299,31,o),
(422,153,o),
(446,277,cs),
(448,285,o),
(449,293,o),
(450,302,cs),
(463,420,o),
(412,568,o),
(340,604,cs),
(280,634,o),
(165,628,o),
(165,536,cs),
(165,522,o),
(176,511,o),
(190,511,cs),
(204,511,o),
(215,522,o),
(215,536,cs),
(215,588,o),
(312,576,o),
(342,539,cs)
);
}
);
width = 870;
}
);
unicode = 3222;
},
{
color = (255, 255, 153, 255);
glyphname = kn_g;
layers = (
{
layerId = "22F7FBB9-6A27-4F4A-9FDC-2CC606CA4AF4";
shapes = (
{
closed = 1;
nodes = (
(161,230,o),
(224,511,o),
(356,511,cs),
(492,511,o),
(591,271,o),
(594,48,cs),
(594,22,o),
(617,-2,o),
(645,-1,cs),
(669,0,o),
(694,22,o),
(694,50,cs),
(695,369,o),
(532,611,o),
(356,611,cs),
(178,611,o),
(71,371,o),
(51,52,cs),
(49,24,o),
(72,-1,o),
(98,-1,cs),
(127,-1,o),
(150,19,o),
(151,46,cs)
);
},
{
closed = 1;
nodes = (
(349,509,o),
(517,525,o),
(694,593,cs),
(720,603,o),
(733,632,o),
(723,658,cs),
(713,684,o),
(684,697,o),
(658,687,cs),
(491,623,o),
(361,609,o),
(169,653,cs),
(142,659,o),
(115,641,o),
(109,615,cs),
(103,589,o),
(121,561,o),
(147,555,cs)
);
}
);
width = 777;
},
{
layerId = "625C7B41-5CAD-42BA-9A13-A89677FC7E21";
shapes = (
{
closed = 1;
nodes = (
(100,272,o),
(206,561,o),
(338,561,cs),
(474,561,o),
(635,268,o),
(609,27,cs),
(608,13,o),
(618,0,o),
(631,-1,cs),
(645,-2,o),
(658,8,o),
(659,21,cs),
(688,284,o),
(514,611,o),
(338,611,cs),
(160,611,o),
(50,283,o),
(50,24,cs),
(50,10,o),
(61,-1,o),
(75,-1,cs),
(89,-1,o),
(100,10,o),
(100,24,cs)
);
},
{
closed = 1;
nodes = (
(329,559,o),
(525,574,o),
(702,642,cs),
(715,647,o),
(721,661,o),
(716,674,cs),
(711,687,o),
(697,693,o),
(684,688,cs),
(517,624,o),
(331,609,o),
(139,653,cs),
(125,656,o),
(112,648,o),
(109,635,cs),
(106,621,o),
(114,608,o),
(127,605,cs)
);
}
);
width = 768;
}
);
unicode = 3223;
},
{
color = (255, 255, 153, 255);
glyphname = kn_gh;
layers = (
{
layerId = "22F7FBB9-6A27-4F4A-9FDC-2CC606CA4AF4";
shapes = (
{
closed = 1;
nodes = (
(190,406,o),
(40,313,o),
(51,167,cs),
(58,73,o),
(112,4,o),
(249,2,cs),
(384,0,o),
(452,53,o),
(481,95,c),
(518,53,o),
(590,-10,o),
(705,0,cs),
(933,20,o),
(884,325,o),
(784,425,cs),
(653,556,o),
(524,308,o),
(814,308,cs),
(990,308,o),
(1007,432,o),
(971,506,cs),
(959,531,o),
(929,541,o),
(902,528,cs),
(874,515,o),
(873,489,o),
(881,461,cs),
(888,437,o),
(904,408,o),
(814,408,cs),
(750,408,o),
(735,419,o),
(732,422,c),
(703,363,l),
(704,364,o),
(700,370,o),
(714,355,cs),
(744,323,o),
(826,116,o),
(698,101,cs),
(576,87,o),
(526,204,o),
(520,227,cs),
(506,280,o),
(430,274,o),
(422,220,cs),
(417,187,o),
(417,103,o),
(249,103,cs),
(172,103,o),
(149,127,o),
(149,181,cs),
(149,211,o),
(180,274,o),
(231,221,cs),
(252,200,o),
(287,197,o),
(308,218,cs),
(327,237,o),
(325,271,o),
(307,289,cs)
);
},
{
closed = 1;
nodes = (
(426,-10,o),
(428,-89,o),
(449,-127,cs),
(460,-147,o),
(492,-154,o),
(516,-141,cs),
(538,-129,o),
(548,-94,o),
(533,-72,cs),
(533,-72,o),
(525,-35,o),
(528,-22,cs),
(536,15,o),
(520,41,o),
(486,46,cs),
(463,49,o),
(437,29,o),
(435,15,c)
);
},
{
closed = 1;
nodes = (
(360,582,o),
(343,466,o),
(353,421,cs),
(367,359,o),
(422,317,o),
(480,320,cs),
(523,322,o),
(598,351,o),
(605,441,cs),
(617,582,o),
(385,633,o),
(278,633,cs),
(42,633,o),
(66,507,o),
(258,507,cs),
(315,507,o),
(809,525,o),
(916,591,cs),
(942,607,o),
(947,638,o),
(930,664,cs),
(916,685,o),
(888,688,o),
(862,676,cs),
(762,629,o),
(323,607,o),
(258,607,cs),
(198,607,o),
(186,611,o),
(184,612,c),
(184,527,l),
(184,527,o),
(196,533,o),
(278,533,cs),
(354,533,o),
(505,502,o),
(505,441,cs),
(505,430,o),
(491,420,o),
(476,420,cs),
(462,420,o),
(454,425,o),
(451,444,cs),
(449,458,o),
(453,482,o),
(481,482,cs),
(510,482,o),
(531,503,o),
(531,532,cs),
(531,559,o),
(508,582,o),
(481,582,cs)
);
}
);
width = 1037;
},
{
layerId = "625C7B41-5CAD-42BA-9A13-A89677FC7E21";
shapes = (
{
closed = 1;
nodes = (
(169,354,o),
(50,280,o),
(50,167,cs),
(50,83,o),
(118,1,o),
(248,2,cs),
(396,3,o),
(455,62,o),
(478,114,c),
(515,55,o),
(589,-10,o),
(704,0,cs),
(913,20,o),
(813,356,o),
(737,433,cs),
(640,529,o),
(546,358,o),
(784,358,cs),
(947,358,o),
(973,467,o),
(947,520,cs),
(941,532,o),
(927,538,o),
(914,531,cs),
(893,521,o),
(900,507,o),
(903,497,cs),
(910,473,o),
(904,408,o),
(784,408,cs),
(710,408,o),
(687,426,o),
(684,429,c),
(676,412,l),
(677,413,o),
(687,412,o),
(701,397,cs),
(755,343,o),
(846,64,o),
(700,50,cs),
(574,38,o),
(510,140,o),
(495,194,cs),
(488,221,o),
(449,218,o),
(446,191,cs),
(441,149,o),
(431,54,o),
(248,52,cs),
(144,51,o),
(100,113,o),
(100,167,cs),
(100,233,o),
(163,287,o),
(230,221,cs),
(240,211,o),
(256,212,o),
(266,221,cs),
(276,231,o),
(276,248,o),
(266,257,cs)
);
},
{
closed = 1;
nodes = (
(444,-29,o),
(451,-117,o),
(491,-141,cs),
(503,-148,o),
(519,-144,o),
(526,-132,cs),
(533,-120,o),
(529,-104,o),
(517,-97,cs),
(509,-93,o),
(492,-41,o),
(504,17,cs),
(507,30,o),
(499,43,o),
(485,46,cs),
(472,48,o),
(458,41,o),
(456,27,c)
);
},
{
closed = 1;
nodes = (
(368,577,o),
(347,487,o),
(357,442,cs),
(371,380,o),
(428,346,o),
(477,346,cs),
(520,346,o),
(592,367,o),
(599,445,cs),
(612,588,o),
(359,633,o),
(277,633,cs),
(82,633,o),
(94,557,o),
(257,557,cs),
(301,557,o),
(796,574,o),
(902,638,cs),
(914,645,o),
(918,660,o),
(910,672,cs),
(901,687,o),
(887,686,o),
(873,678,cs),
(776,625,o),
(322,607,o),
(257,607,cs),
(197,607,o),
(177,612,o),
(175,613,c),
(175,575,l),
(175,575,o),
(195,583,o),
(277,583,cs),
(353,583,o),
(557,540,o),
(549,449,cs),
(545,411,o),
(512,396,o),
(477,396,cs),
(448,396,o),
(413,418,o),
(405,452,cs),
(399,481,o),
(414,527,o),
(468,527,cs),
(482,527,o),
(493,538,o),
(493,552,cs),
(493,566,o),
(482,577,o),
(468,577,cs)
);
}
);
width = 1006;
}
);
unicode = 3224;
},
{
color = (255, 255, 153, 255);
glyphname = kn_ng;
layers = (
{
layerId = "22F7FBB9-6A27-4F4A-9FDC-2CC606CA4AF4";
shapes = (
{
closed = 1;
nodes = (
(151,529,o),
(204,545,o),
(202,460,cs),
(201,404,o),
(58,347,o),
(56,184,cs),
(55,147,o),
(51,-1,o),
(225,-1,cs),
(301,-1,o),
(355,53,o),
(384,92,c),
(411,53,o),
(471,-15,o),
(561,-15,cs),
(723,-15,o),
(755,161,o),
(714,246,cs),
(702,271,o),
(672,281,o),
(647,269,cs),
(622,257,o),
(612,227,o),
(624,202,cs),
(636,178,o),
(639,85,o),
(561,85,cs),
(498,85,o),
(449,170,o),
(432,212,cs),
(416,253,o),
(358,254,o),
(340,213,cs),
(321,170,o),
(276,99,o),
(225,99,cs),
(163,99,o),
(155,123,o),
(156,182,cs),
(158,309,o),
(299,339,o),
(302,458,cs),
(306,672,o),
(73,666,o),
(51,534,cs),
(46,507,o),
(64,481,o),
(92,477,c),
(119,472,o),
(145,490,o),
(149,518,cs)
);
},
{
closed = 1;
nodes = (
(630,678,o),
(393,776,o),
(213,508,cs),
(198,485,o),
(204,454,o),
(227,438,cs),
(250,423,o),
(281,429,o),
(297,452,cs),
(431,654,o),
(560,565,o),
(595,450,cs),
(603,423,o),
(631,408,o),
(657,416,cs),
(684,424,o),
(699,452,o),
(691,478,cs)
);
},
{
closed = 1;
nodes = (
(411,433,l),
(387,419,o),
(379,389,o),
(393,365,cs),
(407,341,o),
(437,333,o),
(461,347,cs),
(514,377,o),
(496,438,o),
(465,460,cs),
(442,476,o),
(411,470,o),
(395,448,cs),
(379,425,o),
(385,394,o),
(407,378,c)
);
}
);
width = 781;
},
{
layerId = "625C7B41-5CAD-42BA-9A13-A89677FC7E21";
shapes = (
{
closed = 1;
nodes = (
(117,587,o),
(212,601,o),
(212,482,cs),
(212,389,o),
(53,317,o),
(51,159,cs),
(50,73,o),
(94,0,o),
(210,0,cs),
(287,0,o),
(342,54,o),
(370,94,c),
(400,48,o),
(459,-14,o),
(546,-14,cs),
(686,-14,o),
(736,141,o),
(703,211,cs),
(697,223,o),
(682,229,o),
(669,223,cs),
(657,217,o),
(651,202,o),
(657,189,cs),
(676,151,o),
(648,36,o),
(546,36,cs),
(465,36,o),
(411,113,o),
(394,155,cs),
(386,176,o),
(357,176,o),
(348,156,cs),
(331,117,o),
(280,50,o),
(210,50,cs),
(121,50,o),
(100,101,o),
(101,159,cs),
(103,297,o),
(262,361,o),
(262,482,cs),
(262,664,o),
(77,654,o),
(60,553,cs),
(58,540,o),
(67,527,o),
(81,524,cs),
(94,522,o),
(107,531,o),
(110,545,cs)
);
},
{
closed = 1;
nodes = (
(598,676,o),
(387,770,o),
(219,519,c),
(212,507,o),
(215,492,o),
(226,484,c),
(238,477,o),
(253,480,o),
(261,491,cs),
(406,708,o),
(563,619,o),
(604,482,cs),
(608,469,o),
(622,461,o),
(635,465,cs),
(648,469,o),
(656,483,o),
(652,496,cs)
);
},
{
closed = 1;
nodes = (
(408,431,l),
(396,424,o),
(392,408,o),
(399,396,cs),
(406,384,o),
(422,380,o),
(434,387,cs),
(466,406,o),
(456,444,o),
(435,458,cs),
(424,466,o),
(408,464,o),
(401,452,c),
(393,441,o),
(395,425,o),
(407,418,c)
);
}
);
width = 763;
}
);
unicode = 3225;
},
{
color = (255, 255, 153, 255);
glyphname = kn_c;
layers = (
{
layerId = "22F7FBB9-6A27-4F4A-9FDC-2CC606CA4AF4";
shapes = (
{
closed = 1;
nodes = (
(247,559,o),
(264,492,o),
(245,461,cs),
(209,401,o),
(11,236,o),
(58,70,cs),
(102,-87,o),
(281,-7,o),
(373,70,c),
(414,31,o),
(467,-11,o),
(561,3,cs),
(778,36,o),
(819,393,o),
(737,612,c),
(701,609,o),
(658,605,o),
(635,605,c),
(708,414,o),
(684,126,o),
(549,103,cs),
(470,89,o),
(459,130,o),
(409,175,cs),
(390,192,o),
(358,191,o),
(341,174,cs),
(293,128,o),
(173,46,o),
(154,98,cs),
(122,186,o),
(288,345,o),
(328,405,cs),
(395,506,o),
(326,658,o),
(155,658,cs),
(126,658,o),
(105,638,o),
(105,609,cs),
(105,581,o),
(127,559,o),
(155,559,cs)
);
},
{
closed = 1;
nodes = (
(728,313,o),
(873,329,o),
(921,338,cs),
(951,344,o),
(966,366,o),
(962,395,cs),
(958,423,o),
(932,441,o),
(905,436,cs),
(859,428,o),
(726,412,o),
(555,412,cs),
(530,412,o),
(505,394,o),
(505,363,cs),
(505,336,o),
(525,313,o),
(555,313,cs)
);
},
{
closed = 1;
nodes = (
(728,556,o),
(853,585,o),
(917,606,cs),
(943,615,o),
(958,639,o),
(951,668,cs),
(945,695,o),
(916,709,o),
(889,702,cs),
(848,691,o),
(743,658,o),
(555,656,cs),
(523,656,o),
(499,627,o),
(506,596,cs),
(513,569,o),
(530,556,o),
(555,556,cs)
);
}
);
width = 1013;
},
{
layerId = "625C7B41-5CAD-42BA-9A13-A89677FC7E21";
shapes = (
{
closed = 1;
nodes = (
(263,608,o),
(296,521,o),
(263,471,cs),
(214,399,o),
(0,186,o),
(62,50,cs),
(126,-89,o),
(307,16,o),
(371,70,c),
(412,31,o),
(451,-10,o),
(556,4,cs),
(753,29,o),
(800,418,o),
(706,649,c),
(682,640,o),
(682,639,o),
(660,633,c),
(736,432,o),
(699,73,o),
(550,54,cs),
(457,41,o),
(439,78,o),
(389,123,cs),
(379,131,o),
(364,131,o),
(355,122,cs),
(307,76,o),
(151,-23,o),
(108,70,cs),
(61,173,o),
(265,383,o),
(305,443,cs),
(361,525,o),
(304,658,o),
(153,658,cs),
(139,658,o),
(128,647,o),
(128,633,cs),
(128,619,o),
(139,608,o),
(153,608,cs)
);
},
{
closed = 1;
nodes = (
(726,362,o),
(857,394,o),
(905,403,cs),
(919,406,o),
(928,419,o),
(926,432,cs),
(923,446,o),
(910,455,o),
(897,453,cs),
(851,445,o),
(724,412,o),
(553,412,cs),
(539,412,o),
(528,401,o),
(528,387,cs),
(528,373,o),
(539,362,o),
(553,362,cs)
);
},
{
closed = 1;
nodes = (
(726,614,o),
(857,646,o),
(905,655,cs),
(919,658,o),
(928,671,o),
(926,684,cs),
(923,698,o),
(910,707,o),
(897,705,cs),
(851,697,o),
(724,664,o),
(553,664,cs),
(539,664,o),
(528,653,o),
(528,639,cs),
(528,625,o),
(539,614,o),
(553,614,cs)
);
}
);
width = 977;
}
);
unicode = 3226;
},
{
color = (255, 255, 153, 255);
glyphname = kn_ch;
layers = (
{
layerId = "22F7FBB9-6A27-4F4A-9FDC-2CC606CA4AF4";
shapes = (
{
closed = 1;
nodes = (
(465,-35,o),
(458,-83,o),
(484,-131,cs),
(497,-155,o),
(528,-164,o),
(552,-151,cs),
(576,-138,o),
(585,-107,o),
(572,-83,cs),
(562,-65,o),
(565,-41,o),
(569,-11,cs),
(572,17,o),
(552,42,o),
(525,45,cs),
(497,49,o),
(473,28,o),
(469,1,c)
);
},
{
closed = 1;
nodes = (
(355,475,o),
(332,617,o),
(221,617,cs),
(161,617,o),
(57,550,o),
(51,339,cs),
(44,106,o),
(186,-5,o),
(324,-5,cs),
(418,-5,o),
(480,40,o),
(518,96,c),
(584,13,o),
(669,-5,o),
(740,-5,cs),
(1003,-5,o),
(951,542,o),
(786,596,c),
(782,598,o),
(778,599,o),
(774,599,c),
(593,613,ls),
(527,618,o),
(519,518,o),
(586,513,cs),
(690,506,o),
(814,492,o),
(1025,600,cs),
(1049,612,o),
(1060,643,o),
(1047,668,cs),
(1035,692,o),
(1004,702,o),
(979,690,cs),
(792,595,o),
(690,606,o),
(592,613,cs),
(526,617,o),
(519,518,o),
(585,513,cs),
(757,500,l),
(829,459,o),
(865,95,o),
(740,95,cs),
(635,95,o),
(599,146,o),
(554,222,cs),
(532,259,o),
(476,252,o),
(463,211,cs),
(431,111,o),
(371,95,o),
(324,95,cs),
(240,95,o),
(146,162,o),
(151,337,cs),
(154,429,o),
(178,474,o),
(192,493,c),
(194,495,o),
(195,497,o),
(196,498,c),
(195,495,o),
(193,483,o),
(198,469,cs),
(208,444,o),
(237,430,o),
(263,440,cs)
);
}
);
width = 1103;
},
{
layerId = "625C7B41-5CAD-42BA-9A13-A89677FC7E21";
shapes = (
{
closed = 1;
nodes = (
(482,-32,o),
(489,-122,o),
(530,-147,cs),
(542,-154,o),
(557,-151,o),
(564,-139,cs),
(572,-127,o),
(568,-112,o),
(556,-105,cs),
(547,-99,o),
(530,-44,o),
(542,15,cs),
(545,28,o),
(537,41,o),
(523,44,cs),
(510,46,o),
(496,39,o),
(494,25,c)
);
},
{
closed = 1;
nodes = (
(305,510,o),
(295,615,o),
(209,615,cs),
(140,615,o),
(50,536,o),
(50,313,cs),
(50,95,o),
(198,-5,o),
(323,-5,cs),
(435,-5,o),
(490,62,o),
(515,113,c),
(561,44,o),
(623,-5,o),
(739,-5,cs),
(1005,-5,o),
(955,540,o),
(777,599,c),
(775,599,o),
(773,600,o),
(771,600,c),
(590,614,ls),
(557,616,o),
(553,566,o),
(586,564,cs),
(689,557,o),
(807,539,o),
(1023,656,cs),
(1035,663,o),
(1040,678,o),
(1033,690,cs),
(1026,702,o),
(1011,707,o),
(999,700,cs),
(795,589,o),
(689,607,o),
(590,614,cs),
(557,616,o),
(553,567,o),
(586,564,cs),
(764,550,l),
(889,509,o),
(941,45,o),
(739,45,cs),
(619,45,o),
(577,104,o),
(531,180,cs),
(520,198,o),
(493,195,o),
(486,175,cs),
(451,65,o),
(379,45,o),
(323,45,cs),
(226,45,o),
(100,123,o),
(100,313,cs),
(100,499,o),
(166,565,o),
(209,565,cs),
(237,565,o),
(239,538,o),
(224,533,cs),
(211,528,o),
(205,514,o),
(210,501,cs),
(214,488,o),
(229,482,o),
(242,487,cs)
);
}
);
width = 1087;
}
);
unicode = 3227;
},
{
color = (255, 255, 153, 255);
glyphname = kn_j;
layers = (
{
layerId = "22F7FBB9-6A27-4F4A-9FDC-2CC606CA4AF4";
shapes = (
{
closed = 1;
nodes = (
(350,312,o),
(626,338,o),
(619,639,cs),
(618,667,o),
(596,689,o),
(568,688,cs),
(540,687,o),
(518,665,o),
(519,637,cs),
(524,421,o),
(350,449,o),
(294,502,cs),
(274,521,o),
(243,520,o),
(224,500,cs),
(205,480,o),
(206,449,o),
(226,430,cs)
);
},
{
closed = 1;
nodes = (
(151,529,o),
(204,545,o),
(202,460,cs),
(201,404,o),
(58,347,o),
(56,184,cs),
(55,147,o),
(51,-1,o),
(225,-1,cs),
(301,-1,o),
(355,53,o),
(384,92,c),
(411,53,o),
(471,-15,o),
(561,-15,cs),
(723,-15,o),
(755,161,o),
(714,246,cs),
(702,271,o),
(672,281,o),
(647,269,cs),
(622,257,o),
(612,227,o),
(624,202,cs),
(636,178,o),
(639,85,o),
(561,85,cs),
(498,85,o),
(449,170,o),
(432,212,cs),
(416,253,o),
(358,254,o),
(340,213,cs),
(321,170,o),
(276,99,o),
(225,99,cs),
(163,99,o),
(155,123,o),
(156,182,cs),
(158,309,o),
(299,339,o),
(302,458,cs),
(306,672,o),
(73,666,o),
(51,534,cs),
(46,507,o),
(64,481,o),
(92,477,c),
(119,472,o),
(145,490,o),
(149,518,cs)
);
}
);
width = 781;
},
{
layerId = "625C7B41-5CAD-42BA-9A13-A89677FC7E21";
shapes = (
{
closed = 1;
nodes = (
(337,344,o),
(634,381,o),
(579,668,cs),
(577,681,o),
(563,691,o),
(549,688,cs),
(536,686,o),
(526,672,o),
(529,658,cs),
(574,420,o),
(337,414,o),
(262,484,cs),
(252,494,o),
(236,493,o),
(227,483,cs),
(217,473,o),
(218,457,o),
(228,448,cs)
);
},
{
closed = 1;
nodes = (
(117,587,o),
(212,601,o),
(212,482,cs),
(212,389,o),
(53,317,o),
(51,159,cs),
(50,73,o),
(94,0,o),
(210,0,cs),
(287,0,o),
(342,54,o),
(370,94,c),
(400,48,o),
(459,-14,o),
(546,-14,cs),
(686,-14,o),
(736,141,o),
(703,211,cs),
(697,223,o),
(682,229,o),
(669,223,cs),
(657,217,o),
(651,202,o),
(657,189,cs),
(676,151,o),
(648,36,o),
(546,36,cs),
(465,36,o),
(411,113,o),
(394,155,cs),
(386,176,o),
(357,176,o),
(348,156,cs),
(331,117,o),
(280,50,o),
(210,50,cs),
(121,50,o),
(100,101,o),
(101,159,cs),
(103,297,o),
(262,361,o),
(262,482,cs),
(262,664,o),
(77,654,o),
(60,553,cs),
(58,540,o),
(67,527,o),
(81,524,cs),
(94,522,o),
(107,531,o),
(110,545,cs)
);
}
);
width = 763;
}
);
unicode = 3228;
},
{
color = (255, 255, 153, 255);
glyphname = kn_jh;
layers = (
{
layerId = "22F7FBB9-6A27-4F4A-9FDC-2CC606CA4AF4";
shapes = (
{
closed = 1;
nodes = (
(851,-52,o),
(860,-103,o),
(884,-146,cs),
(898,-170,o),
(928,-179,o),
(953,-165,cs),
(977,-152,o),
(986,-121,o),
(972,-96,cs),
(961,-76,o),
(953,-49,o),
(960,-8,cs),
(965,20,o),
(947,45,o),
(920,50,cs),
(892,55,o),
(867,37,o),
(862,10,cs)
);
},
{
closed = 1;
nodes = (
(497,-9,o),
(999,-269,o),
(976,602,cs),
(975,630,o),
(952,652,o),
(925,651,cs),
(897,650,o),
(875,627,o),
(876,600,cs),
(895,-128,o),
(585,116,o),
(573,244,cs),
(570,271,o),
(546,292,o),
(518,289,cs),
(491,287,o),
(471,262,o),
(473,234,c)
);
},
{
closed = 1;
nodes = (
(877,-11,o),
(1379,-270,o),
(1355,602,cs),
(1354,630,o),
(1331,652,o),
(1304,651,cs),
(1276,650,o),
(1254,627,o),
(1255,600,cs),
(1275,-129,o),
(965,114,o),
(952,244,cs),
(949,272,o),
(925,292,o),
(897,289,cs),
(869,286,o),
(849,262,o),
(852,234,cs)
);
},
{
closed = 1;
nodes = (
(417,524,o),
(502,318,o),
(458,182,cs),
(425,78,o),
(211,20,o),
(161,225,cs),
(115,407,o),
(249,524,o),
(277,524,cs)
);
},
{
closed = 1;
nodes = (
(178,624,o),
(3,443,o),
(63,201,cs),
(139,-104,o),
(491,-46,o),
(554,152,cs),
(616,346,o),
(494,624,o),
(277,624,cs)
);
},
{
closed = 1;
nodes = (
(216,506,o),
(435,537,o),
(595,619,cs),
(619,631,o),
(630,662,o),
(617,687,cs),
(605,711,o),
(574,722,o),
(549,709,cs),
(399,633,o),
(212,614,o),
(158,635,cs),
(132,645,o),
(103,632,o),
(93,606,cs),
(83,580,o),
(96,551,o),
(122,541,cs)
);
}
);
width = 1406;
},
{
layerId = "625C7B41-5CAD-42BA-9A13-A89677FC7E21";
shapes = (
{
closed = 1;
nodes = (
(900,-34,o),
(906,-126,o),
(949,-151,cs),
(961,-158,o),
(976,-153,o),
(983,-141,cs),
(990,-129,o),
(985,-114,o),
(973,-107,cs),
(964,-102,o),
(947,-46,o),
(959,14,cs),
(962,28,o),
(954,41,o),
(940,43,cs),
(926,46,o),
(914,38,o),
(911,24,cs)
);
},
{
closed = 1;
nodes = (
(542,-16,o),
(973,-270,o),
(970,602,cs),
(970,616,o),
(958,626,o),
(944,626,cs),
(930,626,o),
(920,614,o),
(920,600,cs),
(920,-199,o),
(586,47,o),
(567,241,cs),
(566,255,o),
(553,265,o),
(540,264,cs),
(526,263,o),
(516,250,o),
(517,237,cs)
);
},
{
closed = 1;
nodes = (
(922,-16,o),
(1373,-270,o),
(1349,602,cs),
(1349,616,o),
(1337,626,o),
(1323,626,cs),
(1309,626,o),
(1299,614,o),
(1299,600,cs),
(1321,-200,o),
(967,47,o),
(946,242,cs),
(945,255,o),
(932,266,o),
(918,264,cs),
(905,263,o),
(895,250,o),
(896,236,cs)
);
},
{
closed = 1;
nodes = (
(460,575,o),
(562,295,o),
(498,149,cs),
(443,25,o),
(191,-35,o),
(117,193,cs),
(44,417,o),
(232,575,o),
(276,575,cs)
);
},
{
closed = 1;
nodes = (
(194,625,o),
(-13,431,o),
(69,177,cs),
(158,-95,o),
(471,-36,o),
(544,129,cs),
(621,305,o),
(500,625,o),
(276,625,cs)
);
},
{
closed = 1;
nodes = (
(214,560,o),
(425,589,o),
(582,669,cs),
(595,676,o),
(599,690,o),
(593,702,cs),
(586,715,o),
(572,719,o),
(560,713,cs),
(407,635,o),
(212,614,o),
(148,638,cs),
(135,643,o),
(121,637,o),
(116,624,cs),
(111,611,o),
(117,597,o),
(130,592,cs)
);
}
);
width = 1400;
}
);
unicode = 3229;
},
{
color = (255, 255, 153, 255);
glyphname = kn_ny;
layers = (
{
layerId = "22F7FBB9-6A27-4F4A-9FDC-2CC606CA4AF4";
shapes = (
{
closed = 1;
nodes = (
(721,569,o),
(879,549,o),
(913,430,cs),
(921,404,o),
(948,388,o),
(975,396,cs),
(1001,404,o),
(1017,431,o),
(1009,458,cs),
(947,673,o),
(659,689,o),
(583,482,cs),
(574,456,o),
(587,428,o),
(613,418,cs),
(639,409,o),
(667,422,o),
(677,448,cs)
);
},
{
closed = 1;
nodes = (
(130,421,o),
(152,475,o),
(171,491,cs),
(209,524,o),
(296,448,o),
(305,397,cs),
(315,342,o),
(398,346,o),
(402,401,cs),
(408,483,o),
(449,520,o),
(499,520,cs),
(570,520,o),
(590,375,o),
(579,319,cs),
(565,246,o),
(544,130,o),
(452,100,cs),
(387,79,o),
(364,115,o),
(370,126,cs),
(380,143,o),
(429,133,o),
(488,95,cs),
(575,39,o),
(653,-105,o),
(864,-107,cs),
(886,-107,o),
(909,-85,o),
(909,-61,cs),
(909,-29,o),
(888,-7,o),
(861,-7,cs),
(688,-7,o),
(652,121,o),
(524,191,cs),
(415,250,o),
(318,250,o),
(280,170,cs),
(230,64,o),
(354,-59,o),
(510,16,cs),
(639,78,o),
(667,225,o),
(679,313,cs),
(692,412,o),
(662,618,o),
(500,620,cs),
(414,621,o),
(355,568,o),
(339,530,c),
(313,565,o),
(207,631,o),
(123,579,cs),
(15,512,o),
(35,361,o),
(139,316,cs),
(170,303,o),
(200,303,o),
(218,333,cs),
(232,357,o),
(219,395,o),
(196,402,cs)
);
}
);
width = 1062;
},
{
layerId = "625C7B41-5CAD-42BA-9A13-A89677FC7E21";
shapes = (
{
closed = 1;
nodes = (
(716,623,o),
(906,604,o),
(947,461,cs),
(951,448,o),
(965,440,o),
(978,444,cs),
(991,448,o),
(999,462,o),
(995,475,cs),
(940,666,o),
(684,683,o),
(617,498,cs),
(612,485,o),
(618,470,o),
(631,466,cs),
(644,461,o),
(659,467,o),
(663,480,c)
);
},
{
closed = 1;
nodes = (
(86,395,o),
(79,487,o),
(149,536,cs),
(219,585,o),
(316,489,o),
(326,405,cs),
(330,375,o),
(374,376,o),
(376,406,cs),
(382,488,o),
(384,569,o),
(497,569,cs),
(617,569,o),
(638,395,o),
(627,319,cs),
(616,240,o),
(589,113,o),
(486,64,cs),
(390,19,o),
(321,89,o),
(341,133,cs),
(363,182,o),
(447,174,o),
(514,123,cs),
(620,42,o),
(651,-108,o),
(867,-107,cs),
(881,-107,o),
(892,-96,o),
(892,-82,cs),
(892,-68,o),
(881,-57,o),
(867,-57,cs),
(677,-58,o),
(662,72,o),
(544,163,cs),
(450,235,o),
(332,234,o),
(295,153,cs),
(255,66,o),
(370,-48,o),
(508,18,cs),
(637,80,o),
(666,235,o),
(677,313,cs),
(690,412,o),
(659,619,o),
(497,619,cs),
(393,619,o),
(353,562,o),
(339,507,c),
(294,575,o),
(201,633,o),
(121,578,cs),
(17,505,o),
(32,363,o),
(137,319,cs),
(150,314,o),
(165,320,o),
(170,332,cs),
(175,345,o),
(169,360,o),
(157,365,cs)
);
}
);
width = 1047;
}
);
unicode = 3230;
},
{
color = (255, 255, 153, 255);
glyphname = kn_tt;
layers = (
{
layerId = "22F7FBB9-6A27-4F4A-9FDC-2CC606CA4AF4";
shapes = (
{
closed = 1;
nodes = (
(32,521,o),
(67,406,o),
(133,343,c),
(94,298,o),
(50,211,o),
(50,136,cs),
(50,-31,o),
(236,-42,o),
(375,54,c),
(431,18,o),
(489,-5,o),
(557,-6,cs),
(738,-7,o),
(720,214,o),
(650,308,cs),
(623,344,o),
(594,368,o),
(579,379,c),
(652,449,o),
(678,541,o),
(623,623,cs),
(607,646,o),
(576,652,o),
(553,637,cs),
(529,621,o),
(523,590,o),
(539,567,cs),
(577,510,o),
(501,430,o),
(469,423,cs),
(418,411,o),
(417,339,o),
(468,325,cs),
(499,317,o),
(541,287,o),
(569,248,cs),
(593,216,o),
(629,94,o),
(558,95,cs),
(507,95,o),
(460,116,o),
(402,158,cs),
(382,172,o),
(356,170,o),
(338,154,cs),
(301,120,o),
(151,48,o),
(151,136,cs),
(151,202,o),
(212,291,o),
(234,300,cs),
(279,317,o),
(278,380,o),
(233,395,cs),
(188,410,o),
(141,487,o),
(195,541,cs),
(215,561,o),
(216,592,o),
(196,612,cs),
(176,632,o),
(144,632,o),
(124,613,cs)
);
}
);
width = 750;
},
{
layerId = "625C7B41-5CAD-42BA-9A13-A89677FC7E21";
shapes = (
{
closed = 1;
nodes = (
(19,522,o),
(88,393,o),
(146,345,c),
(100,296,o),
(50,183,o),
(50,109,cs),
(50,-58,o),
(270,-17,o),
(367,58,c),
(427,19,o),
(491,-7,o),
(559,-7,cs),
(725,-7,o),
(710,196,o),
(648,294,cs),
(617,344,o),
(570,370,o),
(553,379,c),
(605,424,o),
(686,533,o),
(619,633,cs),
(611,645,o),
(596,648,o),
(584,640,cs),
(572,633,o),
(569,617,o),
(577,605,cs),
(634,519,o),
(521,405,o),
(492,398,cs),
(466,392,o),
(466,356,o),
(491,349,cs),
(532,338,o),
(579,308,o),
(605,267,cs),
(642,209,o),
(678,44,o),
(559,44,cs),
(500,44,o),
(440,68,o),
(380,111,cs),
(370,118,o),
(357,117,o),
(348,109,cs),
(283,49,o),
(100,-4,o),
(100,109,cs),
(100,186,o),
(167,311,o),
(200,323,cs),
(223,332,o),
(222,363,o),
(199,371,cs),
(153,386,o),
(74,506,o),
(152,583,cs),
(162,593,o),
(163,609,o),
(153,619,cs),
(143,629,o),
(127,629,o),
(117,619,cs)
);
}
);
width = 742;
}
);
unicode = 3231;
},
{
color = (255, 255, 153, 255);
glyphname = kn_tth;
layers = (
{
layerId = "22F7FBB9-6A27-4F4A-9FDC-2CC606CA4AF4";
shapes = (
{
closed = 1;
nodes = (
(417,524,o),
(502,318,o),
(458,182,cs),
(425,78,o),
(211,20,o),
(161,225,cs),
(115,407,o),
(249,524,o),
(277,524,cs)
);
},
{
closed = 1;
nodes = (
(178,624,o),
(3,443,o),
(63,201,cs),
(139,-104,o),
(491,-46,o),
(554,152,cs),
(616,346,o),
(494,624,o),
(277,624,cs)
);
},
{
closed = 1;
nodes = (
(216,506,o),
(435,537,o),
(595,619,cs),
(619,631,o),
(630,662,o),
(617,687,cs),
(605,711,o),
(574,722,o),
(549,709,cs),
(399,633,o),
(212,614,o),
(158,635,cs),
(132,645,o),
(103,632,o),
(93,606,cs),
(83,580,o),
(96,551,o),
(122,541,cs)
);
},
{
closed = 1;
nodes = (
(283,318,l),
(265,318,o),
(259,294,o),
(266,274,cs),
(270,261,o),
(285,247,o),
(299,245,cs),
(394,228,o),
(383,395,o),
(297,368,cs),
(284,364,o),
(268,350,o),
(265,337,cs),
(260,316,o),
(264,298,o),
(285,298,c)
);
}
);
width = 673;
},
{
layerId = "625C7B41-5CAD-42BA-9A13-A89677FC7E21";
shapes = (
{
closed = 1;
nodes = (
(460,575,o),
(562,295,o),
(498,149,cs),
(443,25,o),
(191,-35,o),
(117,193,cs),
(44,417,o),
(232,575,o),
(276,575,cs)
);
},
{
closed = 1;
nodes = (
(194,625,o),
(-13,431,o),
(69,177,cs),
(158,-95,o),
(471,-36,o),
(544,129,cs),
(621,305,o),
(500,625,o),
(276,625,cs)
);
},
{
closed = 1;
nodes = (
(214,560,o),
(425,589,o),
(582,669,cs),
(595,676,o),
(599,690,o),
(593,702,cs),
(586,715,o),
(572,719,o),
(560,713,cs),
(407,635,o),
(212,614,o),
(148,638,cs),
(135,643,o),
(121,637,o),
(116,624,cs),
(111,611,o),
(117,597,o),
(130,592,cs)
);
},
{
closed = 1;
nodes = (
(300,313,l),
(288,306,o),
(283,291,o),
(290,279,cs),
(297,267,o),
(312,262,o),
(324,269,cs),
(352,284,o),
(353,322,o),
(327,341,cs),
(316,349,o),
(300,347,o),
(292,336,cs),
(284,325,o),
(286,309,o),
(297,301,c)
);
}
);
width = 646;
}
);
unicode = 3232;
},
{
color = (255, 255, 153, 255);
glyphname = kn_dd;
layers = (
{
layerId = "22F7FBB9-6A27-4F4A-9FDC-2CC606CA4AF4";
shapes = (
{
closed = 1;
nodes = (
(137,558,o),
(50,384,o),
(50,218,cs),
(50,52,o),
(167,-2,o),
(237,-6,cs),
(338,-11,o),
(396,22,o),
(429,61,c),
(461,28,o),
(519,-10,o),
(612,-6,cs),
(709,-2,o),
(800,108,o),
(800,244,cs),
(800,450,o),
(448,531,o),
(448,348,cs),
(448,180,o),
(730,291,o),
(667,446,cs),
(619,568,o),
(466,637,o),
(301,637,cs),
(172,637,o),
(91,650,o),
(91,578,cs),
(91,516,o),
(155,516,o),
(277,516,cs),
(358,516,o),
(683,508,o),
(826,615,cs),
(848,631,o),
(853,663,o),
(836,685,cs),
(820,707,o),
(789,711,o),
(766,695,cs),
(644,609,o),
(313,616,o),
(277,616,cs),
(263,616,o),
(182,615,o),
(163,620,c),
(162,536,l),
(178,540,o),
(251,537,o),
(301,537,cs),
(436,537,o),
(546,482,o),
(575,408,cs),
(582,390,o),
(544,363,o),
(530,363,c),
(546,346,l),
(568,364,o),
(700,326,o),
(700,244,cs),
(700,148,o),
(638,95,o),
(608,94,cs),
(513,90,o),
(487,148,o),
(463,176,cs),
(443,200,o),
(406,200,o),
(386,175,cs),
(360,142,o),
(356,88,o),
(243,94,cs),
(221,95,o),
(150,110,o),
(150,218,cs),
(150,342,o),
(210,474,o),
(369,520,cs),
(395,527,o),
(411,555,o),
(403,582,cs),
(395,608,o),
(368,624,o),
(341,616,cs)
);
}
);
width = 897;
},
{
layerId = "625C7B41-5CAD-42BA-9A13-A89677FC7E21";
shapes = (
{
closed = 1;
nodes = (
(120,540,o),
(50,381,o),
(50,218,cs),
(50,56,o),
(162,-3,o),
(238,-7,cs),
(351,-13,o),
(400,33,o),
(426,74,c),
(459,33,o),
(513,-11,o),
(610,-7,cs),
(710,-2,o),
(798,110,o),
(798,244,cs),
(798,420,o),
(484,492,o),
(484,348,cs),
(484,219,o),
(703,343,o),
(656,461,cs),
(608,580,o),
(443,637,o),
(300,637,cs),
(176,637,o),
(115,646,o),
(115,603,cs),
(115,568,o),
(157,566,o),
(276,566,cs),
(351,566,o),
(697,558,o),
(834,660,cs),
(845,668,o),
(847,684,o),
(839,695,cs),
(831,706,o),
(815,708,o),
(804,700,cs),
(673,611,o),
(323,616,o),
(276,616,cs),
(259,616,o),
(172,615,o),
(154,622,c),
(154,585,l),
(168,590,o),
(248,587,o),
(300,587,cs),
(435,587,o),
(574,534,o),
(610,443,cs),
(627,400,o),
(560,342,o),
(534,343,c),
(534,344,o),
(534,346,o),
(534,348,cs),
(534,410,o),
(748,362,o),
(748,244,cs),
(748,131,o),
(675,46,o),
(608,43,cs),
(499,39,o),
(466,107,o),
(443,134,cs),
(433,146,o),
(414,146,o),
(404,134,cs),
(382,105,o),
(370,36,o),
(240,43,cs),
(194,45,o),
(100,80,o),
(100,218,cs),
(100,361,o),
(157,502,o),
(351,572,cs),
(364,577,o),
(370,591,o),
(365,604,cs),
(361,617,o),
(346,623,o),
(333,618,cs)
);
}
);
width = 894;
}
);
unicode = 3233;
},
{
color = (255, 255, 153, 255);
glyphname = kn_ddh;
layers = (
{
layerId = "22F7FBB9-6A27-4F4A-9FDC-2CC606CA4AF4";
shapes = (
{
closed = 1;
nodes = (
(137,558,o),
(50,384,o),
(50,218,cs),
(50,52,o),
(167,-2,o),
(237,-6,cs),
(338,-11,o),
(396,22,o),
(429,61,c),
(461,28,o),
(519,-10,o),
(612,-6,cs),
(709,-2,o),
(800,108,o),
(800,244,cs),
(800,450,o),
(448,531,o),
(448,348,cs),
(448,180,o),
(730,291,o),
(667,446,cs),
(619,568,o),
(466,637,o),
(301,637,cs),
(172,637,o),
(91,650,o),
(91,578,cs),
(91,516,o),
(155,516,o),
(277,516,cs),
(358,516,o),
(683,508,o),
(826,615,cs),
(848,631,o),
(853,663,o),
(836,685,cs),
(820,707,o),
(789,711,o),
(766,695,cs),
(644,609,o),
(313,616,o),
(277,616,cs),
(263,616,o),
(182,615,o),
(163,620,c),
(162,536,l),
(178,540,o),
(251,537,o),
(301,537,cs),
(436,537,o),
(546,482,o),
(575,408,cs),
(582,390,o),
(544,363,o),
(530,363,c),
(546,346,l),
(568,364,o),
(700,326,o),
(700,244,cs),
(700,148,o),
(638,95,o),
(608,94,cs),
(513,90,o),
(487,148,o),
(463,176,cs),
(443,200,o),
(406,200,o),
(386,175,cs),
(360,142,o),
(356,88,o),
(243,94,cs),
(221,95,o),
(150,110,o),
(150,218,cs),
(150,342,o),
(210,474,o),
(369,520,cs),
(395,527,o),
(411,555,o),
(403,582,cs),
(395,608,o),
(368,624,o),
(341,616,cs)
);
},
{
closed = 1;
nodes = (
(373,-65,o),
(366,-113,o),
(392,-161,cs),
(405,-185,o),
(436,-194,o),
(460,-181,cs),
(484,-168,o),
(493,-137,o),
(480,-113,cs),
(470,-95,o),
(473,-71,o),
(477,-41,cs),
(480,-13,o),
(460,12,o),
(433,15,cs),
(405,19,o),
(381,-2,o),
(377,-29,c)
);
}
);
width = 897;
},
{
layerId = "625C7B41-5CAD-42BA-9A13-A89677FC7E21";
shapes = (
{
closed = 1;
nodes = (
(120,540,o),
(50,381,o),
(50,218,cs),
(50,56,o),
(162,-3,o),
(238,-7,cs),
(351,-13,o),
(400,33,o),
(426,74,c),
(459,33,o),
(513,-11,o),
(610,-7,cs),
(710,-2,o),
(798,110,o),
(798,244,cs),
(798,420,o),
(484,492,o),
(484,348,cs),
(484,219,o),
(703,343,o),
(656,461,cs),
(608,580,o),
(443,637,o),
(300,637,cs),
(176,637,o),
(115,646,o),
(115,603,cs),
(115,568,o),
(157,566,o),
(276,566,cs),
(351,566,o),
(697,558,o),
(834,660,cs),
(845,668,o),
(847,684,o),
(839,695,cs),
(831,706,o),
(815,708,o),
(804,700,cs),
(673,611,o),
(323,616,o),
(276,616,cs),
(259,616,o),
(172,615,o),
(154,622,c),
(154,585,l),
(168,590,o),
(248,587,o),
(300,587,cs),
(435,587,o),
(574,534,o),
(610,443,cs),
(627,400,o),
(560,342,o),
(534,343,c),
(534,344,o),
(534,346,o),
(534,348,cs),
(534,410,o),
(748,362,o),
(748,244,cs),
(748,131,o),
(675,46,o),
(608,43,cs),
(499,39,o),
(466,107,o),
(443,134,cs),
(433,146,o),
(414,146,o),
(404,134,cs),
(382,105,o),
(370,36,o),
(240,43,cs),
(194,45,o),
(100,80,o),
(100,218,cs),
(100,361,o),
(157,502,o),
(351,572,cs),
(364,577,o),
(370,591,o),
(365,604,cs),
(361,617,o),
(346,623,o),
(333,618,cs)
);
},
{
closed = 1;
nodes = (
(391,-62,o),
(388,-142,o),
(429,-167,cs),
(441,-174,o),
(456,-171,o),
(463,-159,cs),
(471,-147,o),
(467,-132,o),
(455,-125,cs),
(446,-119,o),
(439,-74,o),
(451,-15,cs),
(454,-2,o),
(446,11,o),
(432,14,cs),
(419,16,o),
(405,9,o),
(403,-5,c)
);
}
);
width = 894;
}
);
unicode = 3234;
},
{
color = (255, 255, 153, 255);
glyphname = kn_nn;
layers = (
{
layerId = "22F7FBB9-6A27-4F4A-9FDC-2CC606CA4AF4";
shapes = (
{
closed = 1;
nodes = (
(167,146,o),
(206,226,o),
(272,260,cs),
(310,280,o),
(307,333,o),
(269,350,cs),
(249,359,o),
(130,411,o),
(154,477,cs),
(188,572,o),
(292,506,o),
(349,477,cs),
(364,469,o),
(382,469,o),
(397,478,cs),
(458,513,o),
(480,571,o),
(564,533,cs),
(650,495,o),
(669,158,o),
(539,92,cs),
(515,80,o),
(504,49,o),
(517,24,cs),
(529,0,o),
(560,-10,o),
(585,2,cs),
(784,103,o),
(773,549,o),
(604,625,cs),
(481,680,o),
(407,611,o),
(368,580,c),
(155,692,o),
(82,573,o),
(60,511,cs),
(24,411,o),
(95,336,o),
(158,296,c),
(93,227,o),
(60,103,o),
(176,8,cs),
(198,-10,o),
(230,-6,o),
(247,15,cs),
(265,37,o),
(261,68,o),
(240,86,cs)
);
}
);
width = 783;
},
{
layerId = "625C7B41-5CAD-42BA-9A13-A89677FC7E21";
shapes = (
{
closed = 1;
nodes = (
(95,131,o),
(161,249,o),
(216,278,cs),
(234,288,o),
(233,315,o),
(214,323,cs),
(150,350,o),
(69,417,o),
(113,506,cs),
(179,641,o),
(307,549,o),
(357,524,cs),
(364,520,o),
(373,520,o),
(380,524,cs),
(436,556,o),
(471,626,o),
(570,581,cs),
(712,518,o),
(726,134,o),
(547,44,cs),
(534,38,o),
(530,23,o),
(536,11,cs),
(543,-2,o),
(557,-6,o),
(569,0,cs),
(784,109,o),
(772,546,o),
(590,627,cs),
(470,682,o),
(407,604,o),
(367,575,c),
(330,596,o),
(155,705,o),
(69,528,cs),
(16,422,o),
(86,339,o),
(157,296,c),
(88,230,o),
(59,95,o),
(189,2,cs),
(201,-6,o),
(216,-4,o),
(224,7,cs),
(232,19,o),
(230,34,o),
(219,42,cs)
);
}
);
width = 779;
}
);
unicode = 3235;
},
{
color = (255, 255, 153, 255);
glyphname = kn_t;
layers = (
{
layerId = "22F7FBB9-6A27-4F4A-9FDC-2CC606CA4AF4";
shapes = (
{
closed = 1;
nodes = (
(107,47,o),
(317,-6,o),
(454,-6,cs),
(748,-6,o),
(776,210,o),
(732,326,cs),
(692,431,o),
(545,478,o),
(425,473,cs),
(238,464,o),
(231,370,o),
(253,320,cs),
(288,241,o),
(413,225,o),
(518,289,cs),
(700,401,o),
(557,643,o),
(338,643,cs),
(105,643,o),
(155,485,o),
(386,524,cs),
(499,543,o),
(732,584,o),
(786,611,cs),
(811,624,o),
(821,654,o),
(809,678,cs),
(796,703,o),
(766,713,o),
(742,701,c),
(713,688,o),
(574,657,o),
(370,622,cs),
(320,614,o),
(274,619,o),
(264,623,c),
(261,539,l),
(262,539,o),
(277,543,o),
(338,543,cs),
(443,543,o),
(561,433,o),
(466,375,cs),
(414,343,o),
(364,347,o),
(348,357,c),
(352,360,o),
(375,371,o),
(429,373,cs),
(528,377,o),
(620,337,o),
(638,290,cs),
(647,266,o),
(696,94,o),
(454,94,cs),
(346,94,o),
(187,132,o),
(149,267,cs),
(142,294,o),
(114,310,o),
(88,302,c),
(61,295,o),
(45,267,o),
(53,241,c)
);
}
);
width = 865;
},
{
layerId = "625C7B41-5CAD-42BA-9A13-A89677FC7E21";
shapes = (
{
closed = 1;
nodes = (
(103,59,o),
(299,-6,o),
(453,-6,cs),
(739,-6,o),
(759,204,o),
(741,288,cs),
(709,439,o),
(537,462,o),
(425,457,cs),
(271,450,o),
(255,384,o),
(275,339,cs),
(305,271,o),
(440,280,o),
(525,327,cs),
(695,420,o),
(537,644,o),
(340,644,cs),
(137,644,o),
(197,545,o),
(381,576,cs),
(504,597,o),
(740,632,o),
(795,662,cs),
(807,669,o),
(812,684,o),
(805,696,cs),
(798,708,o),
(783,712,o),
(771,706,cs),
(719,679,o),
(462,641,o),
(373,626,cs),
(316,616,o),
(264,622,o),
(255,626,c),
(254,588,l),
(255,589,o),
(271,594,o),
(340,594,cs),
(472,594,o),
(628,440,o),
(501,371,cs),
(427,330,o),
(332,334,o),
(321,359,cs),
(304,399,o),
(406,406,o),
(427,407,cs),
(543,412,o),
(670,385,o),
(693,278,cs),
(708,210,o),
(695,44,o),
(453,44,cs),
(305,44,o),
(141,107,o),
(100,252,cs),
(96,265,o),
(82,273,o),
(69,269,cs),
(56,265,o),
(48,251,o),
(52,238,cs)
);
}
);
width = 859;
}
);
unicode = 3236;
},
{
color = (255, 255, 153, 255);
glyphname = kn_th;
layers = (
{
layerId = "22F7FBB9-6A27-4F4A-9FDC-2CC606CA4AF4";
shapes = (
{
closed = 1;
nodes = (
(400,341,l),
(376,328,o),
(367,298,o),
(380,273,cs),
(393,249,o),
(423,240,o),
(448,253,cs),
(493,277,o),
(495,341,o),
(451,369,cs),
(427,384,o),
(397,377,o),
(382,354,cs),
(367,330,o),
(374,300,o),
(397,285,c)
);
},
{
closed = 1;
nodes = (
(136,564,o),
(59,379,o),
(51,251,cs),
(41,73,o),
(151,1,o),
(244,-5,cs),
(348,-10,o),
(407,26,o),
(441,68,c),
(473,33,o),
(533,-9,o),
(629,-5,cs),
(724,-1,o),
(820,100,o),
(821,238,cs),
(824,532,o),
(560,646,o),
(309,646,cs),
(177,646,o),
(96,659,o),
(96,587,cs),
(96,525,o),
(159,525,o),
(285,525,cs),
(360,525,o),
(702,508,o),
(851,617,cs),
(874,633,o),
(878,664,o),
(862,686,cs),
(845,709,o),
(816,713,o),
(793,697,cs),
(667,611,o),
(328,625,o),
(285,625,cs),
(270,625,o),
(187,624,o),
(168,629,c),
(167,545,l),
(183,549,o),
(258,546,o),
(309,546,cs),
(506,546,o),
(721,469,o),
(721,239,cs),
(721,145,o),
(657,96,o),
(625,95,cs),
(527,91,o),
(500,156,o),
(475,185,cs),
(455,209,o),
(419,209,o),
(399,185,cs),
(370,151,o),
(367,89,o),
(250,95,cs),
(211,97,o),
(144,123,o),
(151,245,cs),
(156,333,o),
(209,482,o),
(368,531,cs),
(394,539,o),
(409,567,o),
(401,594,cs),
(393,620,o),
(365,635,o),
(338,627,cs)
);
},
{
closed = 1;
nodes = (
(392,-65,o),
(385,-113,o),
(411,-161,cs),
(424,-185,o),
(455,-194,o),
(479,-181,cs),
(503,-168,o),
(512,-137,o),
(499,-113,cs),
(489,-95,o),
(492,-71,o),
(496,-41,cs),
(499,-13,o),
(479,12,o),
(452,15,cs),
(424,19,o),
(400,-2,o),
(396,-29,c)
);
}
);
width = 922;
},
{
layerId = "625C7B41-5CAD-42BA-9A13-A89677FC7E21";
shapes = (
{
closed = 1;
nodes = (
(409,319,l),
(397,312,o),
(392,297,o),
(399,285,cs),
(406,273,o),
(421,268,o),
(433,275,cs),
(462,291,o),
(462,330,o),
(434,348,cs),
(423,356,o),
(407,352,o),
(400,340,c),
(392,329,o),
(396,313,o),
(408,306,c)
);
},
{
closed = 1;
nodes = (
(119,547,o),
(50,384,o),
(50,223,cs),
(50,53,o),
(169,-1,o),
(242,-5,cs),
(362,-12,o),
(410,38,o),
(436,77,c),
(466,40,o),
(521,-10,o),
(625,-5,cs),
(728,-1,o),
(818,113,o),
(818,248,cs),
(818,552,o),
(519,646,o),
(306,646,cs),
(179,646,o),
(118,655,o),
(118,612,cs),
(118,577,o),
(159,575,o),
(282,575,cs),
(358,575,o),
(715,567,o),
(856,670,cs),
(867,678,o),
(869,694,o),
(861,705,cs),
(853,716,o),
(837,718,o),
(826,710,cs),
(691,620,o),
(329,625,o),
(282,625,cs),
(265,625,o),
(175,624,o),
(157,631,c),
(157,594,l),
(173,599,o),
(251,596,o),
(306,596,cs),
(517,596,o),
(768,504,o),
(768,248,cs),
(768,129,o),
(690,48,o),
(623,45,cs),
(510,41,o),
(475,111,o),
(453,137,cs),
(443,149,o),
(425,149,o),
(415,137,cs),
(391,108,o),
(379,38,o),
(246,45,cs),
(192,48,o),
(100,87,o),
(100,223,cs),
(100,366,o),
(159,509,o),
(358,580,cs),
(372,585,o),
(378,599,o),
(374,612,cs),
(369,626,o),
(355,632,o),
(342,628,c)
);
},
{
closed = 1;
nodes = (
(403,-62,o),
(400,-142,o),
(441,-167,cs),
(453,-174,o),
(468,-171,o),
(475,-159,cs),
(483,-147,o),
(479,-132,o),
(467,-125,cs),
(458,-119,o),
(451,-74,o),
(463,-15,cs),
(466,-2,o),
(458,11,o),
(444,14,cs),
(431,16,o),
(417,9,o),
(415,-5,c)
);
}
);
width = 916;
}
);
unicode = 3237;
},
{
color = (255, 255, 153, 255);
glyphname = kn_d;
layers = (
{
layerId = "22F7FBB9-6A27-4F4A-9FDC-2CC606CA4AF4";
shapes = (
{
closed = 1;
nodes = (
(136,564,o),
(59,379,o),
(51,251,cs),
(41,73,o),
(151,1,o),
(244,-5,cs),
(348,-10,o),
(407,26,o),
(441,68,c),
(473,33,o),
(533,-9,o),
(629,-5,cs),
(724,-1,o),
(820,100,o),
(821,238,cs),
(824,532,o),
(560,646,o),
(309,646,cs),
(177,646,o),
(96,659,o),
(96,587,cs),
(96,525,o),
(159,525,o),
(285,525,cs),
(360,525,o),
(702,508,o),
(851,617,cs),
(874,633,o),
(878,664,o),
(862,686,cs),
(845,709,o),
(816,713,o),
(793,697,cs),
(667,611,o),
(328,625,o),
(285,625,cs),
(270,625,o),
(187,624,o),
(168,629,c),
(167,545,l),
(183,549,o),
(258,546,o),
(309,546,cs),
(506,546,o),
(721,469,o),
(721,239,cs),
(721,145,o),
(657,96,o),
(625,95,cs),
(527,91,o),
(500,156,o),
(475,185,cs),
(455,209,o),
(419,209,o),
(399,185,cs),
(370,151,o),
(367,89,o),
(250,95,cs),
(211,97,o),
(144,123,o),
(151,245,cs),
(156,333,o),
(209,482,o),
(368,531,cs),
(394,539,o),
(409,567,o),
(401,594,cs),
(393,620,o),
(365,635,o),
(338,627,cs)
);
}
);
width = 922;
},
{
layerId = "625C7B41-5CAD-42BA-9A13-A89677FC7E21";
shapes = (
{
closed = 1;
nodes = (
(119,547,o),
(50,384,o),
(50,223,cs),
(50,53,o),
(169,-1,o),
(242,-5,cs),
(362,-12,o),
(410,38,o),
(436,77,c),
(466,40,o),
(521,-10,o),
(625,-5,cs),
(728,-1,o),
(818,113,o),
(818,248,cs),
(818,552,o),
(519,646,o),
(306,646,cs),
(179,646,o),
(118,655,o),
(118,612,cs),
(118,577,o),
(159,575,o),
(282,575,cs),
(358,575,o),
(715,567,o),
(856,670,cs),
(867,678,o),
(869,694,o),
(861,705,cs),
(853,716,o),
(837,718,o),
(826,710,cs),
(691,620,o),
(329,625,o),
(282,625,cs),
(265,625,o),
(175,624,o),
(157,631,c),
(157,594,l),
(173,599,o),
(251,596,o),
(306,596,cs),
(517,596,o),
(768,504,o),
(768,248,cs),
(768,129,o),
(690,48,o),
(623,45,cs),
(510,41,o),
(475,111,o),
(453,137,cs),
(443,149,o),
(425,149,o),
(415,137,cs),
(391,108,o),
(379,38,o),
(246,45,cs),
(192,48,o),
(100,87,o),
(100,223,cs),
(100,366,o),
(159,509,o),
(358,580,cs),
(372,585,o),
(378,599,o),
(374,612,cs),
(369,626,o),
(355,632,o),
(342,628,c)
);
}
);
width = 916;
}
);
unicode = 3238;
},
{
color = (255, 255, 153, 255);
glyphname = kn_dh;
layers = (
{
layerId = "22F7FBB9-6A27-4F4A-9FDC-2CC606CA4AF4";
shapes = (
{
closed = 1;
nodes = (
(136,564,o),
(59,379,o),
(51,251,cs),
(41,73,o),
(151,1,o),
(244,-5,cs),
(348,-10,o),
(407,26,o),
(441,68,c),
(473,33,o),
(533,-9,o),
(629,-5,cs),
(724,-1,o),
(820,100,o),
(821,238,cs),
(824,532,o),
(560,646,o),
(309,646,cs),
(177,646,o),
(96,659,o),
(96,587,cs),
(96,525,o),
(159,525,o),
(285,525,cs),
(360,525,o),
(702,508,o),
(851,617,cs),
(874,633,o),
(878,664,o),
(862,686,cs),
(845,709,o),
(816,713,o),
(793,697,cs),
(667,611,o),
(328,625,o),
(285,625,cs),
(270,625,o),
(187,624,o),
(168,629,c),
(167,545,l),
(183,549,o),
(258,546,o),
(309,546,cs),
(506,546,o),
(721,469,o),
(721,239,cs),
(721,145,o),
(657,96,o),
(625,95,cs),
(527,91,o),
(500,156,o),
(475,185,cs),
(455,209,o),
(419,209,o),
(399,185,cs),
(370,151,o),
(367,89,o),
(250,95,cs),
(211,97,o),
(144,123,o),
(151,245,cs),
(156,333,o),
(209,482,o),
(368,531,cs),
(394,539,o),
(409,567,o),
(401,594,cs),
(393,620,o),
(365,635,o),
(338,627,cs)
);
},
{
closed = 1;
nodes = (
(384,-66,o),
(377,-114,o),
(403,-162,cs),
(416,-186,o),
(447,-195,o),
(471,-182,cs),
(495,-169,o),
(504,-138,o),
(491,-114,cs),
(481,-96,o),
(484,-72,o),
(488,-42,cs),
(491,-14,o),
(471,11,o),
(444,14,cs),
(416,18,o),
(392,-3,o),
(388,-30,c)
);
}
);
width = 922;
},
{
guides = (
{
position = "{0, 0}";
}
);
layerId = "625C7B41-5CAD-42BA-9A13-A89677FC7E21";
shapes = (
{
closed = 1;
nodes = (
(119,547,o),
(50,384,o),
(50,223,cs),
(50,53,o),
(169,-1,o),
(242,-5,cs),
(362,-12,o),
(410,38,o),
(436,77,c),
(466,40,o),
(521,-10,o),
(625,-5,cs),
(728,-1,o),
(818,113,o),
(818,248,cs),
(818,552,o),
(519,646,o),
(306,646,cs),
(179,646,o),
(118,655,o),
(118,612,cs),
(118,577,o),
(159,575,o),
(282,575,cs),
(358,575,o),
(715,567,o),
(856,670,cs),
(867,678,o),
(869,694,o),
(861,705,cs),
(853,716,o),
(837,718,o),
(826,710,cs),
(691,620,o),
(329,625,o),
(282,625,cs),
(265,625,o),
(175,624,o),
(157,631,c),
(157,594,l),
(173,599,o),
(251,596,o),
(306,596,cs),
(517,596,o),
(768,504,o),
(768,248,cs),
(768,129,o),
(690,48,o),
(623,45,cs),
(510,41,o),
(475,111,o),
(453,137,cs),
(443,149,o),
(425,149,o),
(415,137,cs),
(391,108,o),
(379,38,o),
(246,45,cs),
(192,48,o),
(100,87,o),
(100,223,cs),
(100,366,o),
(159,509,o),
(358,580,cs),
(372,585,o),
(378,599,o),
(374,612,cs),
(369,626,o),
(355,632,o),
(342,628,c)
);
},
{
closed = 1;
nodes = (
(402,-62,o),
(409,-152,o),
(450,-177,cs),
(462,-184,o),
(477,-181,o),
(484,-169,cs),
(492,-157,o),
(488,-142,o),
(476,-135,cs),
(467,-129,o),
(450,-74,o),
(462,-15,cs),
(465,-2,o),
(457,11,o),
(443,14,cs),
(430,16,o),
(416,9,o),
(414,-5,c)
);
}
);
width = 916;
}
);
unicode = 3239;
},
{
color = (255, 255, 153, 255);
glyphname = kn_n;
layers = (
{
layerId = "22F7FBB9-6A27-4F4A-9FDC-2CC606CA4AF4";
shapes = (
{
closed = 1;
nodes = (
(142,196,o),
(206,218,o),
(254,222,cs),
(401,234,o),
(427,-7,o),
(591,-7,cs),
(793,-7,o),
(798,222,o),
(756,328,cs),
(662,569,o),
(341,639,o),
(278,639,cs),
(244,639,o),
(125,634,o),
(125,560,cs),
(125,468,o),
(298,498,o),
(337,506,cs),
(416,522,o),
(643,535,o),
(784,633,cs),
(806,649,o),
(812,680,o),
(796,703,cs),
(777,729,o),
(746,728,o),
(721,711,cs),
(603,631,o),
(391,620,o),
(317,604,cs),
(260,592,o),
(212,594,o),
(203,598,c),
(210,529,l),
(216,532,o),
(244,539,o),
(278,539,cs),
(321,539,o),
(589,478,o),
(662,292,cs),
(685,232,o),
(696,93,o),
(591,93,cs),
(504,93,o),
(452,339,o),
(246,322,cs),
(161,315,o),
(37,261,o),
(52,40,cs),
(54,12,o),
(78,-9,o),
(105,-7,cs),
(133,-5,o),
(154,19,o),
(152,46,cs)
);
}
);
width = 856;
},
{
layerId = "625C7B41-5CAD-42BA-9A13-A89677FC7E21";
shapes = (
{
closed = 1;
nodes = (
(90,200,o),
(168,224,o),
(212,227,cs),
(377,241,o),
(419,-8,o),
(566,-8,cs),
(744,-8,o),
(750,224,o),
(712,319,cs),
(623,548,o),
(294,631,o),
(238,631,cs),
(220,631,o),
(110,629,o),
(110,577,cs),
(110,522,o),
(239,537,o),
(292,548,cs),
(368,564,o),
(600,582,o),
(734,675,cs),
(746,683,o),
(748,699,o),
(741,710,cs),
(730,726,o),
(714,722,o),
(700,713,cs),
(575,630,o),
(354,611,o),
(282,596,cs),
(217,582,o),
(163,587,o),
(153,592,c),
(156,567,l),
(162,572,o),
(196,581,o),
(238,581,cs),
(283,581,o),
(587,502,o),
(666,301,cs),
(694,229,o),
(695,42,o),
(566,42,cs),
(456,42,o),
(403,293,o),
(208,277,cs),
(130,271,o),
(38,217,o),
(52,15,cs),
(53,1,o),
(65,-9,o),
(79,-8,cs),
(93,-7,o),
(103,5,o),
(102,19,cs)
);
}
);
width = 796;
}
);
unicode = 3240;
},
{
color = (255, 255, 153, 255);
glyphname = kn_p;
layers = (
{
layerId = "22F7FBB9-6A27-4F4A-9FDC-2CC606CA4AF4";
shapes = (
{
closed = 1;
nodes = (
(-18,269,o),
(51,35,o),
(214,-2,cs),
(320,-26,o),
(439,9,o),
(509,59,c),
(580,7,o),
(658,-42,o),
(790,-5,cs),
(955,42,o),
(930,233,o),
(871,346,cs),
(839,409,o),
(739,593,o),
(458,593,cs),
(221,593,o),
(248,395,o),
(358,346,cs),
(476,294,o),
(604,359,o),
(576,471,cs),
(545,595,o),
(358,597,o),
(283,641,cs),
(226,675,o),
(175,589,o),
(233,555,cs),
(355,483,o),
(566,446,o),
(905,609,cs),
(930,621,o),
(940,651,o),
(928,676,cs),
(916,701,o),
(886,711,o),
(861,699,cs),
(544,546,o),
(369,591,o),
(283,641,cs),
(226,675,o),
(175,589,o),
(233,555,cs),
(310,509,o),
(466,497,o),
(478,447,cs),
(485,420,o),
(420,428,o),
(398,438,cs),
(384,444,o),
(334,493,o),
(458,493,cs),
(680,493,o),
(755,355,o),
(783,300,cs),
(812,244,o),
(849,116,o),
(762,91,cs),
(663,63,o),
(618,103,o),
(537,163,cs),
(517,178,o),
(490,176,o),
(472,158,cs),
(424,110,o),
(321,77,o),
(236,96,cs),
(163,112,o),
(124,213,o),
(170,229,cs),
(197,238,o),
(210,266,o),
(201,292,cs),
(192,319,o),
(164,332,o),
(138,323,cs)
);
}
);
width = 984;
},
{
layerId = "625C7B41-5CAD-42BA-9A13-A89677FC7E21";
shapes = (
{
closed = 1;
nodes = (
(-11,257,o),
(58,30,o),
(221,-3,cs),
(330,-24,o),
(450,15,o),
(510,66,c),
(587,10,o),
(669,-38,o),
(797,-2,cs),
(915,32,o),
(942,147,o),
(895,292,cs),
(869,368,o),
(757,591,o),
(488,591,cs),
(240,591,o),
(292,420,o),
(377,382,cs),
(468,341,o),
(576,394,o),
(552,491,cs),
(526,598,o),
(350,601,o),
(272,646,cs),
(243,663,o),
(218,619,o),
(246,602,cs),
(359,536,o),
(574,496,o),
(915,666,cs),
(928,672,o),
(932,687,o),
(926,699,cs),
(919,712,o),
(905,716,o),
(893,710,cs),
(562,545,o),
(367,590,o),
(272,646,c),
(243,662,o),
(218,619,o),
(246,602,cs),
(326,555,o),
(486,549,o),
(504,479,cs),
(519,417,o),
(438,410,o),
(397,428,cs),
(360,445,o),
(297,541,o),
(488,541,cs),
(733,541,o),
(829,331,o),
(847,276,cs),
(872,201,o),
(893,77,o),
(783,46,cs),
(670,14,o),
(603,59,o),
(523,118,cs),
(513,125,o),
(499,125,o),
(490,116,cs),
(436,62,o),
(325,28,o),
(231,47,cs),
(112,70,o),
(61,232,o),
(135,261,cs),
(148,266,o),
(154,280,o),
(149,293,cs),
(144,306,o),
(130,312,o),
(117,307,cs)
);
}
);
width = 979;
}
);
unicode = 3242;
},
{
color = (255, 255, 153, 255);
glyphname = kn_ph;
layers = (
{
layerId = "22F7FBB9-6A27-4F4A-9FDC-2CC606CA4AF4";
shapes = (
{
closed = 1;
nodes = (
(-18,269,o),
(51,35,o),
(214,-2,cs),
(320,-26,o),
(439,9,o),
(509,59,c),
(580,7,o),
(658,-42,o),
(790,-5,cs),
(955,42,o),
(930,233,o),
(871,346,cs),
(839,409,o),
(739,593,o),
(458,593,cs),
(221,593,o),
(248,395,o),
(358,346,cs),
(476,294,o),
(604,359,o),
(576,471,cs),
(545,595,o),
(358,597,o),
(283,641,cs),
(226,675,o),
(175,589,o),
(233,555,cs),
(355,483,o),
(566,446,o),
(905,609,cs),
(930,621,o),
(940,651,o),
(928,676,cs),
(916,701,o),
(886,711,o),
(861,699,cs),
(544,546,o),
(369,591,o),
(283,641,cs),
(226,675,o),
(175,589,o),
(233,555,cs),
(310,509,o),
(466,497,o),
(478,447,cs),
(485,420,o),
(420,428,o),
(398,438,cs),
(384,444,o),
(334,493,o),
(458,493,cs),
(680,493,o),
(755,355,o),
(783,300,cs),
(812,244,o),
(849,116,o),
(762,91,cs),
(663,63,o),
(618,103,o),
(537,163,cs),
(517,178,o),
(490,176,o),
(472,158,cs),
(424,110,o),
(321,77,o),
(236,96,cs),
(163,112,o),
(124,213,o),
(170,229,cs),
(197,238,o),
(210,266,o),
(201,292,cs),
(192,319,o),
(164,332,o),
(138,323,cs)
);
},
{
closed = 1;
nodes = (
(452,-65,o),
(445,-113,o),
(471,-161,cs),
(484,-185,o),
(515,-194,o),
(539,-181,cs),
(563,-168,o),
(572,-137,o),
(559,-113,cs),
(549,-95,o),
(552,-71,o),
(556,-41,cs),
(559,-13,o),
(539,12,o),
(512,15,cs),
(484,19,o),
(460,-2,o),
(456,-29,c)
);
}
);
width = 984;
},
{
layerId = "625C7B41-5CAD-42BA-9A13-A89677FC7E21";
shapes = (
{
closed = 1;
nodes = (
(-11,257,o),
(58,30,o),
(221,-3,cs),
(330,-24,o),
(450,15,o),
(510,66,c),
(587,10,o),
(669,-38,o),
(797,-2,cs),
(915,32,o),
(942,147,o),
(895,292,cs),
(869,368,o),
(757,591,o),
(488,591,cs),
(240,591,o),
(292,420,o),
(377,382,cs),
(468,341,o),
(576,394,o),
(552,491,cs),
(526,598,o),
(350,601,o),
(272,646,cs),
(243,663,o),
(218,619,o),
(246,602,cs),
(359,536,o),
(574,496,o),
(915,666,cs),
(928,672,o),
(932,687,o),
(926,699,cs),
(919,712,o),
(905,716,o),
(893,710,cs),
(562,545,o),
(367,590,o),
(272,646,c),
(243,662,o),
(218,619,o),
(246,602,cs),
(326,555,o),
(486,549,o),
(504,479,cs),
(519,417,o),
(438,410,o),
(397,428,cs),
(360,445,o),
(297,541,o),
(488,541,cs),
(733,541,o),
(829,331,o),
(847,276,cs),
(872,201,o),
(893,77,o),
(783,46,cs),
(670,14,o),
(603,59,o),
(523,118,cs),
(513,125,o),
(499,125,o),
(490,116,cs),
(436,62,o),
(325,28,o),
(231,47,cs),
(112,70,o),
(61,232,o),
(135,261,cs),
(148,266,o),
(154,280,o),
(149,293,cs),
(144,306,o),
(130,312,o),
(117,307,cs)
);
},
{
closed = 1;
nodes = (
(473,-62,o),
(470,-142,o),
(511,-167,cs),
(523,-174,o),
(538,-171,o),
(545,-159,cs),
(553,-147,o),
(549,-132,o),
(537,-125,cs),
(528,-119,o),
(521,-74,o),
(533,-15,cs),
(536,-2,o),
(528,11,o),
(514,14,cs),
(501,16,o),
(487,9,o),
(485,-5,c)
);
}
);
width = 979;
}
);
unicode = 3243;
},
{
color = (255, 255, 153, 255);
glyphname = kn_b;
layers = (
{
layerId = "22F7FBB9-6A27-4F4A-9FDC-2CC606CA4AF4";
shapes = (
{
closed = 1;
nodes = (
(247,559,o),
(264,492,o),
(245,461,cs),
(209,401,o),
(11,236,o),
(58,70,cs),
(102,-87,o),
(281,-7,o),
(373,70,c),
(414,31,o),
(467,-11,o),
(561,3,cs),
(778,36,o),
(812,417,o),
(737,612,cs),
(707,690,o),
(620,652,o),
(635,605,cs),
(707,382,o),
(684,126,o),
(549,103,cs),
(470,89,o),
(459,130,o),
(409,175,cs),
(390,192,o),
(358,191,o),
(341,174,cs),
(293,128,o),
(173,46,o),
(154,98,cs),
(122,186,o),
(288,345,o),
(328,405,cs),
(395,506,o),
(326,658,o),
(155,658,cs),
(126,658,o),
(105,638,o),
(105,609,cs),
(105,581,o),
(127,559,o),
(155,559,cs)
);
}
);
width = 824;
},
{
layerId = "625C7B41-5CAD-42BA-9A13-A89677FC7E21";
shapes = (
{
closed = 1;
nodes = (
(263,608,o),
(296,521,o),
(263,471,cs),
(214,399,o),
(0,186,o),
(62,50,cs),
(126,-89,o),
(307,16,o),
(371,70,c),
(412,31,o),
(451,-10,o),
(556,4,cs),
(753,29,o),
(795,425,o),
(706,649,cs),
(696,673,o),
(652,655,o),
(660,633,cs),
(743,397,o),
(699,73,o),
(550,54,cs),
(457,41,o),
(439,78,o),
(389,123,cs),
(379,131,o),
(364,131,o),
(355,122,cs),
(307,76,o),
(151,-23,o),
(108,70,cs),
(61,173,o),
(265,383,o),
(305,443,cs),
(361,525,o),
(304,658,o),
(153,658,cs),
(139,658,o),
(128,647,o),
(128,633,cs),
(128,619,o),
(139,608,o),
(153,608,cs)
);
}
);
width = 801;
}
);
unicode = 3244;
},
{
color = (255, 255, 153, 255);
glyphname = kn_bh;
layers = (
{
layerId = "22F7FBB9-6A27-4F4A-9FDC-2CC606CA4AF4";
shapes = (
{
closed = 1;
nodes = (
(256,549,o),
(279,481,o),
(254,453,cs),
(161,348,o),
(2,198,o),
(64,63,cs),
(130,-81,o),
(297,0,o),
(381,69,c),
(421,31,o),
(462,-12,o),
(567,3,cs),
(838,42,o),
(841,557,o),
(666,627,cs),
(533,680,o),
(428,613,o),
(491,547,cs),
(534,501,o),
(721,506,o),
(880,622,cs),
(902,638,o),
(907,669,o),
(890,692,cs),
(875,713,o),
(840,718,o),
(820,702,cs),
(774,665,o),
(633,600,o),
(553,623,c),
(547,545,l),
(556,549,o),
(592,549,o),
(628,535,cs),
(709,503,o),
(722,135,o),
(553,103,cs),
(478,89,o),
(466,129,o),
(417,173,cs),
(398,190,o),
(367,190,o),
(349,172,cs),
(302,127,o),
(185,47,o),
(154,105,cs),
(114,180,o),
(298,339,o),
(337,397,cs),
(404,497,o),
(336,650,o),
(167,650,cs),
(140,650,o),
(117,626,o),
(117,599,cs),
(117,571,o),
(139,549,o),
(167,549,cs)
);
},
{
closed = 1;
nodes = (
(327,-66,o),
(333,-106,o),
(339,-130,cs),
(346,-158,o),
(375,-176,o),
(398,-169,cs),
(422,-162,o),
(443,-143,o),
(437,-110,cs),
(435,-102,o),
(426,-61,o),
(432,-34,cs),
(439,-4,o),
(421,20,o),
(394,26,cs),
(367,32,o),
(337,16,o),
(334,-12,cs)
);
}
);
width = 951;
},
{
layerId = "625C7B41-5CAD-42BA-9A13-A89677FC7E21";
shapes = (
{
closed = 1;
nodes = (
(260,600,o),
(293,514,o),
(260,465,cs),
(213,394,o),
(0,185,o),
(62,50,cs),
(126,-87,o),
(304,17,o),
(367,69,c),
(407,31,o),
(445,-11,o),
(550,4,cs),
(797,39,o),
(793,570,o),
(642,630,cs),
(542,670,o),
(452,635,o),
(495,590,cs),
(528,555,o),
(709,561,o),
(851,668,cs),
(862,676,o),
(864,692,o),
(856,703,cs),
(848,714,o),
(832,717,o),
(821,708,cs),
(775,671,o),
(592,591,o),
(529,626,c),
(526,594,l),
(535,598,o),
(588,598,o),
(624,584,cs),
(729,542,o),
(736,81,o),
(542,54,cs),
(452,41,o),
(434,78,o),
(385,122,cs),
(375,131,o),
(360,130,o),
(351,121,cs),
(304,76,o),
(150,-21,o),
(108,70,cs),
(62,171,o),
(263,379,o),
(302,437,cs),
(357,518,o),
(301,650,o),
(153,650,cs),
(139,650,o),
(128,639,o),
(128,625,cs),
(128,611,o),
(139,600,o),
(153,600,cs)
);
},
{
closed = 1;
nodes = (
(332,-50,o),
(340,-142,o),
(382,-166,cs),
(394,-173,o),
(409,-168,o),
(416,-156,cs),
(423,-144,o),
(418,-129,o),
(406,-122,cs),
(398,-118,o),
(380,-62,o),
(393,-2,cs),
(396,11,o),
(388,24,o),
(374,27,cs),
(361,30,o),
(348,22,o),
(345,8,cs)
);
}
);
width = 911;
}
);
unicode = 3245;
},
{
color = (255, 255, 153, 255);
glyphname = kn_m;
layers = (
{
layerId = "22F7FBB9-6A27-4F4A-9FDC-2CC606CA4AF4";
shapes = (
{
closed = 1;
nodes = (
(914,-107,o),
(1505,-104,o),
(1158,603,cs),
(1146,628,o),
(1116,638,o),
(1091,626,cs),
(1066,614,o),
(1056,584,o),
(1068,559,cs),
(1351,-16,o),
(961,51,o),
(887,249,cs),
(877,275,o),
(848,289,o),
(823,279,cs),
(797,269,o),
(784,240,o),
(793,215,cs)
);
},
{
closed = 1;
nodes = (
(18,130,o),
(92,-3,o),
(256,-9,cs),
(319,-11,o),
(422,-2,o),
(494,98,c),
(534,46,o),
(599,-9,o),
(715,-9,cs),
(915,-9,o),
(918,277,o),
(834,404,cs),
(774,496,o),
(618,625,o),
(216,626,cs),
(150,626,o),
(149,526,o),
(216,526,cs),
(344,526,o),
(782,537,o),
(896,627,cs),
(918,644,o),
(921,675,o),
(904,697,cs),
(887,719,o),
(856,722,o),
(834,705,cs),
(766,652,o),
(437,626,o),
(216,626,cs),
(149,626,o),
(149,526,o),
(216,526,cs),
(596,525,o),
(714,404,o),
(750,350,cs),
(798,277,o),
(809,91,o),
(715,91,cs),
(596,91,o),
(569,170,o),
(532,219,cs),
(510,248,o),
(466,245,o),
(448,213,cs),
(413,149,o),
(378,86,o),
(260,91,cs),
(163,95,o),
(136,160,o),
(157,219,cs),
(166,245,o),
(153,274,o),
(127,283,cs),
(101,292,o),
(72,279,o),
(63,253,cs)
);
}
);
width = 1316;
},
{
layerId = "625C7B41-5CAD-42BA-9A13-A89677FC7E21";
shapes = (
{
closed = 1;
nodes = (
(955,-116,o),
(1519,-87,o),
(1174,614,cs),
(1168,626,o),
(1153,632,o),
(1141,625,cs),
(1129,619,o),
(1124,604,o),
(1130,592,cs),
(1442,-41,o),
(978,-38,o),
(883,218,cs),
(878,231,o),
(864,237,o),
(851,232,cs),
(838,228,o),
(832,213,o),
(837,200,cs)
);
},
{
closed = 1;
nodes = (
(18,134,o),
(91,-3,o),
(256,-10,cs),
(392,-15,o),
(454,52,o),
(493,116,c),
(527,65,o),
(587,-10,o),
(718,-10,cs),
(890,-10,o),
(916,245,o),
(852,364,cs),
(799,460,o),
(691,626,o),
(195,626,cs),
(162,626,o),
(162,576,o),
(195,576,cs),
(373,576,o),
(805,595,o),
(903,672,cs),
(914,681,o),
(916,697,o),
(908,707,cs),
(899,718,o),
(883,720,o),
(873,712,cs),
(796,651,o),
(412,626,o),
(195,626,cs),
(162,626,o),
(162,576,o),
(195,576,cs),
(674,576,o),
(765,419,o),
(808,340,cs),
(856,250,o),
(843,40,o),
(718,40,cs),
(584,40,o),
(546,132,o),
(511,178,cs),
(500,193,o),
(478,191,o),
(469,175,cs),
(433,109,o),
(392,35,o),
(258,40,cs),
(128,45,o),
(76,147,o),
(111,244,cs),
(116,257,o),
(110,272,o),
(97,276,cs),
(84,281,o),
(69,275,o),
(65,262,c)
);
}
);
width = 1335;
}
);
unicode = 3246;
},
{
color = (255, 255, 153, 255);
glyphname = kn_y;
layers = (
{
layerId = "22F7FBB9-6A27-4F4A-9FDC-2CC606CA4AF4";
shapes = (
{
closed = 1;
nodes = (
(54,501,o),
(45,338,o),
(52,275,cs),
(66,166,o),
(124,-5,o),
(363,-5,cs),
(558,-5,o),
(624,140,o),
(643,231,cs),
(671,363,o),
(631,441,o),
(569,517,cs),
(475,631,o),
(303,609,o),
(241,582,cs),
(215,571,o),
(204,538,o),
(214,513,cs),
(221,495,o),
(251,476,o),
(273,486,cs),
(331,512,o),
(441,515,o),
(491,453,cs),
(541,393,o),
(565,345,o),
(545,251,cs),
(530,180,o),
(488,95,o),
(363,95,cs),
(200,95,o),
(163,198,o),
(152,287,cs),
(144,356,o),
(166,424,o),
(228,468,cs),
(254,487,o),
(271,502,o),
(265,529,cs),
(258,556,o),
(231,578,o),
(204,566,cs)
);
},
{
closed = 1;
nodes = (
(554,95,o),
(664,-5,o),
(808,-5,cs),
(988,-5,o),
(1056,247,o),
(1056,344,cs),
(1056,441,o),
(1005,604,o),
(874,630,cs),
(668,672,o),
(651,512,o),
(812,512,cs),
(868,512,o),
(1120,518,o),
(1256,622,cs),
(1278,639,o),
(1283,670,o),
(1266,692,cs),
(1249,714,o),
(1218,719,o),
(1196,702,cs),
(1093,628,o),
(887,612,o),
(812,612,cs),
(788,612,o),
(780,614,o),
(780,614,c),
(782,535,l),
(787,536,o),
(813,540,o),
(854,532,cs),
(909,521,o),
(956,431,o),
(956,344,cs),
(956,239,o),
(886,95,o),
(808,95,cs),
(771,95,o),
(654,96,o),
(654,334,cs),
(654,362,o),
(632,384,o),
(604,384,cs),
(576,384,o),
(554,362,o),
(554,334,cs)
);
},
{
closed = 1;
nodes = (
(982,196,o),
(1025,-4,o),
(1208,-4,cs),
(1359,-4,o),
(1554,144,o),
(1369,495,cs),
(1356,520,o),
(1326,529,o),
(1302,516,cs),
(1277,503,o),
(1268,473,o),
(1281,449,cs),
(1425,174,o),
(1292,96,o),
(1208,96,cs),
(1144,96,o),
(1091,140,o),
(1059,339,cs),
(1054,367,o),
(1029,384,o),
(1002,380,cs),
(974,375,o),
(956,350,o),
(961,323,cs)
);
}
);
width = 1495;
},
{
layerId = "625C7B41-5CAD-42BA-9A13-A89677FC7E21";
shapes = (
{
closed = 1;
nodes = (
(84,533,o),
(36,376,o),
(56,253,cs),
(73,147,o),
(145,-5,o),
(363,-5,cs),
(539,-5,o),
(616,124,o),
(638,210,cs),
(675,356,o),
(635,428,o),
(580,503,cs),
(487,630,o),
(316,606,o),
(253,585,cs),
(240,581,o),
(233,565,o),
(238,552,cs),
(243,539,o),
(256,533,o),
(269,537,cs),
(307,550,o),
(460,582,o),
(540,473,cs),
(589,406,o),
(621,349,o),
(590,222,cs),
(583,195,o),
(538,45,o),
(363,45,cs),
(168,45,o),
(119,184,o),
(106,261,cs),
(89,364,o),
(129,493,o),
(242,528,cs),
(255,532,o),
(265,547,o),
(261,561,cs),
(258,574,o),
(244,580,o),
(230,576,cs)
);
},
{
closed = 1;
nodes = (
(601,94,o),
(692,-6,o),
(830,-6,cs),
(984,-6,o),
(1070,244,o),
(1070,344,cs),
(1070,450,o),
(1000,607,o),
(884,630,cs),
(720,662,o),
(698,561,o),
(827,561,cs),
(876,561,o),
(1139,569,o),
(1270,669,cs),
(1281,678,o),
(1283,693,o),
(1275,704,cs),
(1266,715,o),
(1251,717,o),
(1240,709,cs),
(1125,621,o),
(880,611,o),
(827,611,cs),
(797,611,o),
(787,614,o),
(786,615,c),
(787,582,l),
(792,585,o),
(824,591,o),
(874,580,c),
(954,565,o),
(1020,442,o),
(1020,344,cs),
(1020,242,o),
(934,44,o),
(830,44,cs),
(686,44,o),
(651,177,o),
(651,308,cs),
(651,322,o),
(640,333,o),
(626,333,cs),
(612,333,o),
(601,322,o),
(601,308,cs)
);
},
{
closed = 1;
nodes = (
(1036,189,o),
(1097,-5,o),
(1240,-5,cs),
(1380,-5,o),
(1556,164,o),
(1380,500,cs),
(1374,512,o),
(1359,517,o),
(1346,510,cs),
(1334,504,o),
(1329,489,o),
(1336,476,cs),
(1491,180,o),
(1347,45,o),
(1240,45,cs),
(1138,45,o),
(1085,203,o),
(1067,309,cs),
(1065,323,o),
(1052,332,o),
(1038,330,cs),
(1024,327,o),
(1015,315,o),
(1017,301,cs)
);
}
);
width = 1504;
}
);
unicode = 3247;
},
{
color = (255, 255, 153, 255);
glyphname = kn_r;
layers = (
{
layerId = "22F7FBB9-6A27-4F4A-9FDC-2CC606CA4AF4";
shapes = (
{
closed = 1;
nodes = (
(417,524,o),
(502,318,o),
(458,182,cs),
(425,78,o),
(211,20,o),
(161,225,cs),
(115,407,o),
(249,524,o),
(277,524,cs)
);
},
{
closed = 1;
nodes = (
(178,624,o),
(3,443,o),
(63,201,cs),
(139,-104,o),
(491,-46,o),
(554,152,cs),
(616,346,o),
(494,624,o),
(277,624,cs)
);
},
{
closed = 1;
nodes = (
(216,506,o),
(435,537,o),
(595,619,cs),
(619,631,o),
(630,662,o),
(617,687,cs),
(605,711,o),
(574,722,o),
(549,709,cs),
(399,633,o),
(212,614,o),
(158,635,cs),
(132,645,o),
(103,632,o),
(93,606,cs),
(83,580,o),
(96,551,o),
(122,541,cs)
);
}
);
width = 673;
},
{
layerId = "625C7B41-5CAD-42BA-9A13-A89677FC7E21";
shapes = (
{
closed = 1;
nodes = (
(460,575,o),
(562,295,o),
(498,149,cs),
(443,25,o),
(191,-35,o),
(117,193,cs),
(44,417,o),
(232,575,o),
(276,575,cs)
);
},
{
closed = 1;
nodes = (
(194,625,o),
(-13,431,o),
(69,177,cs),
(158,-95,o),
(471,-36,o),
(544,129,cs),
(621,305,o),
(500,625,o),
(276,625,cs)
);
},
{
closed = 1;
nodes = (
(214,560,o),
(425,589,o),
(582,669,cs),
(595,676,o),
(599,690,o),
(593,702,cs),
(586,715,o),
(572,719,o),
(560,713,cs),
(407,635,o),
(212,614,o),
(148,638,cs),
(135,643,o),
(121,637,o),
(116,624,cs),
(111,611,o),
(117,597,o),
(130,592,cs)
);
}
);
width = 646;
}
);
unicode = 3248;
},
{
color = (255, 255, 153, 255);
glyphname = kn_l;
layers = (
{
layerId = "22F7FBB9-6A27-4F4A-9FDC-2CC606CA4AF4";
shapes = (
{
closed = 1;
nodes = (
(282,370,o),
(344,416,o),
(363,474,cs),
(392,564,o),
(323,628,o),
(238,628,cs),
(157,628,o),
(21,555,o),
(56,332,cs),
(91,110,o),
(258,-17,o),
(448,-17,cs),
(695,-17,o),
(789,162,o),
(800,345,cs),
(816,597,o),
(667,638,o),
(599,604,cs),
(574,591,o),
(564,561,o),
(576,537,cs),
(589,512,o),
(619,503,o),
(643,514,cs),
(656,520,o),
(709,496,o),
(700,351,cs),
(691,196,o),
(623,83,o),
(450,83,cs),
(306,83,o),
(181,176,o),
(154,348,cs),
(129,510,o),
(219,528,o),
(238,528,cs),
(254,528,o),
(274,525,o),
(267,504,cs),
(265,497,o),
(259,487,o),
(250,491,cs),
(224,501,o),
(195,489,o),
(185,464,cs),
(174,438,o),
(187,409,o),
(212,399,cs)
);
}
);
width = 852;
},
{
layerId = "625C7B41-5CAD-42BA-9A13-A89677FC7E21";
shapes = (
{
closed = 1;
nodes = (
(227,453,o),
(328,476,o),
(326,547,cs),
(325,593,o),
(293,628,o),
(237,628,cs),
(170,628,o),
(14,571,o),
(59,311,cs),
(96,100,o),
(270,-15,o),
(448,-17,cs),
(676,-19,o),
(798,157,o),
(798,373,cs),
(798,606,o),
(661,633,o),
(609,606,cs),
(596,600,o),
(592,585,o),
(598,573,cs),
(605,560,o),
(619,556,o),
(631,562,cs),
(655,575,o),
(748,560,o),
(748,373,cs),
(748,175,o),
(640,31,o),
(448,33,cs),
(292,35,o),
(141,136,o),
(109,319,cs),
(69,552,o),
(204,578,o),
(237,578,cs),
(267,578,o),
(275,565,o),
(276,545,cs),
(276,528,o),
(247,523,o),
(240,537,cs),
(234,550,o),
(219,554,o),
(207,548,cs),
(194,541,o),
(189,527,o),
(196,515,c)
);
}
);
width = 848;
}
);
unicode = 3250;
},
{
color = (255, 255, 153, 255);
glyphname = kn_ll;
layers = (
{
layerId = "22F7FBB9-6A27-4F4A-9FDC-2CC606CA4AF4";
shapes = (
{
closed = 1;
nodes = (
(307,597,o),
(268,682,o),
(176,682,cs),
(85,682,o),
(30,607,o),
(57,486,cs),
(70,425,o),
(93,335,o),
(210,248,cs),
(272,202,o),
(312,143,o),
(280,102,cs),
(270,90,o),
(266,89,o),
(251,93,cs),
(234,98,o),
(239,114,o),
(245,125,cs),
(260,155,o),
(300,215,o),
(346,284,cs),
(384,340,o),
(512,455,o),
(496,606,cs),
(489,679,o),
(430,681,o),
(373,675,cs),
(256,663,o),
(270,516,o),
(390,547,cs),
(448,561,o),
(567,582,o),
(625,612,cs),
(649,624,o),
(660,655,o),
(647,680,cs),
(635,704,o),
(604,714,o),
(579,702,cs),
(533,679,o),
(413,655,o),
(366,643,c),
(362,616,o),
(369,612,o),
(373,599,c),
(379,598,o),
(394,619,o),
(396,596,cs),
(407,492,o),
(304,400,o),
(264,340,cs),
(222,279,o),
(176,209,o),
(157,171,cs),
(109,78,o),
(171,12,o),
(223,-3,cs),
(289,-23,o),
(331,5,o),
(358,40,cs),
(431,132,o),
(378,247,o),
(270,328,cs),
(181,395,o),
(166,458,o),
(155,508,cs),
(153,517,o),
(146,587,o),
(159,591,cs),
(168,594,o),
(176,587,o),
(180,567,cs),
(182,559,o),
(171,546,o),
(195,529,cs),
(218,512,o),
(249,517,o),
(265,539,cs)
);
}
);
width = 683;
},
{
layerId = "625C7B41-5CAD-42BA-9A13-A89677FC7E21";
shapes = (
{
closed = 1;
nodes = (
(259,590,o),
(228,683,o),
(159,683,cs),
(75,683,o),
(38,582,o),
(54,487,cs),
(67,408,o),
(98,314,o),
(208,232,cs),
(291,170,o),
(322,103,o),
(289,60,cs),
(274,41,o),
(253,35,o),
(227,43,cs),
(217,46,o),
(182,63,o),
(206,111,cs),
(223,144,o),
(266,198,o),
(309,262,cs),
(348,320,o),
(469,458,o),
(454,597,cs),
(450,638,o),
(416,662,o),
(358,656,cs),
(274,647,o),
(283,574,o),
(367,595,cs),
(420,608,o),
(560,633,o),
(614,661,cs),
(627,667,o),
(631,682,o),
(625,694,cs),
(618,707,o),
(604,711,o),
(592,705,cs),
(563,690,o),
(368,640,o),
(333,640,c),
(342,601,l),
(342,609,o),
(402,608,o),
(404,592,cs),
(417,475,o),
(304,345,o),
(267,290,cs),
(226,230,o),
(181,170,o),
(162,133,cs),
(123,58,o),
(172,7,o),
(213,-5,cs),
(266,-20,o),
(305,-1,o),
(329,30,cs),
(382,99,o),
(342,195,o),
(238,272,cs),
(142,344,o),
(116,423,o),
(104,495,cs),
(94,557,o),
(112,633,o),
(159,633,cs),
(185,633,o),
(195,588,o),
(188,578,cs),
(180,567,o),
(182,551,o),
(193,543,cs),
(204,535,o),
(220,537,o),
(228,548,cs)
);
}
);
width = 658;
}
);
unicode = 3251;
},
{
color = (255, 255, 153, 255);
glyphname = kn_v;
layers = (
{
layerId = "22F7FBB9-6A27-4F4A-9FDC-2CC606CA4AF4";
shapes = (
{
closed = 1;
nodes = (
(18,130,o),
(92,-3,o),
(256,-9,cs),
(319,-11,o),
(422,-2,o),
(494,98,c),
(534,46,o),
(599,-9,o),
(715,-9,cs),
(915,-9,o),
(918,277,o),
(834,404,cs),
(774,496,o),
(618,625,o),
(216,626,cs),
(150,626,o),
(149,526,o),
(216,526,cs),
(344,526,o),
(782,537,o),
(896,627,cs),
(918,644,o),
(921,675,o),
(904,697,cs),
(887,719,o),
(856,722,o),
(834,705,cs),
(766,652,o),
(437,626,o),
(216,626,cs),
(149,626,o),
(149,526,o),
(216,526,cs),
(596,525,o),
(714,404,o),
(750,350,cs),
(798,277,o),
(809,91,o),
(715,91,cs),
(596,91,o),
(569,170,o),
(532,219,cs),
(510,248,o),
(466,245,o),
(448,213,cs),
(413,149,o),
(378,86,o),
(260,91,cs),
(163,95,o),
(136,160,o),
(157,219,cs),
(166,245,o),
(153,274,o),
(127,283,cs),
(101,292,o),
(72,279,o),
(63,253,cs)
);
}
);
width = 965;
},
{
layerId = "625C7B41-5CAD-42BA-9A13-A89677FC7E21";
shapes = (
{
closed = 1;
nodes = (
(18,134,o),
(91,-3,o),
(256,-10,cs),
(392,-15,o),
(454,52,o),
(493,116,c),
(527,65,o),
(587,-10,o),
(718,-10,cs),
(890,-10,o),
(916,245,o),
(852,364,cs),
(799,460,o),
(691,626,o),
(195,626,cs),
(162,626,o),
(162,576,o),
(195,576,cs),
(373,576,o),
(805,595,o),
(903,672,cs),
(914,681,o),
(916,697,o),
(908,707,cs),
(899,718,o),
(883,720,o),
(873,712,cs),
(796,651,o),
(412,626,o),
(195,626,cs),
(162,626,o),
(162,576,o),
(195,576,cs),
(674,576,o),
(765,419,o),
(808,340,cs),
(856,250,o),
(843,40,o),
(718,40,cs),
(584,40,o),
(546,132,o),
(511,178,cs),
(500,193,o),
(478,191,o),
(469,175,cs),
(433,109,o),
(392,35,o),
(258,40,cs),
(128,45,o),
(76,147,o),
(111,244,cs),
(116,257,o),
(110,272,o),
(97,276,cs),
(84,281,o),
(69,275,o),
(65,262,c)
);
}
);
width = 963;
}
);
unicode = 3253;
},
{
color = (255, 255, 153, 255);
glyphname = kn_sh;
layers = (
{
layerId = "22F7FBB9-6A27-4F4A-9FDC-2CC606CA4AF4";
shapes = (
{
closed = 1;
nodes = (
(156,447,o),
(193,453,o),
(221,446,cs),
(267,435,o),
(357,330,o),
(360,232,cs),
(364,94,o),
(203,45,o),
(206,138,cs),
(211,275,o),
(359,300,o),
(430,434,cs),
(551,661,o),
(183,762,o),
(183,633,cs),
(183,510,o),
(511,584,o),
(576,620,cs),
(600,634,o),
(608,665,o),
(595,689,cs),
(581,713,o),
(550,721,o),
(526,708,cs),
(460,674,o),
(295,658,o),
(262,669,c),
(252,591,l),
(263,592,o),
(391,574,o),
(342,480,cs),
(285,373,o),
(113,332,o),
(106,142,cs),
(98,-95,o),
(467,-43,o),
(460,234,cs),
(456,368,o),
(343,518,o),
(245,543,cs),
(189,558,o),
(82,548,o),
(53,450,cs),
(45,423,o),
(60,396,o),
(87,388,cs),
(114,380,o),
(141,395,o),
(149,422,cs)
);
}
);
width = 632;
},
{
layerId = "625C7B41-5CAD-42BA-9A13-A89677FC7E21";
shapes = (
{
closed = 1;
nodes = (
(111,488,o),
(176,508,o),
(219,497,cs),
(297,477,o),
(406,334,o),
(402,207,cs),
(397,38,o),
(154,-16,o),
(154,113,cs),
(154,264,o),
(331,317,o),
(400,445,cs),
(504,638,o),
(200,740,o),
(200,656,cs),
(200,574,o),
(502,632,o),
(570,673,cs),
(582,680,o),
(586,695,o),
(578,707,cs),
(571,719,o),
(557,722,o),
(544,715,cs),
(469,672,o),
(270,656,o),
(243,670,c),
(237,637,l),
(259,641,o),
(421,590,o),
(356,469,cs),
(293,353,o),
(104,292,o),
(104,113,cs),
(104,-81,o),
(445,-33,o),
(452,205,cs),
(456,350,o),
(337,519,o),
(231,545,cs),
(180,558,o),
(75,542,o),
(52,464,cs),
(48,451,o),
(56,437,o),
(69,433,cs),
(82,429,o),
(96,437,o),
(100,450,cs)
);
}
);
width = 613;
}
);
unicode = 3254;
},
{
color = (255, 255, 153, 255);
glyphname = kn_ss;
layers = (
{
layerId = "22F7FBB9-6A27-4F4A-9FDC-2CC606CA4AF4";
shapes = (
{
closed = 1;
nodes = (
(577,231,o),
(764,144,o),
(930,-130,cs),
(945,-154,o),
(975,-161,o),
(999,-147,cs),
(1023,-132,o),
(1030,-102,o),
(1016,-78,cs),
(838,214,o),
(637,313,o),
(605,344,c),
(586,364,o),
(554,364,o),
(535,344,c),
(515,325,o),
(515,293,o),
(535,274,c)
);
},
{
closed = 1;
nodes = (
(-18,269,o),
(51,35,o),
(214,-2,cs),
(320,-26,o),
(439,9,o),
(509,59,c),
(580,7,o),
(658,-42,o),
(790,-5,cs),
(955,42,o),
(930,233,o),
(871,346,cs),
(839,409,o),
(739,593,o),
(458,593,cs),
(221,593,o),
(248,395,o),
(358,346,cs),
(476,294,o),
(604,359,o),
(576,471,cs),
(545,595,o),
(358,597,o),
(283,641,cs),
(226,675,o),
(175,589,o),
(233,555,cs),
(355,483,o),
(566,446,o),
(905,609,cs),
(930,621,o),
(940,651,o),
(928,676,cs),
(916,701,o),
(886,711,o),
(861,699,cs),
(544,546,o),
(369,591,o),
(283,641,cs),
(226,675,o),
(175,589,o),
(233,555,cs),
(310,509,o),
(466,497,o),
(478,447,cs),
(485,420,o),
(420,428,o),
(398,438,cs),
(384,444,o),
(334,493,o),
(458,493,cs),
(680,493,o),
(755,355,o),
(783,300,cs),
(812,244,o),
(849,116,o),
(762,91,cs),
(663,63,o),
(618,103,o),
(537,163,cs),
(517,178,o),
(490,176,o),
(472,158,cs),
(424,110,o),
(321,77,o),
(236,96,cs),
(163,112,o),
(124,213,o),
(170,229,cs),
(197,238,o),
(210,266,o),
(201,292,cs),
(192,319,o),
(164,332,o),
(138,323,cs)
);
}
);
width = 1074;
},
{
layerId = "625C7B41-5CAD-42BA-9A13-A89677FC7E21";
shapes = (
{
closed = 1;
nodes = (
(576,271,o),
(794,139,o),
(964,-140,cs),
(971,-152,o),
(986,-156,o),
(998,-148,cs),
(1010,-141,o),
(1013,-126,o),
(1006,-114,cs),
(831,173,o),
(607,311,o),
(572,346,cs),
(562,356,o),
(546,356,o),
(536,346,cs),
(526,336,o),
(527,320,o),
(536,310,c)
);
},
{
closed = 1;
nodes = (
(-11,257,o),
(58,30,o),
(221,-3,cs),
(330,-24,o),
(450,15,o),
(510,66,c),
(587,10,o),
(669,-38,o),
(797,-2,cs),
(915,32,o),
(942,147,o),
(895,292,cs),
(869,368,o),
(757,591,o),
(488,591,cs),
(240,591,o),
(292,420,o),
(377,382,cs),
(468,341,o),
(576,394,o),
(552,491,cs),
(526,598,o),
(350,601,o),
(272,646,cs),
(243,663,o),
(218,619,o),
(246,602,cs),
(359,536,o),
(574,496,o),
(915,666,cs),
(928,672,o),
(932,687,o),
(926,699,cs),
(919,712,o),
(905,716,o),
(893,710,cs),
(562,545,o),
(367,590,o),
(272,646,c),
(243,662,o),
(218,619,o),
(246,602,cs),
(326,555,o),
(486,549,o),
(504,479,cs),
(519,417,o),
(438,410,o),
(397,428,cs),
(360,445,o),
(297,541,o),
(488,541,cs),
(733,541,o),
(829,331,o),
(847,276,cs),
(872,201,o),
(893,77,o),
(783,46,cs),
(670,14,o),
(603,59,o),
(523,118,cs),
(513,125,o),
(499,125,o),
(490,116,cs),
(436,62,o),
(325,28,o),
(231,47,cs),
(112,70,o),
(61,232,o),
(135,261,cs),
(148,266,o),
(154,280,o),
(149,293,cs),
(144,306,o),
(130,312,o),
(117,307,cs)
);
}
);
width = 1060;
}
);
unicode = 3255;
},
{
color = (255, 255, 153, 255);
glyphname = kn_s;
layers = (
{
layerId = "22F7FBB9-6A27-4F4A-9FDC-2CC606CA4AF4";
shapes = (
{
closed = 1;
nodes = (
(150,197,o),
(224,202,o),
(240,202,cs),
(360,202,o),
(344,-10,o),
(542,-10,cs),
(719,-10,o),
(726,220,o),
(666,394,cs),
(600,585,o),
(414,641,o),
(284,601,cs),
(228,583,o),
(178,547,o),
(178,483,cs),
(178,431,o),
(224,370,o),
(296,370,cs),
(376,370,o),
(422,419,o),
(422,483,cs),
(422,577,o),
(356,635,o),
(255,646,cs),
(40,670,o),
(80,566,o),
(109,542,cs),
(159,500,o),
(281,530,o),
(405,546,cs),
(514,560,o),
(584,577,o),
(679,617,cs),
(705,628,o),
(717,657,o),
(706,682,cs),
(695,708,o),
(666,720,o),
(641,709,cs),
(556,673,o),
(494,659,o),
(393,646,cs),
(341,640,o),
(196,612,o),
(167,622,c),
(161,548,l),
(163,549,o),
(184,553,o),
(243,546,cs),
(317,538,o),
(322,504,o),
(322,483,cs),
(322,470,o),
(306,470,o),
(296,470,cs),
(284,470,o),
(278,480,o),
(278,483,cs),
(277,493,o),
(307,503,o),
(314,505,cs),
(395,530,o),
(525,498,o),
(572,362,cs),
(604,266,o),
(624,90,o),
(542,90,cs),
(413,90,o),
(432,302,o),
(240,302,cs),
(170,302,o),
(50,253,o),
(50,40,cs),
(50,12,o),
(72,-10,o),
(100,-10,cs),
(128,-10,o),
(150,12,o),
(150,40,cs)
);
}
);
width = 761;
},
{
layerId = "625C7B41-5CAD-42BA-9A13-A89677FC7E21";
shapes = (
{
closed = 1;
nodes = (
(100,192,o),
(182,217,o),
(222,217,cs),
(365,217,o),
(360,-10,o),
(544,-10,cs),
(704,-10,o),
(732,178,o),
(678,360,cs),
(612,584,o),
(435,646,o),
(274,595,cs),
(216,577,o),
(182,533,o),
(182,478,cs),
(182,428,o),
(228,370,o),
(298,370,cs),
(362,370,o),
(423,407,o),
(423,478,cs),
(423,555,o),
(347,636,o),
(254,646,cs),
(84,665,o),
(105,604,o),
(127,586,cs),
(167,552,o),
(297,582,o),
(404,596,cs),
(510,609,o),
(591,626,o),
(684,665,cs),
(696,670,o),
(702,685,o),
(697,698,cs),
(692,710,o),
(677,716,o),
(664,711,cs),
(577,674,o),
(502,659,o),
(398,646,cs),
(353,640,o),
(178,608,o),
(159,624,c),
(155,597,l),
(157,598,o),
(178,604,o),
(248,596,cs),
(321,588,o),
(373,525,o),
(373,478,cs),
(373,445,o),
(346,420,o),
(298,420,cs),
(256,420,o),
(232,454,o),
(232,478,cs),
(232,509,o),
(250,535,o),
(288,547,cs),
(423,590,o),
(572,542,o),
(630,346,cs),
(665,226,o),
(674,40,o),
(544,40,cs),
(393,40,o),
(400,267,o),
(222,267,cs),
(150,267,o),
(50,214,o),
(50,15,cs),
(50,1,o),
(61,-10,o),
(75,-10,cs),
(89,-10,o),
(100,1,o),
(100,15,cs)
);
}
);
width = 754;
}
);
unicode = 3256;
},
{
color = (255, 255, 153, 255);
glyphname = kn_h;
layers = (
{
layerId = "22F7FBB9-6A27-4F4A-9FDC-2CC606CA4AF4";
shapes = (
{
closed = 1;
nodes = (
(361,500,o),
(645,0,o),
(877,0,cs),
(1064,0,o),
(1092,164,o),
(1087,260,cs),
(1083,331,o),
(1026,532,o),
(877,532,cs),
(672,532,o),
(494,100,o),
(304,100,cs),
(204,100,o),
(150,191,o),
(150,323,cs),
(150,451,o),
(213,500,o),
(235,500,cs)
);
},
{
closed = 1;
nodes = (
(121,600,o),
(50,459,o),
(50,323,cs),
(50,181,o),
(114,0,o),
(304,0,cs),
(550,0,o),
(741,432,o),
(877,432,cs),
(928,432,o),
(983,333,o),
(987,254,cs),
(992,166,o),
(966,100,o),
(877,100,cs),
(700,100,o),
(428,600,o),
(235,600,cs)
);
},
{
closed = 1;
nodes = (
(263,482,o),
(657,530,o),
(798,614,cs),
(821,628,o),
(829,659,o),
(815,683,cs),
(801,706,o),
(770,714,o),
(746,700,cs),
(627,628,o),
(269,590,o),
(158,640,cs),
(133,652,o),
(103,641,o),
(92,616,cs),
(80,591,o),
(91,561,o),
(116,550,cs)
);
}
);
width = 1138;
},
{
layerId = "625C7B41-5CAD-42BA-9A13-A89677FC7E21";
shapes = (
{
closed = 1;
nodes = (
(378,550,o),
(656,0,o),
(877,0,cs),
(1036,0,o),
(1086,135,o),
(1086,232,cs),
(1086,346,o),
(1016,532,o),
(877,532,cs),
(687,532,o),
(509,50,o),
(304,50,cs),
(179,50,o),
(100,170,o),
(100,300,cs),
(100,461,o),
(168,550,o),
(235,550,cs)
);
},
{
closed = 1;
nodes = (
(120,600,o),
(50,463,o),
(50,300,cs),
(50,156,o),
(139,0,o),
(304,0,cs),
(539,0,o),
(724,482,o),
(877,482,cs),
(968,482,o),
(1036,346,o),
(1036,232,cs),
(1036,145,o),
(994,50,o),
(877,50,cs),
(686,50,o),
(414,600,o),
(235,600,cs)
);
},
{
closed = 1;
nodes = (
(244,535,o),
(664,580,o),
(800,662,cs),
(812,669,o),
(816,684,o),
(808,696,cs),
(801,708,o),
(786,712,o),
(774,704,c),
(650,630,o),
(248,589,o),
(127,644,cs),
(115,649,o),
(100,644,o),
(94,631,cs),
(89,619,o),
(94,604,o),
(107,598,cs)
);
}
);
width = 1136;
}
);
unicode = 3257;
},
{
color = (255, 255, 153, 255);
glyphname = kn_ma_aa;
layers = (
{
layerId = "22F7FBB9-6A27-4F4A-9FDC-2CC606CA4AF4";
shapes = (
{
closed = 1;
nodes = (
(-291,626,o),
(-33,622,o),
(9,592,cs),
(62,554,o),
(141,244,o),
(-53,62,cs),
(-73,43,o),
(-74,11,o),
(-56,-9,cs),
(-37,-29,o),
(-5,-30,o),
(15,-12,cs),
(270,227,o),
(144,636,o),
(57,681,cs),
(3,708,o),
(-283,722,o),
(-588,705,cs),
(-615,703,o),
(-637,680,o),
(-635,652,cs),
(-634,625,o),
(-610,604,o),
(-582,605,c)
);
}
);
width = 173;
},
{
layerId = "625C7B41-5CAD-42BA-9A13-A89677FC7E21";
shapes = (
{
closed = 1;
nodes = (
(-270,672,o),
(10,650,o),
(43,633,cs),
(75,617,o),
(215,253,o),
(-9,43,cs),
(-19,34,o),
(-20,18,o),
(-10,8,cs),
(-1,-2,o),
(15,-3,o),
(25,7,cs),
(270,236,o),
(134,642,o),
(65,677,cs),
(18,701,o),
(-278,722,o),
(-586,705,cs),
(-600,704,o),
(-611,692,o),
(-610,679,cs),
(-609,665,o),
(-597,654,o),
(-584,655,cs)
);
}
);
width = 173;
}
);
unicode = 3262;
},
{
color = (255, 255, 153, 255);
glyphname = kn_ma_i;
layers = (
{
layerId = "22F7FBB9-6A27-4F4A-9FDC-2CC606CA4AF4";
shapes = (
{
closed = 1;
nodes = (
(-206,516,o),
(-184,572,o),
(-184,624,cs),
(-184,678,o),
(-224,733,o),
(-295,733,cs),
(-368,733,o),
(-404,676,o),
(-404,624,cs),
(-404,539,o),
(-318,483,o),
(-230,522,cs),
(-204,534,o),
(-193,563,o),
(-204,588,cs),
(-216,614,o),
(-245,625,o),
(-270,614,cs),
(-282,609,o),
(-304,605,o),
(-304,624,cs),
(-304,631,o),
(-302,633,o),
(-295,633,cs),
(-288,633,o),
(-284,632,o),
(-284,624,cs),
(-284,611,o),
(-283,589,o),
(-346,558,cs),
(-371,546,o),
(-381,516,o),
(-369,491,cs),
(-357,466,o),
(-327,456,o),
(-302,468,cs)
);
}
);
width = 64;
},
{
layerId = "625C7B41-5CAD-42BA-9A13-A89677FC7E21";
shapes = (
{
closed = 1;
nodes = (
(-224,534,o),
(-209,583,o),
(-209,624,cs),
(-209,666,o),
(-240,708,o),
(-295,708,cs),
(-352,708,o),
(-379,665,o),
(-379,624,cs),
(-379,557,o),
(-311,513,o),
(-240,545,cs),
(-227,551,o),
(-222,565,o),
(-227,578,cs),
(-233,591,o),
(-247,596,o),
(-260,591,cs),
(-296,575,o),
(-329,591,o),
(-329,624,cs),
(-329,643,o),
(-318,658,o),
(-295,658,cs),
(-270,658,o),
(-259,642,o),
(-259,624,cs),
(-259,603,o),
(-262,572,o),
(-335,535,cs),
(-347,529,o),
(-353,514,o),
(-346,502,cs),
(-340,490,o),
(-325,484,o),
(-313,491,c)
);
}
);
width = 64;
}
);
unicode = 3263;
},
{
color = (255, 255, 153, 255);
glyphname = kn_ma_ii;
layers = (
{
layerId = "22F7FBB9-6A27-4F4A-9FDC-2CC606CA4AF4";
shapes = (
{
closed = 1;
nodes = (
(-7,615,o),
(16,664,o),
(16,711,cs),
(16,748,o),
(-11,821,o),
(-85,821,cs),
(-150,821,o),
(-195,759,o),
(-195,711,cs),
(-195,631,o),
(-103,575,o),
(-28,609,cs),
(-3,620,o),
(9,650,o),
(-3,676,cs),
(-14,701,o),
(-46,716,o),
(-70,701,cs),
(-75,698,o),
(-94,701,o),
(-95,710,cs),
(-96,713,o),
(-91,721,o),
(-87,720,cs),
(-83,719,o),
(-84,713,o),
(-84,711,cs),
(-84,704,o),
(-83,689,o),
(-132,665,cs),
(-157,653,o),
(-167,623,o),
(-155,598,cs),
(-143,573,o),
(-113,563,o),
(-88,575,cs)
);
},
{
closed = 1;
nodes = (
(213,357,o),
(345,422,o),
(345,521,cs),
(345,630,o),
(166,734,o),
(39,531,cs),
(-18,440,o),
(-33,311,o),
(-7,211,cs),
(29,76,o),
(85,0,o),
(231,-24,cs),
(258,-29,o),
(284,-10,o),
(288,17,cs),
(293,44,o),
(274,70,o),
(247,74,cs),
(151,90,o),
(118,128,o),
(89,237,cs),
(70,311,o),
(82,412,o),
(123,477,cs),
(193,588,o),
(245,535,o),
(245,521,cs),
(245,507,o),
(194,481,o),
(122,521,cs),
(98,534,o),
(67,525,o),
(54,501,cs),
(41,477,o),
(50,446,o),
(74,433,cs)
);
}
);
width = 318;
},
{
layerId = "625C7B41-5CAD-42BA-9A13-A89677FC7E21";
shapes = (
{
closed = 1;
nodes = (
(-25,634,o),
(-10,675,o),
(-10,711,cs),
(-10,747,o),
(-36,786,o),
(-85,786,cs),
(-134,786,o),
(-160,747,o),
(-160,711,cs),
(-160,653,o),
(-100,614,o),
(-39,642,cs),
(-26,648,o),
(-21,663,o),
(-26,675,cs),
(-32,688,o),
(-47,693,o),
(-59,688,cs),
(-85,676,o),
(-110,687,o),
(-110,711,cs),
(-110,712,o),
(-110,736,o),
(-85,736,cs),
(-60,736,o),
(-60,712,o),
(-60,711,cs),
(-60,697,o),
(-61,672,o),
(-121,642,cs),
(-133,636,o),
(-139,621,o),
(-132,609,cs),
(-126,597,o),
(-111,591,o),
(-99,598,c)
);
},
{
closed = 1;
nodes = (
(205,394,o),
(344,438,o),
(344,521,cs),
(344,607,o),
(153,697,o),
(40,517,cs),
(-13,433,o),
(-26,283,o),
(-3,216,cs),
(40,87,o),
(130,22,o),
(259,0,cs),
(273,-2,o),
(285,7,o),
(288,21,cs),
(290,35,o),
(281,48,o),
(267,50,cs),
(154,69,o),
(81,123,o),
(45,232,cs),
(27,285,o),
(37,420,o),
(82,491,cs),
(169,630,o),
(294,554,o),
(294,521,cs),
(294,486,o),
(201,453,o),
(110,503,cs),
(98,510,o),
(83,505,o),
(76,493,cs),
(69,481,o),
(74,466,o),
(86,459,cs)
);
}
);
width = 318;
}
);
unicode = 3264;
},
{
color = (255, 255, 153, 255);
glyphname = kn_ma_u;
layers = (
{
layerId = "22F7FBB9-6A27-4F4A-9FDC-2CC606CA4AF4";
shapes = (
{
closed = 1;
nodes = (
(-135,-18,o),
(412,-258,o),
(383,575,cs),
(382,602,o),
(359,624,o),
(331,623,cs),
(304,622,o),
(282,599,o),
(283,571,cs),
(307,-119,o),
(-46,110,o),
(-58,248,c),
(-61,275,o),
(-85,295,o),
(-113,293,c),
(-140,290,o),
(-161,266,o),
(-158,238,cs)
);
}
);
width = 390;
},
{
layerId = "625C7B41-5CAD-42BA-9A13-A89677FC7E21";
shapes = (
{
closed = 1;
nodes = (
(-126,-13,o),
(413,-262,o),
(385,595,c),
(385,609,o),
(373,619,o),
(359,619,cs),
(345,619,o),
(335,607,o),
(335,593,c),
(361,-194,o),
(-84,51,o),
(-107,241,cs),
(-109,255,o),
(-121,265,o),
(-135,263,cs),
(-149,261,o),
(-159,249,o),
(-157,235,cs)
);
}
);
width = 390;
}
);
unicode = 3265;
},
{
color = (255, 255, 153, 255);
glyphname = kn_ma_uu;
layers = (
{
layerId = "22F7FBB9-6A27-4F4A-9FDC-2CC606CA4AF4";
shapes = (
{
closed = 1;
nodes = (
(-104,-75,o),
(112,-49,o),
(232,197,cs),
(312,363,o),
(388,520,o),
(479,520,cs),
(584,520,o),
(582,302,o),
(582,301,cs),
(582,207,o),
(517,102,o),
(499,93,cs),
(474,80,o),
(464,50,o),
(476,26,cs),
(489,1,o),
(519,-9,o),
(543,3,cs),
(609,36,o),
(682,189,o),
(682,301,cs),
(682,477,o),
(616,620,o),
(479,620,cs),
(324,620,o),
(237,438,o),
(142,241,cs),
(103,160,o),
(-20,-10,o),
(-60,200,cs),
(-65,228,o),
(-91,245,o),
(-118,240,cs),
(-146,235,o),
(-164,209,o),
(-158,182,cs)
);
}
);
width = 691;
},
{
layerId = "625C7B41-5CAD-42BA-9A13-A89677FC7E21";
shapes = (
{
closed = 1;
nodes = (
(-126,-51,o),
(87,-63,o),
(190,148,cs),
(276,328,o),
(334,569,o),
(479,569,cs),
(606,569,o),
(635,391,o),
(635,301,cs),
(635,203,o),
(555,62,o),
(525,47,cs),
(512,41,o),
(508,26,o),
(514,14,cs),
(521,1,o),
(535,-3,o),
(547,3,cs),
(601,31,o),
(685,193,o),
(685,301,cs),
(685,433,o),
(636,619,o),
(479,619,cs),
(294,619,o),
(234,357,o),
(144,170,cs),
(66,9,o),
(-82,0,o),
(-109,204,cs),
(-111,218,o),
(-124,228,o),
(-137,226,cs),
(-151,224,o),
(-161,211,o),
(-159,198,cs)
);
}
);
width = 691;
}
);
unicode = 3266;
},
{
color = (255, 255, 153, 255);
glyphname = kn_ma_r;
layers = (
{
layerId = "22F7FBB9-6A27-4F4A-9FDC-2CC606CA4AF4";
shapes = (
{
closed = 1;
nodes = (
(3,-136,o),
(-24,14,o),
(-128,14,cs),
(-216,14,o),
(-249,-64,o),
(-259,-97,cs),
(-274,-150,o),
(-260,-296,o),
(-97,-296,cs),
(30,-296,o),
(158,-139,o),
(98,150,cs),
(92,177,o),
(66,195,o),
(39,189,cs),
(12,183,o),
(-7,157,o),
(0,130,cs),
(25,37,o),
(32,-196,o),
(-97,-196,cs),
(-159,-196,o),
(-171,-151,o),
(-163,-125,cs),
(-160,-116,o),
(-150,-88,o),
(-132,-86,c),
(-131,-87,o),
(-131,-89,o),
(-130,-91,c),
(-138,-96,o),
(-157,-122,o),
(-143,-151,cs),
(-131,-176,o),
(-101,-186,o),
(-76,-174,cs)
);
}
);
width = 82;
},
{
layerId = "625C7B41-5CAD-42BA-9A13-A89677FC7E21";
shapes = (
{
closed = 1;
nodes = (
(-30,-119,o),
(-72,-33,o),
(-128,-33,cs),
(-173,-33,o),
(-215,-77,o),
(-215,-121,cs),
(-215,-152,o),
(-204,-251,o),
(-97,-251,cs),
(1,-251,o),
(109,-128,o),
(53,145,cs),
(50,159,o),
(37,166,o),
(24,164,cs),
(10,161,o),
(2,148,o),
(5,135,cs),
(53,-98,o),
(-30,-201,o),
(-97,-201,cs),
(-156,-201,o),
(-165,-152,o),
(-165,-121,cs),
(-165,-103,o),
(-145,-83,o),
(-128,-83,cs),
(-122,-83,o),
(-100,-103,o),
(-130,-121,cs),
(-142,-128,o),
(-146,-143,o),
(-138,-155,cs),
(-131,-167,o),
(-116,-171,o),
(-104,-163,c)
);
}
);
width = 82;
}
);
unicode = 3267;
},
{
color = (255, 255, 153, 255);
glyphname = kn_ma_e;
layers = (
{
layerId = "22F7FBB9-6A27-4F4A-9FDC-2CC606CA4AF4";
shapes = (
{
closed = 1;
nodes = (
(-457,488,o),
(11,481,o),
(44,491,cs),
(54,494,o),
(164,505,o),
(164,619,cs),
(164,671,o),
(117,734,o),
(37,734,cs),
(-68,734,o),
(-124,542,o),
(17,496,cs),
(43,487,o),
(72,501,o),
(80,527,cs),
(91,559,o),
(73,579,o),
(47,591,cs),
(27,600,o),
(26,626,o),
(42,634,cs),
(54,640,o),
(64,623,o),
(64,618,cs),
(65,592,o),
(40,595,o),
(14,587,cs),
(10,586,o),
(-395,586,o),
(-476,589,cs),
(-504,590,o),
(-527,569,o),
(-528,541,cs),
(-529,513,o),
(-508,490,o),
(-480,489,cs)
);
}
);
width = 75;
},
{
layerId = "625C7B41-5CAD-42BA-9A13-A89677FC7E21";
shapes = (
{
closed = 1;
nodes = (
(-445,539,o),
(-11,533,o),
(16,541,cs),
(45,550,o),
(88,579,o),
(89,631,cs),
(90,666,o),
(68,707,o),
(18,709,cs),
(-57,711,o),
(-107,601,o),
(2,547,c),
(14,540,o),
(29,546,o),
(35,558,cs),
(42,570,o),
(36,585,o),
(24,591,cs),
(-36,621,o),
(-6,659,o),
(16,659,cs),
(39,659,o),
(39,637,o),
(39,633,cs),
(38,611,o),
(19,595,o),
(1,589,cs),
(-10,586,o),
(-415,587,o),
(-477,590,cs),
(-491,591,o),
(-502,580,o),
(-503,566,cs),
(-504,552,o),
(-493,541,o),
(-479,540,cs)
);
}
);
width = 75;
}
);
unicode = 3270;
},
{
color = (255, 255, 153, 255);
glyphname = kn_ma_ee;
layers = (
{
layerId = "22F7FBB9-6A27-4F4A-9FDC-2CC606CA4AF4";
shapes = (
{
closed = 1;
nodes = (
(-479,460,o),
(-11,453,o),
(22,463,cs),
(32,466,o),
(142,477,o),
(142,591,cs),
(142,643,o),
(95,706,o),
(15,706,cs),
(-90,706,o),
(-146,514,o),
(-5,468,cs),
(21,459,o),
(50,473,o),
(58,499,cs),
(69,531,o),
(51,551,o),
(25,563,cs),
(5,572,o),
(4,598,o),
(20,606,cs),
(32,612,o),
(42,595,o),
(42,590,c),
(43,564,o),
(18,567,o),
(-8,559,cs),
(-12,558,o),
(-417,558,o),
(-498,561,cs),
(-526,562,o),
(-549,541,o),
(-550,513,cs),
(-551,485,o),
(-530,462,o),
(-502,461,cs)
);
},
{
closed = 1;
nodes = (
(362,377,o),
(534,435,o),
(534,546,cs),
(534,663,o),
(311,774,o),
(173,557,cs),
(110,457,o),
(114,296,o),
(139,221,cs),
(185,86,o),
(301,19,o),
(410,1,cs),
(437,-4,o),
(462,14,o),
(467,42,cs),
(471,69,o),
(454,94,o),
(426,99,cs),
(353,111,o),
(265,157,o),
(233,253,cs),
(214,308,o),
(214,434,o),
(257,503,cs),
(337,629,o),
(434,570,o),
(434,546,cs),
(434,527,o),
(348,499,o),
(264,545,cs),
(240,558,o),
(209,549,o),
(196,525,cs),
(183,501,o),
(192,470,o),
(216,457,cs)
);
}
);
width = 375;
},
{
layerId = "625C7B41-5CAD-42BA-9A13-A89677FC7E21";
shapes = (
{
closed = 1;
nodes = (
(-445,534,o),
(-11,528,o),
(16,536,cs),
(45,545,o),
(88,574,o),
(89,626,cs),
(90,661,o),
(68,702,o),
(18,704,cs),
(-57,706,o),
(-107,596,o),
(2,542,c),
(14,535,o),
(29,541,o),
(35,553,cs),
(42,565,o),
(36,580,o),
(24,586,cs),
(-36,616,o),
(-6,654,o),
(16,654,cs),
(39,654,o),
(39,632,o),
(39,628,cs),
(38,606,o),
(19,590,o),
(1,584,cs),
(-10,581,o),
(-415,582,o),
(-477,585,cs),
(-491,586,o),
(-502,575,o),
(-503,561,cs),
(-504,547,o),
(-493,536,o),
(-479,535,cs)
);
},
{
closed = 1;
nodes = (
(318,436,o),
(469,484,o),
(469,573,cs),
(469,665,o),
(263,763,o),
(139,567,cs),
(82,476,o),
(68,311,o),
(92,239,cs),
(140,97,o),
(237,26,o),
(377,2,cs),
(391,0,o),
(403,9,o),
(406,23,cs),
(408,37,o),
(399,49,o),
(385,52,c),
(261,72,o),
(181,133,o),
(140,255,cs),
(121,313,o),
(131,462,o),
(181,541,cs),
(278,695,o),
(419,612,o),
(419,573,cs),
(419,532,o),
(314,495,o),
(212,551,cs),
(200,558,o),
(185,553,o),
(178,541,cs),
(171,529,o),
(176,514,o),
(188,507,cs)
);
}
);
width = 375;
}
);
unicode = 3271;
},
{
color = (255, 255, 153, 255);
glyphname = kn_ma_ai;
layers = (
{
layerId = "22F7FBB9-6A27-4F4A-9FDC-2CC606CA4AF4";
shapes = (
{
closed = 1;
nodes = (
(-459,530,o),
(9,523,o),
(42,533,cs),
(52,536,o),
(162,547,o),
(162,661,cs),
(162,713,o),
(115,776,o),
(35,776,cs),
(-70,776,o),
(-126,584,o),
(15,538,cs),
(41,529,o),
(70,543,o),
(78,569,cs),
(89,601,o),
(71,621,o),
(45,633,cs),
(25,642,o),
(24,668,o),
(40,676,cs),
(52,682,o),
(62,665,o),
(62,660,c),
(63,634,o),
(38,637,o),
(12,629,cs),
(8,628,o),
(-397,628,o),
(-478,631,cs),
(-506,632,o),
(-529,611,o),
(-530,583,cs),
(-531,555,o),
(-510,532,o),
(-482,531,cs)
);
},
{
closed = 1;
nodes = (
(5,44,o),
(37,100,o),
(37,127,cs),
(37,170,o),
(8,194,o),
(-25,194,cs),
(-56,194,o),
(-97,171,o),
(-97,101,cs),
(-97,57,o),
(-61,-60,o),
(74,-60,cs),
(205,-60,o),
(261,32,o),
(233,144,cs),
(217,208,o),
(152,303,o),
(84,303,cs),
(-5,303,o),
(-22,172,o),
(114,172,cs),
(215,172,o),
(331,310,o),
(193,486,cs),
(176,508,o),
(145,511,o),
(123,494,cs),
(101,477,o),
(99,446,o),
(115,424,cs),
(129,405,o),
(200,272,o),
(114,272,cs),
(102,272,o),
(97,274,o),
(97,274,c),
(78,204,l),
(90,199,o),
(125,161,o),
(135,120,cs),
(149,64,o),
(133,40,o),
(74,40,cs),
(17,40,o),
(3,85,o),
(3,101,cs),
(3,108,o),
(4,111,o),
(4,111,c),
(-63,127,l),
(-24,158,l),
(-51,166,o),
(-78,151,o),
(-87,125,c),
(-95,98,o),
(-80,71,o),
(-54,62,c)
);
}
);
width = 205;
},
{
layerId = "625C7B41-5CAD-42BA-9A13-A89677FC7E21";
shapes = (
{
closed = 1;
nodes = (
(-405,604,o),
(29,598,o),
(56,606,cs),
(85,615,o),
(128,644,o),
(129,696,cs),
(130,731,o),
(108,772,o),
(58,774,cs),
(-17,776,o),
(-67,666,o),
(42,612,c),
(54,605,o),
(69,611,o),
(75,623,cs),
(82,635,o),
(76,650,o),
(64,656,cs),
(4,686,o),
(34,724,o),
(56,724,cs),
(79,724,o),
(79,702,o),
(79,698,c),
(78,676,o),
(59,660,o),
(41,654,cs),
(30,651,o),
(-375,652,o),
(-437,655,cs),
(-451,656,o),
(-462,645,o),
(-463,631,cs),
(-464,617,o),
(-453,606,o),
(-439,605,cs)
);
},
{
closed = 1;
nodes = (
(-49,58,o),
(-28,94,o),
(-28,111,cs),
(-28,134,o),
(-40,153,o),
(-65,153,cs),
(-84,153,o),
(-112,139,o),
(-112,85,cs),
(-112,42,o),
(-57,-51,o),
(54,-51,cs),
(174,-51,o),
(211,72,o),
(188,162,cs),
(172,227,o),
(111,292,o),
(64,292,cs),
(7,292,o),
(-7,211,o),
(94,211,cs),
(175,211,o),
(277,346,o),
(154,504,cs),
(145,515,o),
(130,517,o),
(119,509,cs),
(108,500,o),
(106,485,o),
(114,474,cs),
(143,433,o),
(203,261,o),
(94,261,cs),
(74,261,o),
(66,265,o),
(65,266,c),
(64,242,l),
(77,242,o),
(126,205,o),
(140,150,cs),
(159,72,o),
(124,-1,o),
(54,-1,cs),
(-27,-1,o),
(-62,68,o),
(-62,85,cs),
(-62,99,o),
(-59,105,o),
(-59,106,c),
(-78,113,l),
(-72,118,l),
(-85,122,o),
(-99,115,o),
(-103,101,cs),
(-107,88,o),
(-100,74,o),
(-86,70,cs)
);
}
);
width = 205;
}
);
unicode = 3272;
},
{
color = (255, 255, 153, 255);
glyphname = kn_ma_o;
layers = (
{
layerId = "22F7FBB9-6A27-4F4A-9FDC-2CC606CA4AF4";
shapes = (
{
closed = 1;
nodes = (
(-458,530,o),
(10,523,o),
(43,533,cs),
(53,536,o),
(163,547,o),
(163,661,cs),
(163,713,o),
(116,776,o),
(36,776,cs),
(-69,776,o),
(-125,584,o),
(16,538,cs),
(42,529,o),
(71,543,o),
(79,569,cs),
(90,601,o),
(72,621,o),
(46,633,cs),
(26,642,o),
(25,668,o),
(41,676,cs),
(53,682,o),
(63,665,o),
(63,660,c),
(64,634,o),
(39,637,o),
(13,629,cs),
(9,628,o),
(-396,628,o),
(-477,631,cs),
(-505,632,o),
(-528,611,o),
(-529,583,cs),
(-530,555,o),
(-509,532,o),
(-481,531,cs)
);
},
{
closed = 1;
nodes = (
(-104,-75,o),
(112,-49,o),
(232,197,cs),
(312,363,o),
(388,520,o),
(479,520,cs),
(584,520,o),
(582,302,o),
(582,301,cs),
(582,207,o),
(517,102,o),
(499,93,cs),
(474,80,o),
(464,50,o),
(476,26,cs),
(489,1,o),
(519,-9,o),
(543,3,cs),
(609,36,o),
(682,189,o),
(682,301,cs),
(682,477,o),
(616,620,o),
(479,620,cs),
(324,620,o),
(237,438,o),
(142,241,cs),
(103,160,o),
(-20,-10,o),
(-60,200,cs),
(-65,228,o),
(-91,245,o),
(-118,240,cs),
(-146,235,o),
(-164,209,o),
(-158,182,cs)
);
}
);
width = 707;
},
{
layerId = "625C7B41-5CAD-42BA-9A13-A89677FC7E21";
shapes = (
{
closed = 1;
nodes = (
(-422,582,o),
(23,576,o),
(51,584,c),
(75,592,o),
(138,615,o),
(139,686,cs),
(139,726,o),
(110,774,o),
(51,775,cs),
(-33,776,o),
(-85,642,o),
(34,590,cs),
(50,583,o),
(69,591,o),
(76,607,cs),
(84,625,o),
(74,642,o),
(58,650,cs),
(10,673,o),
(31,708,o),
(51,710,cs),
(71,712,o),
(74,691,o),
(74,687,c),
(73,664,o),
(52,654,o),
(32,647,c),
(23,645,o),
(-382,645,o),
(-450,648,cs),
(-468,649,o),
(-483,635,o),
(-484,617,cs),
(-485,599,o),
(-471,584,o),
(-452,583,cs)
);
},
{
closed = 1;
nodes = (
(-126,-51,o),
(87,-63,o),
(190,148,cs),
(276,328,o),
(334,569,o),
(479,569,cs),
(606,569,o),
(635,391,o),
(635,301,cs),
(635,203,o),
(555,62,o),
(525,47,cs),
(512,41,o),
(508,26,o),
(514,14,cs),
(521,1,o),
(535,-3,o),
(547,3,cs),
(601,31,o),
(685,193,o),
(685,301,cs),
(685,433,o),
(636,619,o),
(479,619,cs),
(294,619,o),
(234,357,o),
(144,170,cs),
(66,9,o),
(-82,0,o),
(-109,204,cs),
(-111,218,o),
(-124,228,o),
(-137,226,cs),
(-151,224,o),
(-161,211,o),
(-159,198,cs)
);
}
);
width = 707;
}
);
unicode = 3274;
},
{
color = (255, 255, 153, 255);
glyphname = kn_ma_oo;
layers = (
{
layerId = "22F7FBB9-6A27-4F4A-9FDC-2CC606CA4AF4";
shapes = (
{
closed = 1;
nodes = (
(-458,530,o),
(10,523,o),
(43,533,cs),
(53,536,o),
(163,547,o),
(163,661,cs),
(163,713,o),
(116,776,o),
(36,776,cs),
(-69,776,o),
(-125,584,o),
(16,538,cs),
(42,529,o),
(71,543,o),
(79,569,cs),
(90,601,o),
(72,621,o),
(46,633,cs),
(26,642,o),
(25,668,o),
(41,676,cs),
(53,682,o),
(63,665,o),
(63,660,c),
(64,634,o),
(39,637,o),
(13,629,cs),
(9,628,o),
(-396,628,o),
(-477,631,cs),
(-505,632,o),
(-528,611,o),
(-529,583,cs),
(-530,555,o),
(-509,532,o),
(-481,531,cs)
);
},
{
closed = 1;
nodes = (
(-104,-75,o),
(112,-49,o),
(232,197,cs),
(312,363,o),
(388,520,o),
(479,520,cs),
(584,520,o),
(582,302,o),
(582,301,cs),
(582,207,o),
(517,102,o),
(499,93,cs),
(474,80,o),
(464,50,o),
(476,26,cs),
(489,1,o),
(519,-9,o),
(543,3,cs),
(609,36,o),
(682,189,o),
(682,301,cs),
(682,477,o),
(616,620,o),
(479,620,cs),
(324,620,o),
(237,438,o),
(142,241,cs),
(103,160,o),
(-20,-10,o),
(-60,200,cs),
(-65,228,o),
(-91,245,o),
(-118,240,cs),
(-146,235,o),
(-164,209,o),
(-158,182,cs)
);
},
{
closed = 1;
nodes = (
(962,377,o),
(1134,435,o),
(1134,546,cs),
(1134,663,o),
(911,774,o),
(773,557,cs),
(710,457,o),
(714,296,o),
(739,221,cs),
(785,86,o),
(901,19,o),
(1010,1,cs),
(1037,-4,o),
(1062,14,o),
(1067,42,cs),
(1071,69,o),
(1054,94,o),
(1026,99,cs),
(953,111,o),
(866,157,o),
(833,253,cs),
(815,308,o),
(814,434,o),
(857,503,cs),
(937,629,o),
(1034,570,o),
(1034,546,cs),
(1034,527,o),
(948,499,o),
(864,545,cs),
(840,558,o),
(809,549,o),
(796,525,cs),
(783,501,o),
(792,470,o),
(816,457,cs)
);
}
);
width = 1162;
},
{
layerId = "625C7B41-5CAD-42BA-9A13-A89677FC7E21";
shapes = (
{
closed = 1;
nodes = (
(-422,582,o),
(23,576,o),
(51,584,c),
(75,592,o),
(138,615,o),
(139,686,cs),
(139,726,o),
(110,774,o),
(51,775,cs),
(-33,776,o),
(-85,642,o),
(34,590,cs),
(50,583,o),
(69,591,o),
(76,607,cs),
(84,625,o),
(74,642,o),
(58,650,cs),
(10,673,o),
(31,708,o),
(51,710,cs),
(71,712,o),
(74,691,o),
(74,687,c),
(73,664,o),
(52,654,o),
(32,647,c),
(23,645,o),
(-382,645,o),
(-450,648,cs),
(-468,649,o),
(-483,635,o),
(-484,617,cs),
(-485,599,o),
(-471,584,o),
(-452,583,cs)
);
},
{
closed = 1;
nodes = (
(-126,-51,o),
(87,-63,o),
(190,148,cs),
(276,328,o),
(334,569,o),
(479,569,cs),
(606,569,o),
(635,391,o),
(635,301,cs),
(635,203,o),
(555,62,o),
(525,47,cs),
(512,41,o),
(508,26,o),
(514,14,cs),
(521,1,o),
(535,-3,o),
(547,3,cs),
(601,31,o),
(685,193,o),
(685,301,cs),
(685,433,o),
(636,619,o),
(479,619,cs),
(294,619,o),
(234,357,o),
(144,170,cs),
(66,9,o),
(-82,0,o),
(-109,204,cs),
(-111,218,o),
(-124,228,o),
(-137,226,cs),
(-151,224,o),
(-161,211,o),
(-159,198,cs)
);
},
{
closed = 1;
nodes = (
(988,436,o),
(1139,484,o),
(1139,573,cs),
(1139,665,o),
(933,763,o),
(809,567,cs),
(752,476,o),
(738,311,o),
(762,239,cs),
(810,97,o),
(907,26,o),
(1047,2,cs),
(1061,0,o),
(1073,9,o),
(1076,23,cs),
(1078,37,o),
(1069,49,o),
(1055,52,c),
(931,72,o),
(851,133,o),
(810,255,cs),
(791,313,o),
(801,462,o),
(851,541,cs),
(948,695,o),
(1089,612,o),
(1089,573,cs),
(1089,532,o),
(984,495,o),
(882,551,cs),
(870,558,o),
(855,553,o),
(848,541,cs),
(841,529,o),
(846,514,o),
(858,507,cs)
);
}
);
width = 1162;
}
);
unicode = 3275;
},
{
color = (255, 255, 153, 255);
glyphname = kn_ma_au;
layers = (
{
layerId = "22F7FBB9-6A27-4F4A-9FDC-2CC606CA4AF4";
shapes = (
{
closed = 1;
nodes = (
(-254,532,o),
(56,513,o),
(72,646,c),
(82,745,o),
(-18,812,o),
(-82,812,cs),
(-203,812,o),
(-215,698,o),
(-79,698,cs),
(-11,698,o),
(104,709,o),
(132,703,c),
(178,676,o),
(255,483,o),
(143,436,cs),
(117,425,o),
(105,396,o),
(116,371,cs),
(127,345,o),
(156,332,o),
(181,344,cs),
(373,435,o),
(287,738,o),
(175,793,cs),
(129,816,o),
(20,798,o),
(-79,798,cs),
(-99,798,o),
(-108,799,o),
(-111,799,c),
(-106,710,l),
(-103,710,o),
(-93,712,o),
(-82,712,cs),
(-70,712,o),
(-29,690,o),
(-28,662,c),
(-60,639,o),
(-188,626,o),
(-329,641,cs),
(-356,644,o),
(-381,624,o),
(-384,596,cs),
(-387,569,o),
(-367,544,o),
(-339,541,c)
);
}
);
width = 271;
},
{
layerId = "625C7B41-5CAD-42BA-9A13-A89677FC7E21";
shapes = (
{
closed = 1;
nodes = (
(-345,590,o),
(25,550,o),
(39,672,cs),
(49,760,o),
(-45,811,o),
(-90,811,cs),
(-177,811,o),
(-192,747,o),
(-87,747,cs),
(-17,747,o),
(113,760,o),
(134,750,cs),
(196,719,o),
(282,495,o),
(144,437,cs),
(132,432,o),
(126,417,o),
(131,404,cs),
(136,392,o),
(151,386,o),
(164,391,c),
(335,472,o),
(251,747,o),
(156,794,cs),
(118,813,o),
(5,797,o),
(-87,797,cs),
(-110,797,o),
(-121,798,o),
(-124,799,c),
(-122,757,l),
(-120,758,o),
(-106,761,o),
(-90,761,cs),
(-62,761,o),
(-6,724,o),
(-11,678,cs),
(-14,650,o),
(-149,620,o),
(-339,640,cs),
(-353,641,o),
(-365,631,o),
(-367,618,c),
(-368,604,o),
(-358,592,o),
(-345,590,c)
);
}
);
width = 271;
}
);
unicode = 3276;
},
{
color = (255, 255, 153, 255);
glyphname = kn_virama;
layers = (
{
layerId = "22F7FBB9-6A27-4F4A-9FDC-2CC606CA4AF4";
shapes = (
{
closed = 1;
nodes = (
(-503,541,ls),
(-271,562,o),
(-95,557,o),
(5,557,c),
(30,598,l),
(21,612,o),
(14,695,o),
(84,760,cs),
(102,776,o),
(103,802,o),
(87,819,cs),
(71,837,o),
(45,838,o),
(27,822,cs),
(-98,707,o),
(-76,521,o),
(12,521,cs),
(103,521,o),
(89,642,o),
(5,642,cs),
(-105,642,o),
(-283,642,o),
(-521,624,cs),
(-544,622,o),
(-561,602,o),
(-560,579,cs),
(-558,555,o),
(-538,538,o),
(-514,540,cs)
);
}
);
width = 220;
},
{
layerId = "625C7B41-5CAD-42BA-9A13-A89677FC7E21";
shapes = (
{
closed = 1;
nodes = (
(-515,582,ls),
(-286,599,o),
(-126,595,o),
(-19,595,c),
(-14,603,l),
(-26,615,o),
(-26,714,o),
(60,793,cs),
(69,801,o),
(69,814,o),
(61,823,cs),
(54,831,o),
(40,832,o),
(32,824,cs),
(-81,721,o),
(-84,562,o),
(-18,562,cs),
(45,562,o),
(30,641,o),
(-26,641,cs),
(-135,641,o),
(-292,641,o),
(-529,623,cs),
(-541,622,o),
(-550,612,o),
(-549,600,cs),
(-549,589,o),
(-538,580,o),
(-526,581,cs)
);
}
);
width = 220;
}
);
unicode = 3277;
},
{
color = (255, 255, 153, 255);
glyphname = kn_dherge_e;
layers = (
{
layerId = "22F7FBB9-6A27-4F4A-9FDC-2CC606CA4AF4";
shapes = (
{
closed = 1;
nodes = (
(252,377,o),
(424,435,o),
(424,546,cs),
(424,663,o),
(201,774,o),
(63,557,cs),
(0,457,o),
(4,296,o),
(29,221,cs),
(75,86,o),
(191,19,o),
(300,1,cs),
(327,-4,o),
(352,14,o),
(357,42,cs),
(361,69,o),
(344,94,o),
(316,99,cs),
(243,111,o),
(156,157,o),
(123,253,cs),
(105,308,o),
(104,434,o),
(147,503,cs),
(227,629,o),
(324,570,o),
(324,546,cs),
(324,527,o),
(238,499,o),
(154,545,cs),
(130,558,o),
(99,549,o),
(86,525,cs),
(73,501,o),
(82,470,o),
(106,457,cs)
);
}
);
width = 449;
},
{
layerId = "625C7B41-5CAD-42BA-9A13-A89677FC7E21";
shapes = (
{
closed = 1;
nodes = (
(248,436,o),
(399,484,o),
(399,573,cs),
(399,665,o),
(193,763,o),
(69,567,cs),
(12,476,o),
(-2,311,o),
(22,239,cs),
(70,97,o),
(167,26,o),
(307,2,cs),
(321,0,o),
(333,9,o),
(336,23,cs),
(338,37,o),
(329,49,o),
(315,52,c),
(191,72,o),
(111,133,o),
(70,255,cs),
(51,313,o),
(61,462,o),
(111,541,cs),
(208,695,o),
(349,612,o),
(349,573,cs),
(349,532,o),
(244,495,o),
(142,551,cs),
(130,558,o),
(115,553,o),
(108,541,cs),
(101,529,o),
(106,514,o),
(118,507,cs)
);
}
);
width = 449;
}
);
unicode = 3285;
},
{
color = (255, 255, 153, 255);
glyphname = kn_dherge_ai;
layers = (
{
layerId = "22F7FBB9-6A27-4F4A-9FDC-2CC606CA4AF4";
shapes = (
{
closed = 1;
nodes = (
(-135,-186,o),
(-103,-130,o),
(-103,-103,cs),
(-103,-60,o),
(-132,-36,o),
(-165,-36,cs),
(-196,-36,o),
(-237,-59,o),
(-237,-129,cs),
(-237,-173,o),
(-201,-290,o),
(-66,-290,cs),
(65,-290,o),
(121,-198,o),
(93,-86,cs),
(77,-22,o),
(12,73,o),
(-56,73,cs),
(-145,73,o),
(-162,-58,o),
(-26,-58,cs),
(75,-58,o),
(191,80,o),
(53,256,cs),
(36,278,o),
(5,281,o),
(-17,264,cs),
(-39,247,o),
(-41,216,o),
(-25,194,cs),
(-11,175,o),
(60,42,o),
(-26,42,cs),
(-38,42,o),
(-43,44,o),
(-43,44,c),
(-62,-26,l),
(-50,-31,o),
(-15,-69,o),
(-5,-110,cs),
(9,-166,o),
(-7,-190,o),
(-66,-190,cs),
(-123,-190,o),
(-137,-145,o),
(-137,-129,cs),
(-137,-122,o),
(-136,-119,o),
(-136,-119,c),
(-203,-103,l),
(-164,-72,l),
(-191,-64,o),
(-218,-79,o),
(-227,-105,c),
(-235,-132,o),
(-220,-159,o),
(-194,-168,c)
);
}
);
width = 115;
},
{
layerId = "625C7B41-5CAD-42BA-9A13-A89677FC7E21";
shapes = (
{
closed = 1;
nodes = (
(-149,-182,o),
(-128,-146,o),
(-128,-129,cs),
(-128,-106,o),
(-140,-87,o),
(-165,-87,cs),
(-184,-87,o),
(-212,-101,o),
(-212,-155,cs),
(-212,-198,o),
(-157,-291,o),
(-46,-291,cs),
(74,-291,o),
(111,-168,o),
(88,-78,cs),
(72,-13,o),
(11,52,o),
(-36,52,cs),
(-93,52,o),
(-107,-29,o),
(-6,-29,cs),
(75,-29,o),
(177,106,o),
(54,264,cs),
(45,275,o),
(30,277,o),
(19,269,cs),
(8,260,o),
(6,245,o),
(14,234,cs),
(43,193,o),
(103,21,o),
(-6,21,cs),
(-26,21,o),
(-34,25,o),
(-35,26,c),
(-36,2,l),
(-23,2,o),
(26,-35,o),
(40,-90,cs),
(59,-168,o),
(24,-241,o),
(-46,-241,cs),
(-127,-241,o),
(-162,-172,o),
(-162,-155,cs),
(-162,-141,o),
(-159,-135,o),
(-159,-134,c),
(-178,-127,l),
(-172,-122,l),
(-185,-118,o),
(-199,-125,o),
(-203,-139,cs),
(-207,-152,o),
(-200,-166,o),
(-186,-170,cs)
);
}
);
width = 115;
}
);
unicode = 3286;
},
{
color = (255, 255, 153, 255);
glyphname = kn_rr_ext;
layers = (
{
layerId = "22F7FBB9-6A27-4F4A-9FDC-2CC606CA4AF4";
shapes = (
{
closed = 1;
nodes = (
(845,-35,o),
(1023,-42,o),
(1082,32,cs),
(1167,140,o),
(1097,448,o),
(1156,448,cs),
(1257,448,o),
(1275,271,o),
(1267,149,cs),
(1266,135,o),
(1266,85,o),
(1258,83,cs),
(1247,80,o),
(1247,114,o),
(1238,114,cs),
(1210,114,o),
(1188,92,o),
(1188,64,cs),
(1188,48,o),
(1191,34,o),
(1196,22,cs),
(1226,-50,o),
(1335,-46,o),
(1351,56,cs),
(1378,225,o),
(1378,548,o),
(1156,548,cs),
(953,548,o),
(1071,180,o),
(1004,94,cs),
(994,81,o),
(903,72,o),
(865,149,c),
(852,173,o),
(822,183,o),
(797,171,c),
(773,158,o),
(763,128,o),
(775,103,cs)
);
},
{
closed = 1;
nodes = (
(687,468,o),
(860,462,o),
(1061,612,cs),
(1087,632,o),
(1097,653,o),
(1081,685,cs),
(1069,709,o),
(1033,715,o),
(1015,702,cs),
(825,558,o),
(678,569,o),
(631,587,cs),
(618,592,o),
(579,581,o),
(575,542,cs),
(572,515,o),
(587,496,o),
(618,487,cs)
);
},
{
closed = 1;
nodes = (
(226,470,l),
(218,468,o),
(199,499,o),
(204,509,cs),
(211,523,o),
(226,525,o),
(254,519,cs),
(276,515,o),
(395,492,o),
(403,363,cs),
(409,262,o),
(400,97,o),
(235,102,cs),
(151,104,o),
(122,125,o),
(122,132,cs),
(122,136,o),
(154,170,o),
(238,170,cs),
(377,170,o),
(519,55,o),
(578,24,c),
(635,-8,o),
(726,-7,o),
(777,27,cs),
(825,59,o),
(893,143,o),
(893,258,cs),
(893,361,o),
(831,577,o),
(679,577,cs),
(630,577,o),
(610,564,o),
(610,527,cs),
(610,498,o),
(633,479,o),
(666,479,cs),
(757,479,o),
(787,333,o),
(794,273,cs),
(801,213,o),
(767,164,o),
(740,130,cs),
(709,91,o),
(652,97,o),
(611,123,cs),
(487,201,o),
(380,270,o),
(225,270,cs),
(77,270,o),
(20,177,o),
(20,141,cs),
(20,57,o),
(98,0,o),
(240,2,cs),
(467,4,o),
(508,193,o),
(505,353,cs),
(501,567,o),
(307,612,o),
(264,619,cs),
(182,632,o),
(93,592,o),
(105,489,cs),
(119,360,o),
(290,326,o),
(307,416,cs),
(314,454,o),
(297,475,o),
(273,482,cs),
(258,486,o),
(231,482,o),
(226,469,c)
);
}
);
width = 1414;
},
{
layerId = "625C7B41-5CAD-42BA-9A13-A89677FC7E21";
shapes = (
{
closed = 1;
nodes = (
(861,-26,o),
(1016,-35,o),
(1063,23,c),
(1146,130,o),
(1073,498,o),
(1176,498,cs),
(1318,498,o),
(1322,193,o),
(1297,43,cs),
(1295,28,o),
(1295,22,o),
(1288,23,cs),
(1285,23,o),
(1283,28,o),
(1283,39,cs),
(1283,53,o),
(1272,64,o),
(1258,64,cs),
(1244,64,o),
(1233,53,o),
(1233,39,cs),
(1233,-42,o),
(1333,-53,o),
(1347,35,cs),
(1372,191,o),
(1375,548,o),
(1176,548,cs),
(1004,548,o),
(1101,153,o),
(1023,55,c),
(1001,26,o),
(889,22,o),
(842,113,c),
(836,126,o),
(821,131,o),
(809,124,c),
(796,118,o),
(791,103,o),
(798,91,c)
);
},
{
closed = 1;
nodes = (
(683,515,o),
(855,512,o),
(1055,664,cs),
(1066,672,o),
(1068,688,o),
(1060,699,cs),
(1052,710,o),
(1036,712,o),
(1025,704,cs),
(835,560,o),
(681,569,o),
(634,587,cs),
(621,592,o),
(607,586,o),
(602,573,cs),
(597,560,o),
(603,546,o),
(616,541,cs)
);
},
{
closed = 1;
nodes = (
(234,490,l),
(228,483,o),
(179,481,o),
(179,531,cs),
(179,572,o),
(223,575,o),
(254,569,cs),
(276,564,o),
(420,542,o),
(420,363,cs),
(420,260,o),
(416,52,o),
(238,52,cs),
(120,52,o),
(95,92,o),
(95,111,cs),
(95,115,o),
(119,170,o),
(238,170,cs),
(377,170,o),
(524,57,o),
(583,26,c),
(640,-6,o),
(726,-7,o),
(777,27,cs),
(825,59,o),
(893,143,o),
(893,258,cs),
(893,361,o),
(831,577,o),
(679,577,cs),
(665,577,o),
(654,566,o),
(654,552,cs),
(654,538,o),
(665,527,o),
(679,527,cs),
(779,527,o),
(843,365,o),
(843,258,cs),
(843,163,o),
(785,93,o),
(749,69,cs),
(716,47,o),
(650,47,o),
(607,70,cs),
(545,104,o),
(393,220,o),
(238,220,cs),
(95,220,o),
(45,147,o),
(45,111,cs),
(45,102,o),
(45,2,o),
(238,2,cs),
(472,2,o),
(470,287,o),
(470,363,cs),
(470,584,o),
(284,615,o),
(264,619,cs),
(207,630,o),
(129,612,o),
(129,531,cs),
(129,415,o),
(284,412,o),
(284,489,cs),
(284,503,o),
(273,514,o),
(259,514,cs),
(245,514,o),
(234,503,o),
(234,489,c)
);
}
);
width = 1414;
}
);
unicode = 3296;
},
{
color = (255, 255, 153, 255);
glyphname = kn_0;
layers = (
{
layerId = "22F7FBB9-6A27-4F4A-9FDC-2CC606CA4AF4";
shapes = (
{
closed = 1;
nodes = (
(156,559,o),
(50,449,o),
(50,290,cs),
(50,156,o),
(150,-1,o),
(335,-1,cs),
(508,-1,o),
(656,141,o),
(656,290,cs),
(656,404,o),
(574,555,o),
(379,578,cs),
(352,581,o),
(326,567,o),
(319,540,cs),
(313,513,o),
(330,482,o),
(357,480,cs),
(486,472,o),
(556,382,o),
(556,290,cs),
(556,203,o),
(460,99,o),
(335,99,cs),
(218,99,o),
(150,198,o),
(150,290,cs),
(150,391,o),
(210,463,o),
(338,470,cs),
(366,472,o),
(387,495,o),
(385,523,cs),
(383,551,o),
(360,572,o),
(332,570,cs)
);
}
);
width = 706;
},
{
layerId = "625C7B41-5CAD-42BA-9A13-A89677FC7E21";
shapes = (
{
closed = 1;
nodes = (
(157,571,o),
(50,428,o),
(50,286,cs),
(50,143,o),
(157,0,o),
(336,0,cs),
(511,0,o),
(655,139,o),
(655,286,cs),
(655,414,o),
(563,564,o),
(367,580,cs),
(353,581,o),
(339,573,o),
(337,560,cs),
(334,546,o),
(344,531,o),
(357,530,cs),
(519,520,o),
(605,404,o),
(605,286,cs),
(605,171,o),
(487,50,o),
(336,50,cs),
(189,50,o),
(100,167,o),
(100,286,cs),
(100,404,o),
(189,521,o),
(336,521,cs),
(350,521,o),
(361,532,o),
(361,546,cs),
(361,560,o),
(350,571,o),
(336,571,cs)
);
}
);
width = 705;
}
);
unicode = 3302;
},
{
color = (255, 255, 153, 255);
glyphname = kn_1;
layers = (
{
layerId = "22F7FBB9-6A27-4F4A-9FDC-2CC606CA4AF4";
shapes = (
{
closed = 1;
nodes = (
(146,129,o),
(144,172,o),
(160,266,cs),
(178,375,o),
(271,522,o),
(412,522,cs),
(439,522,o),
(548,524,o),
(548,290,cs),
(548,232,o),
(530,145,o),
(469,86,cs),
(449,67,o),
(449,35,o),
(468,15,cs),
(487,-5,o),
(519,-5,o),
(539,14,cs),
(626,99,o),
(648,218,o),
(648,290,cs),
(648,538,o),
(534,622,o),
(412,622,cs),
(195,622,o),
(83,407,o),
(62,282,cs),
(45,180,o),
(44,115,o),
(78,31,cs),
(88,6,o),
(117,-7,o),
(143,4,cs),
(168,14,o),
(181,43,o),
(170,69,cs)
);
}
);
width = 698;
},
{
layerId = "625C7B41-5CAD-42BA-9A13-A89677FC7E21";
shapes = (
{
closed = 1;
nodes = (
(105,71,o),
(92,167,o),
(108,265,cs),
(127,379,o),
(218,570,o),
(411,570,cs),
(587,570,o),
(598,378,o),
(598,285,cs),
(598,224,o),
(567,104,o),
(493,45,cs),
(482,37,o),
(480,20,o),
(489,9,cs),
(497,-1,o),
(514,-3,o),
(525,5,cs),
(615,77,o),
(648,216,o),
(648,285,cs),
(648,350,o),
(648,620,o),
(411,620,cs),
(178,620,o),
(78,393,o),
(58,273,cs),
(41,175,o),
(50,55,o),
(98,7,cs),
(108,-3,o),
(124,-3,o),
(134,7,cs),
(144,17,o),
(143,33,o),
(134,43,c)
);
}
);
width = 698;
}
);
unicode = 3303;
},
{
color = (255, 255, 153, 255);
glyphname = kn_2;
layers = (
{
layerId = "22F7FBB9-6A27-4F4A-9FDC-2CC606CA4AF4";
shapes = (
{
closed = 1;
nodes = (
(857,382,o),
(845,345,o),
(782,353,cs),
(755,356,o),
(732,380,o),
(732,429,cs),
(732,474,o),
(757,520,o),
(823,520,cs),
(896,520,o),
(977,468,o),
(977,319,cs),
(977,162,o),
(882,83,o),
(787,104,cs),
(650,135,o),
(259,201,o),
(87,150,cs),
(60,142,o),
(45,114,o),
(53,88,cs),
(61,61,o),
(89,46,o),
(115,54,cs),
(257,97,o),
(620,38,o),
(765,6,cs),
(952,-36,o),
(1077,130,o),
(1077,319,cs),
(1077,516,o),
(958,620,o),
(823,620,cs),
(683,620,o),
(632,510,o),
(632,429,cs),
(632,352,o),
(673,266,o),
(770,253,cs),
(850,243,o),
(931,276,o),
(957,369,cs),
(964,395,o),
(949,422,o),
(922,430,cs),
(896,437,o),
(868,422,o),
(861,395,cs)
);
}
);
width = 1127;
},
{
layerId = "625C7B41-5CAD-42BA-9A13-A89677FC7E21";
shapes = (
{
closed = 1;
nodes = (
(843,371,o),
(810,346,o),
(754,353,cs),
(709,359,o),
(682,398,o),
(682,454,cs),
(682,508,o),
(713,570,o),
(798,570,cs),
(886,570,o),
(977,505,o),
(977,344,cs),
(977,187,o),
(879,26,o),
(756,54,cs),
(617,85,o),
(233,150,o),
(69,101,cs),
(56,97,o),
(48,83,o),
(52,70,cs),
(56,57,o),
(70,49,o),
(83,53,cs),
(233,98,o),
(603,38,o),
(746,6,cs),
(904,-29,o),
(1027,155,o),
(1027,344,cs),
(1027,529,o),
(918,620,o),
(798,620,cs),
(677,620,o),
(632,526,o),
(632,454,cs),
(632,384,o),
(669,313,o),
(748,303,cs),
(830,292,o),
(881,335,o),
(914,395,cs),
(921,407,o),
(916,422,o),
(904,429,cs),
(892,436,o),
(877,431,o),
(870,419,cs)
);
}
);
width = 1077;
}
);
unicode = 3304;
},
{
color = (255, 255, 153, 255);
glyphname = kn_3;
layers = (
{
layerId = "22F7FBB9-6A27-4F4A-9FDC-2CC606CA4AF4";
shapes = (
{
closed = 1;
nodes = (
(276,486,o),
(274,494,o),
(274,498,cs),
(274,506,o),
(294,525,o),
(318,519,cs),
(355,511,o),
(410,449,o),
(404,331,cs),
(398,207,o),
(278,143,o),
(213,117,cs),
(200,112,o),
(147,93,o),
(155,106,cs),
(170,131,o),
(196,147,o),
(246,147,cs),
(306,147,o),
(346,25,o),
(384,-39,cs),
(427,-111,o),
(495,-175,o),
(552,-175,cs),
(580,-175,o),
(602,-153,o),
(602,-125,cs),
(602,-97,o),
(580,-77,o),
(552,-75,cs),
(543,-75,o),
(506,-48,o),
(470,13,cs),
(428,82,o),
(379,247,o),
(246,247,cs),
(154,247,o),
(110,201,o),
(85,176,cs),
(17,108,o),
(37,-61,o),
(251,25,cs),
(382,78,o),
(497,176,o),
(504,327,cs),
(512,481,o),
(435,596,o),
(340,617,cs),
(261,634,o),
(174,578,o),
(174,498,cs),
(174,427,o),
(241,364,o),
(320,396,cs),
(345,406,o),
(358,435,o),
(347,461,cs),
(337,486,o),
(308,499,o),
(282,488,cs)
);
}
);
width = 652;
},
{
layerId = "625C7B41-5CAD-42BA-9A13-A89677FC7E21";
shapes = (
{
closed = 1;
nodes = (
(247,482,o),
(225,496,o),
(225,523,cs),
(225,546,o),
(258,578,o),
(300,569,cs),
(347,558,o),
(426,474,o),
(413,343,cs),
(401,214,o),
(314,117,o),
(199,70,cs),
(62,15,o),
(105,90,o),
(114,99,cs),
(135,121,o),
(162,148,o),
(222,148,cs),
(301,148,o),
(341,18,o),
(382,-50,cs),
(424,-120,o),
(485,-174,o),
(528,-174,cs),
(542,-174,o),
(553,-163,o),
(553,-149,cs),
(553,-135,o),
(542,-124,o),
(528,-124,cs),
(515,-124,o),
(466,-94,o),
(424,-24,cs),
(382,46,o),
(337,198,o),
(222,198,cs),
(141,198,o),
(102,159,o),
(78,135,cs),
(29,86,o),
(29,-52,o),
(217,24,cs),
(348,77,o),
(448,188,o),
(463,339,cs),
(477,488,o),
(389,600,o),
(310,617,cs),
(244,632,o),
(175,584,o),
(175,523,cs),
(175,466,o),
(227,420,o),
(286,444,cs),
(299,449,o),
(305,463,o),
(300,476,cs),
(295,489,o),
(281,495,o),
(268,490,cs)
);
}
);
width = 603;
}
);
unicode = 3305;
},
{
color = (255, 255, 153, 255);
glyphname = kn_4;
layers = (
{
layerId = "22F7FBB9-6A27-4F4A-9FDC-2CC606CA4AF4";
shapes = (
{
closed = 1;
nodes = (
(302,420,o),
(427,550,o),
(296,609,cs),
(253,628,o),
(203,621,o),
(167,602,cs),
(23,525,o),
(63,386,o),
(82,332,cs),
(122,222,o),
(158,213,o),
(198,158,cs),
(201,154,o),
(210,139,o),
(202,124,cs),
(193,106,o),
(184,100,o),
(166,100,cs),
(151,100,o),
(147,112,o),
(156,123,cs),
(222,209,o),
(481,305,o),
(528,563,cs),
(533,590,o),
(515,616,o),
(488,621,cs),
(461,626,o),
(435,608,o),
(430,581,cs),
(391,368,o),
(159,290,o),
(76,184,cs),
(14,102,o),
(74,0,o),
(166,0,cs),
(243,0,o),
(277,50,o),
(292,80,cs),
(312,122,o),
(306,182,o),
(276,220,cs),
(228,281,o),
(208,278,o),
(176,366,cs),
(141,463,o),
(173,504,o),
(215,514,cs),
(234,519,o),
(249,523,o),
(253,515,cs),
(258,506,o),
(240,497,o),
(222,493,cs),
(214,491,o),
(197,480,o),
(198,457,cs),
(199,443,o),
(200,421,o),
(227,421,cs)
);
}
);
width = 579;
},
{
layerId = "625C7B41-5CAD-42BA-9A13-A89677FC7E21";
shapes = (
{
closed = 1;
nodes = (
(303,501,o),
(318,564,o),
(280,602,cs),
(248,633,o),
(182,618,o),
(154,604,cs),
(120,586,o),
(13,500,o),
(67,350,cs),
(105,246,o),
(159,231,o),
(194,173,cs),
(216,137,o),
(213,113,o),
(206,98,cs),
(197,81,o),
(177,50,o),
(141,50,cs),
(112,50,o),
(85,100,o),
(111,134,cs),
(183,226,o),
(434,344,o),
(479,591,cs),
(481,604,o),
(472,617,o),
(458,620,cs),
(445,622,o),
(432,613,o),
(429,599,cs),
(388,374,o),
(148,264,o),
(71,164,cs),
(20,99,o),
(70,0,o),
(141,0,cs),
(194,0,o),
(232,37,o),
(251,76,cs),
(268,110,o),
(264,152,o),
(236,199,cs),
(196,265,o),
(148,274,o),
(115,368,cs),
(69,494,o),
(169,556,o),
(177,560,cs),
(200,572,o),
(237,573,o),
(244,566,cs),
(258,553,o),
(247,538,o),
(222,532,cs),
(209,529,o),
(200,516,o),
(204,502,cs),
(207,489,o),
(220,480,o),
(234,484,cs)
);
}
);
width = 529;
}
);
unicode = 3306;
},
{
color = (255, 255, 153, 255);
glyphname = kn_5;
layers = (
{
layerId = "22F7FBB9-6A27-4F4A-9FDC-2CC606CA4AF4";
shapes = (
{
closed = 1;
nodes = (
(558,-80,o),
(762,-33,o),
(762,150,cs),
(762,281,o),
(694,283,o),
(647,470,cs),
(635,515,o),
(639,575,o),
(702,570,cs),
(737,567,o),
(738,547,o),
(738,537,cs),
(738,489,o),
(730,489,o),
(624,433,cs),
(509,373,o),
(307,305,o),
(203,237,cs),
(74,150,o),
(88,3,o),
(211,3,cs),
(273,3,o),
(487,62,o),
(487,312,cs),
(487,560,o),
(340,620,o),
(162,620,cs),
(27,620,o),
(-3,408,o),
(171,408,cs),
(199,408,o),
(221,430,o),
(221,458,cs),
(221,486,o),
(199,508,o),
(171,508,cs),
(146,508,o),
(155,520,o),
(162,520,cs),
(319,520,o),
(387,475,o),
(387,312,cs),
(387,140,o),
(247,106,o),
(215,103,c),
(219,114,o),
(233,136,o),
(259,153,cs),
(349,213,o),
(557,285,o),
(670,345,cs),
(770,397,o),
(838,422,o),
(838,537,cs),
(838,611,o),
(786,664,o),
(710,670,cs),
(641,675,o),
(506,624,o),
(549,446,cs),
(602,236,o),
(662,249,o),
(662,150,cs),
(662,42,o),
(543,24,o),
(496,1,cs),
(471,-12,o),
(461,-42,o),
(473,-66,cs),
(486,-91,o),
(516,-101,o),
(540,-89,cs)
);
}
);
width = 888;
},
{
layerId = "625C7B41-5CAD-42BA-9A13-A89677FC7E21";
shapes = (
{
closed = 1;
nodes = (
(519,-80,o),
(702,-41,o),
(702,124,cs),
(702,246,o),
(635,247,o),
(587,438,cs),
(554,572,o),
(644,617,o),
(677,617,cs),
(718,617,o),
(749,591,o),
(749,561,cs),
(749,496,o),
(698,471,o),
(598,404,cs),
(487,330,o),
(262,276,o),
(162,210,cs),
(64,144,o),
(73,2,o),
(176,2,cs),
(231,2,o),
(427,55,o),
(427,286,cs),
(427,509,o),
(304,619,o),
(127,619,cs),
(25,619,o),
(26,496,o),
(126,496,cs),
(140,496,o),
(151,507,o),
(151,521,cs),
(151,535,o),
(140,546,o),
(126,546,cs),
(92,546,o),
(92,569,o),
(127,569,cs),
(274,569,o),
(377,483,o),
(377,286,cs),
(377,95,o),
(217,52,o),
(176,52,cs),
(121,52,o),
(141,135,o),
(190,168,cs),
(287,232,o),
(506,283,o),
(626,362,cs),
(720,425,o),
(799,464,o),
(799,561,cs),
(799,629,o),
(732,667,o),
(677,667,cs),
(612,667,o),
(498,592,o),
(539,426,cs),
(590,224,o),
(652,230,o),
(652,124,cs),
(652,-3,o),
(511,-28,o),
(472,-48,cs),
(459,-54,o),
(455,-69,o),
(461,-81,cs),
(468,-94,o),
(482,-99,o),
(494,-92,c)
);
}
);
width = 849;
}
);
unicode = 3307;
},
{
color = (255, 255, 153, 255);
glyphname = kn_6;
layers = (
{
layerId = "22F7FBB9-6A27-4F4A-9FDC-2CC606CA4AF4";
shapes = (
{
closed = 1;
nodes = (
(79,511,o),
(58,273,o),
(288,234,cs),
(407,214,o),
(462,275,o),
(460,351,cs),
(458,435,o),
(375,463,o),
(315,463,cs),
(261,463,o),
(19,426,o),
(54,181,cs),
(89,-65,o),
(372,4,o),
(409,13,cs),
(575,55,o),
(723,205,o),
(780,276,cs),
(797,297,o),
(794,328,o),
(772,346,cs),
(751,363,o),
(720,360,o),
(702,338,cs),
(648,271,o),
(517,143,o),
(385,110,cs),
(279,84,o),
(168,86,o),
(152,195,cs),
(129,362,o),
(315,363,o),
(315,363,cs),
(323,363,o),
(360,360,o),
(360,349,cs),
(361,322,o),
(322,329,o),
(304,332,cs),
(147,359,o),
(226,503,o),
(263,534,cs),
(284,551,o),
(287,583,o),
(269,604,cs),
(252,625,o),
(220,628,o),
(199,610,cs)
);
}
);
width = 841;
},
{
layerId = "625C7B41-5CAD-42BA-9A13-A89677FC7E21";
shapes = (
{
closed = 1;
nodes = (
(99,531,o),
(80,320,o),
(292,284,cs),
(429,261,o),
(430,350,o),
(430,364,cs),
(430,393,o),
(415,443,o),
(310,443,cs),
(254,443,o),
(22,387,o),
(53,170,cs),
(84,-43,o),
(348,0,o),
(398,13,cs),
(555,53,o),
(709,197,o),
(765,266,cs),
(774,277,o),
(772,293,o),
(762,301,cs),
(751,310,o),
(735,308,o),
(727,298,cs),
(673,231,o),
(527,97,o),
(386,61,cs),
(353,53,o),
(127,9,o),
(103,177,cs),
(79,342,o),
(256,393,o),
(310,393,cs),
(381,393,o),
(380,370,o),
(380,364,cs),
(380,350,o),
(380,320,o),
(300,334,cs),
(127,362,o),
(168,523,o),
(231,576,cs),
(242,585,o),
(243,600,o),
(234,611,cs),
(225,622,o),
(210,623,o),
(199,614,cs)
);
}
);
width = 822;
}
);
unicode = 3308;
},
{
color = (255, 255, 153, 255);
glyphname = kn_7;
layers = (
{
layerId = "22F7FBB9-6A27-4F4A-9FDC-2CC606CA4AF4";
shapes = (
{
closed = 1;
nodes = (
(219,503,o),
(201,502,o),
(201,507,cs),
(201,520,o),
(260,519,o),
(267,519,cs),
(330,519,o),
(388,491,o),
(372,419,cs),
(352,328,o),
(180,319,o),
(90,215,cs),
(14,127,o),
(45,-1,o),
(197,-1,cs),
(353,-1,o),
(648,41,o),
(799,41,cs),
(827,41,o),
(849,63,o),
(849,91,cs),
(849,119,o),
(827,141,o),
(799,141,cs),
(643,141,o),
(348,99,o),
(197,99,cs),
(157,99,o),
(131,109,o),
(166,149,cs),
(239,235,o),
(436,242,o),
(470,397,cs),
(509,575,o),
(340,619,o),
(267,619,cs),
(220,619,o),
(112,619,o),
(101,517,cs),
(97,475,o),
(121,398,o),
(227,403,cs),
(255,404,o),
(276,428,o),
(275,455,cs),
(274,483,o),
(250,504,o),
(223,503,cs)
);
}
);
width = 899;
},
{
layerId = "625C7B41-5CAD-42BA-9A13-A89677FC7E21";
shapes = (
{
closed = 1;
nodes = (
(176,523,o),
(142,524,o),
(142,539,cs),
(142,570,o),
(234,570,o),
(242,570,cs),
(305,570,o),
(394,519,o),
(372,419,cs),
(349,310,o),
(171,296,o),
(84,194,cs),
(23,124,o),
(40,0,o),
(172,0,cs),
(326,0,o),
(622,42,o),
(774,42,cs),
(788,42,o),
(799,53,o),
(799,67,cs),
(799,81,o),
(788,92,o),
(774,92,cs),
(620,92,o),
(324,50,o),
(172,50,cs),
(79,50,o),
(93,128,o),
(122,162,cs),
(201,254,o),
(389,269,o),
(420,409,cs),
(452,555,o),
(319,620,o),
(242,620,cs),
(205,620,o),
(92,618,o),
(92,539,cs),
(92,499,o),
(124,473,o),
(186,473,cs),
(200,473,o),
(211,484,o),
(211,498,cs),
(211,512,o),
(200,523,o),
(186,523,cs)
);
}
);
width = 849;
}
);
unicode = 3309;
},
{
color = (255, 255, 153, 255);
glyphname = kn_8;
layers = (
{
layerId = "22F7FBB9-6A27-4F4A-9FDC-2CC606CA4AF4";
shapes = (
{
closed = 1;
nodes = (
(346,392,o),
(359,507,o),
(340,549,cs),
(311,615,o),
(257,630,o),
(195,616,cs),
(71,588,o),
(18,440,o),
(71,244,cs),
(91,168,o),
(176,1,o),
(379,1,cs),
(603,1,o),
(724,139,o),
(724,305,cs),
(724,369,o),
(711,424,o),
(690,471,c),
(945,471,ls),
(973,471,o),
(995,493,o),
(995,521,cs),
(995,549,o),
(973,571,o),
(945,571,cs),
(599,571,ls),
(556,571,o),
(533,520,o),
(561,488,cs),
(595,449,o),
(624,389,o),
(624,305,cs),
(624,195,o),
(548,101,o),
(379,101,cs),
(232,101,o),
(178,229,o),
(167,270,cs),
(135,390,o),
(149,502,o),
(217,518,cs),
(232,521,o),
(242,526,o),
(248,509,cs),
(251,500,o),
(246,492,o),
(236,492,cs),
(208,492,o),
(186,470,o),
(186,442,cs),
(186,414,o),
(208,392,o),
(236,392,cs)
);
}
);
width = 1045;
},
{
layerId = "625C7B41-5CAD-42BA-9A13-A89677FC7E21";
shapes = (
{
closed = 1;
nodes = (
(279,471,o),
(309,510,o),
(309,552,cs),
(309,599,o),
(271,634,o),
(190,615,cs),
(66,587,o),
(30,409,o),
(61,256,cs),
(78,171,o),
(179,0,o),
(369,0,cs),
(582,0,o),
(709,158,o),
(709,308,cs),
(709,389,o),
(675,466,o),
(639,519,c),
(951,519,ls),
(965,519,o),
(976,530,o),
(976,544,cs),
(976,558,o),
(965,569,o),
(951,569,cs),
(589,569,ls),
(568,569,o),
(556,544,o),
(570,528,cs),
(610,482,o),
(659,396,o),
(659,308,cs),
(659,186,o),
(554,50,o),
(369,50,cs),
(213,50,o),
(126,193,o),
(111,266,cs),
(80,421,o),
(124,550,o),
(202,567,cs),
(218,571,o),
(259,578,o),
(259,552,cs),
(259,523,o),
(217,521,o),
(196,521,cs),
(182,521,o),
(171,510,o),
(171,496,cs),
(171,482,o),
(182,471,o),
(196,471,cs)
);
}
);
width = 1026;
}
);
unicode = 3310;
},
{
color = (255, 255, 153, 255);
glyphname = kn_9;
layers = (
{
layerId = "22F7FBB9-6A27-4F4A-9FDC-2CC606CA4AF4";
shapes = (
{
closed = 1;
nodes = (
(233,619,ls),
(178,612,o),
(74,581,o),
(54,463,cs),
(31,326,o),
(114,188,o),
(322,188,cs),
(415,188,o),
(460,241,o),
(460,307,cs),
(460,383,o),
(383,420,o),
(322,420,cs),
(117,420,o),
(83,253,o),
(83,159,cs),
(83,31,o),
(209,-46,o),
(330,27,cs),
(354,41,o),
(361,72,o),
(347,96,cs),
(332,122,o),
(300,126,o),
(275,111,cs),
(223,80,o),
(183,110,o),
(183,159,cs),
(183,303,o),
(263,320,o),
(322,320,cs),
(346,320,o),
(360,311,o),
(360,307,cs),
(362,288,o),
(336,288,o),
(322,288,cs),
(178,288,o),
(139,370,o),
(152,447,cs),
(155,463,o),
(164,509,o),
(236,519,c),
(778,519,ls),
(806,519,o),
(828,541,o),
(828,569,cs),
(828,597,o),
(806,619,o),
(778,619,cs)
);
}
);
width = 878;
},
{
layerId = "625C7B41-5CAD-42BA-9A13-A89677FC7E21";
shapes = (
{
closed = 1;
nodes = (
(219,620,ls),
(167,613,o),
(70,575,o),
(53,475,cs),
(33,354,o),
(116,217,o),
(308,217,cs),
(379,217,o),
(421,236,o),
(421,295,cs),
(421,347,o),
(368,391,o),
(308,391,cs),
(125,391,o),
(88,225,o),
(88,135,cs),
(88,27,o),
(198,-39,o),
(303,25,cs),
(315,32,o),
(319,47,o),
(311,59,cs),
(304,71,o),
(289,74,o),
(277,67,cs),
(206,24,o),
(138,65,o),
(138,135,cs),
(138,221,o),
(171,341,o),
(308,341,cs),
(348,341,o),
(371,313,o),
(371,295,cs),
(371,265,o),
(330,267,o),
(308,267,cs),
(146,267,o),
(87,376,o),
(103,467,cs),
(114,534,o),
(178,564,o),
(221,570,c),
(784,570,ls),
(798,570,o),
(809,581,o),
(809,595,cs),
(809,609,o),
(798,620,o),
(784,620,cs)
);
}
);
width = 859;
}
);
unicode = 3311;
},
{
glyphname = zero;
layers = (
{
layerId = "22F7FBB9-6A27-4F4A-9FDC-2CC606CA4AF4";
shapes = (
{
closed = 1;
nodes = (
(151,607,o),
(77,513,o),
(57,390,cs),
(29,211,o),
(86,-11,o),
(320,1,cs),
(569,13,o),
(622,445,o),
(543,588,cs),
(498,669,o),
(395,717,o),
(277,676,cs),
(250,667,o),
(237,639,o),
(246,613,cs),
(255,586,o),
(283,573,o),
(309,582,cs),
(375,605,o),
(432,581,o),
(457,536,cs),
(508,444,o),
(467,109,o),
(314,101,cs),
(116,91,o),
(151,347,o),
(155,374,cs),
(171,469,o),
(229,539,o),
(266,563,cs),
(290,578,o),
(296,609,o),
(281,632,cs),
(266,656,o),
(235,662,o),
(212,647,cs)
);
}
);
width = 630;
},
{
layerId = "625C7B41-5CAD-42BA-9A13-A89677FC7E21";
shapes = (
{
closed = 1;
nodes = (
(155,614,o),
(76,516,o),
(57,401,cs),
(37,274,o),
(55,-5,o),
(294,1,cs),
(553,8,o),
(630,417,o),
(547,580,cs),
(503,666,o),
(376,731,o),
(245,663,cs),
(233,657,o),
(225,644,o),
(229,631,cs),
(234,618,o),
(251,609,o),
(261,615,cs),
(362,673,o),
(469,628,o),
(505,554,cs),
(574,413,o),
(500,56,o),
(292,51,cs),
(86,46,o),
(95,319,o),
(107,393,cs),
(124,496,o),
(195,580,o),
(248,609,cs),
(260,616,o),
(263,632,o),
(255,644,cs),
(247,655,o),
(233,659,o),
(220,651,cs)
);
}
);
width = 581;
}
);
unicode = 48;
},
{
glyphname = one;
layers = (
{
layerId = "22F7FBB9-6A27-4F4A-9FDC-2CC606CA4AF4";
shapes = (
{
closed = 1;
nodes = (
(88,46,ls),
(90,18,o),
(113,-3,o),
(141,-1,cs),
(169,1,o),
(190,24,o),
(188,52,cs),
(151,640,ls),
(149,668,o),
(126,689,o),
(98,687,cs),
(70,685,o),
(49,662,o),
(51,634,cs)
);
}
);
width = 239;
},
{
layerId = "625C7B41-5CAD-42BA-9A13-A89677FC7E21";
shapes = (
{
closed = 1;
nodes = (
(88,24,ls),
(89,10,o),
(101,-1,o),
(114,0,cs),
(128,1,o),
(139,13,o),
(138,26,cs),
(101,664,ls),
(100,678,o),
(88,689,o),
(75,688,cs),
(61,687,o),
(50,675,o),
(51,662,cs)
);
}
);
width = 189;
}
);
unicode = 49;
},
{
glyphname = two;
layers = (
{
layerId = "22F7FBB9-6A27-4F4A-9FDC-2CC606CA4AF4";
shapes = (
{
closed = 1;
nodes = (
(159,519,o),
(191,588,o),
(312,588,cs),
(459,588,o),
(460,502,o),
(460,470,cs),
(460,365,o),
(352,204,o),
(170,93,cs),
(127,66,o),
(146,0,o),
(196,0,cs),
(776,0,ls),
(804,0,o),
(826,22,o),
(826,50,cs),
(826,78,o),
(804,100,o),
(776,100,cs),
(348,100,l),
(460,196,o),
(560,340,o),
(560,470,cs),
(560,587,o),
(489,688,o),
(312,688,cs),
(150,688,o),
(77,594,o),
(53,512,cs),
(45,485,o),
(61,458,o),
(87,450,cs),
(114,442,o),
(141,458,o),
(149,484,cs)
);
}
);
width = 876;
},
{
layerId = "625C7B41-5CAD-42BA-9A13-A89677FC7E21";
shapes = (
{
closed = 1;
nodes = (
(111,551,o),
(170,638,o),
(308,638,cs),
(479,638,o),
(501,523,o),
(501,490,cs),
(501,371,o),
(363,159,o),
(179,46,cs),
(157,33,o),
(167,0,o),
(192,0,cs),
(772,0,ls),
(786,0,o),
(797,11,o),
(797,25,cs),
(797,39,o),
(786,50,o),
(772,50,cs),
(272,50,l),
(422,164,o),
(551,358,o),
(551,490,cs),
(551,549,o),
(509,688,o),
(308,688,cs),
(147,688,o),
(69,584,o),
(52,525,cs),
(48,512,o),
(56,498,o),
(69,494,cs),
(82,490,o),
(96,498,o),
(100,511,cs)
);
}
);
width = 847;
}
);
unicode = 50;
},
{
glyphname = three;
layers = (
{
layerId = "22F7FBB9-6A27-4F4A-9FDC-2CC606CA4AF4";
shapes = (
{
closed = 1;
nodes = (
(374,587,l),
(365,571,o),
(325,502,o),
(225,445,cs),
(181,420,o),
(199,352,o),
(250,352,cs),
(365,352,o),
(391,307,o),
(392,244,cs),
(394,172,o),
(370,100,o),
(243,100,cs),
(191,100,o),
(153,122,o),
(150,135,cs),
(146,149,o),
(133,179,o),
(100,179,cs),
(72,179,o),
(50,157,o),
(50,129,cs),
(50,62,o),
(139,0,o),
(243,0,cs),
(387,0,o),
(495,78,o),
(492,246,cs),
(489,372,o),
(412,416,o),
(374,431,c),
(415,468,o),
(477,539,o),
(495,627,cs),
(501,658,o),
(478,687,o),
(446,687,cs),
(166,687,ls),
(138,687,o),
(116,665,o),
(116,637,cs),
(116,609,o),
(138,587,o),
(166,587,cs)
);
}
);
width = 546;
},
{
layerId = "625C7B41-5CAD-42BA-9A13-A89677FC7E21";
shapes = (
{
closed = 1;
nodes = (
(411,637,l),
(392,576,o),
(338,484,o),
(241,429,cs),
(218,416,o),
(227,382,o),
(253,382,cs),
(381,382,o),
(417,322,o),
(419,246,cs),
(422,116,o),
(314,50,o),
(218,50,cs),
(143,50,o),
(100,93,o),
(100,104,cs),
(100,118,o),
(89,129,o),
(75,129,cs),
(61,129,o),
(50,118,o),
(50,104,cs),
(50,55,o),
(125,0,o),
(218,0,cs),
(340,0,o),
(472,88,o),
(469,248,cs),
(466,371,o),
(387,413,o),
(323,425,c),
(402,490,o),
(453,582,o),
(469,657,cs),
(472,673,o),
(460,687,o),
(444,687,cs),
(141,687,ls),
(127,687,o),
(116,676,o),
(116,662,cs),
(116,648,o),
(127,637,o),
(141,637,cs)
);
}
);
width = 520;
}
);
unicode = 51;
},
{
glyphname = four;
layers = (
{
layerId = "22F7FBB9-6A27-4F4A-9FDC-2CC606CA4AF4";
shapes = (
{
closed = 1;
nodes = (
(435,250,o),
(443,535,o),
(443,658,cs),
(443,700,o),
(394,723,o),
(362,697,cs),
(303,650,o),
(85,349,o),
(58,305,cs),
(38,272,o),
(62,229,o),
(101,229,cs),
(221,229,o),
(320,228,o),
(529,253,cs),
(556,256,o),
(577,281,o),
(573,309,cs),
(570,336,o),
(545,356,o),
(517,353,cs),
(367,335,o),
(275,331,o),
(197,330,c),
(237,385,o),
(294,462,o),
(341,521,c),
(337,384,o),
(327,194,o),
(305,34,c),
(302,6,o),
(321,-19,o),
(348,-23,c),
(376,-26,o),
(401,-7,o),
(405,20,cs)
);
}
);
width = 624;
},
{
layerId = "625C7B41-5CAD-42BA-9A13-A89677FC7E21";
shapes = (
{
closed = 1;
nodes = (
(435,228,o),
(445,559,o),
(445,681,cs),
(445,702,o),
(421,714,o),
(404,700,cs),
(350,657,o),
(82,315,o),
(55,270,cs),
(44,253,o),
(56,232,o),
(76,232,cs),
(195,232,o),
(349,232,o),
(557,256,cs),
(571,258,o),
(580,270,o),
(579,284,cs),
(577,298,o),
(565,308,o),
(551,306,cs),
(372,286,o),
(233,282,o),
(124,282,c),
(185,364,o),
(322,537,o),
(394,618,c),
(392,469,o),
(381,200,o),
(355,7,cs),
(353,-6,o),
(363,-19,o),
(377,-21,cs),
(390,-23,o),
(403,-13,o),
(405,1,cs)
);
}
);
width = 630;
}
);
unicode = 52;
},
{
glyphname = five;
layers = (
{
layerId = "22F7FBB9-6A27-4F4A-9FDC-2CC606CA4AF4";
shapes = (
{
closed = 1;
nodes = (
(50,50,o),
(167,-1,o),
(251,-1,cs),
(555,-1,o),
(575,334,o),
(399,441,cs),
(353,468,o),
(303,474,o),
(264,471,c),
(309,574,l),
(405,549,o),
(587,537,o),
(681,566,cs),
(707,574,o),
(722,602,o),
(714,629,cs),
(706,655,o),
(678,670,o),
(651,662,cs),
(569,636,o),
(366,653,o),
(303,681,cs),
(277,693,o),
(247,682,o),
(236,656,cs),
(133,422,ls),
(115,381,o),
(157,338,o),
(199,356,cs),
(205,359,o),
(288,391,o),
(347,355,cs),
(435,302,o),
(457,99,o),
(251,99,cs),
(214,99,o),
(150,115,o),
(150,195,cs),
(150,223,o),
(128,245,o),
(100,245,cs),
(72,245,o),
(50,223,o),
(50,195,cs)
);
}
);
width = 767;
},
{
layerId = "625C7B41-5CAD-42BA-9A13-A89677FC7E21";
shapes = (
{
closed = 1;
nodes = (
(50,35,o),
(172,0,o),
(236,0,cs),
(517,0,o),
(526,327,o),
(373,419,cs),
(312,456,o),
(236,447,o),
(192,437,c),
(273,629,l),
(363,600,o),
(575,586,o),
(668,615,cs),
(682,619,o),
(689,633,o),
(685,646,cs),
(681,660,o),
(667,667,o),
(654,663,cs),
(565,636,o),
(338,652,o),
(269,684,cs),
(257,690,o),
(241,684,o),
(236,671,cs),
(125,408,ls),
(116,387,o),
(137,367,o),
(157,375,cs),
(171,380,o),
(278,418,o),
(347,377,cs),
(458,309,o),
(465,50,o),
(236,50,cs),
(194,50,o),
(100,70,o),
(100,171,cs),
(100,185,o),
(89,196,o),
(75,196,cs),
(61,196,o),
(50,185,o),
(50,171,cs)
);
}
);
width = 737;
}
);
unicode = 53;
},
{
glyphname = six;
layers = (
{
layerId = "22F7FBB9-6A27-4F4A-9FDC-2CC606CA4AF4";
shapes = (
{
closed = 1;
nodes = (
(232,629,o),
(-29,442,o),
(74,148,cs),
(171,-128,o),
(613,11,o),
(586,253,cs),
(561,467,o),
(242,478,o),
(189,123,cs),
(185,96,o),
(203,72,o),
(231,67,cs),
(258,63,o),
(283,81,o),
(287,109,cs),
(320,324,o),
(473,351,o),
(486,241,cs),
(500,117,o),
(226,18,o),
(168,182,cs),
(96,388,o),
(274,538,o),
(418,585,cs),
(444,594,o),
(458,621,o),
(449,648,cs),
(441,674,o),
(413,688,o),
(386,679,cs)
);
}
);
width = 638;
},
{
layerId = "625C7B41-5CAD-42BA-9A13-A89677FC7E21";
shapes = (
{
closed = 1;
nodes = (
(220,625,o),
(-40,434,o),
(81,128,cs),
(177,-116,o),
(599,21,o),
(579,224,cs),
(562,411,o),
(259,442,o),
(211,120,cs),
(209,106,o),
(219,93,o),
(232,91,cs),
(246,89,o),
(259,99,o),
(261,112,cs),
(299,366,o),
(516,357,o),
(529,220,cs),
(543,73,o),
(202,-44,o),
(127,146,cs),
(23,408,o),
(242,578,o),
(408,633,cs),
(421,637,o),
(428,652,o),
(424,665,cs),
(419,678,o),
(405,685,o),
(392,681,cs)
);
}
);
width = 630;
}
);
unicode = 54;
},
{
glyphname = seven;
layers = (
{
layerId = "22F7FBB9-6A27-4F4A-9FDC-2CC606CA4AF4";
shapes = (
{
closed = 1;
nodes = (
(158,579,o),
(273,581,o),
(342,583,c),
(294,474,o),
(185,235,o),
(92,74,cs),
(78,50,o),
(86,20,o),
(110,6,cs),
(134,-8,o),
(164,0,o),
(178,24,cs),
(309,250,o),
(466,616,o),
(466,616,cs),
(481,650,o),
(454,688,o),
(418,686,c),
(415,686,o),
(194,675,o),
(107,686,cs),
(79,689,o),
(55,669,o),
(51,642,c),
(48,614,o),
(68,590,o),
(95,586,c)
);
}
);
width = 521;
},
{
layerId = "625C7B41-5CAD-42BA-9A13-A89677FC7E21";
shapes = (
{
closed = 1;
nodes = (
(147,627,o),
(321,632,o),
(394,635,c),
(350,535,o),
(208,221,o),
(102,38,cs),
(95,26,o),
(99,10,o),
(111,3,cs),
(123,-4,o),
(139,0,o),
(146,12,cs),
(275,237,o),
(456,651,o),
(456,651,c),
(463,668,o),
(450,687,o),
(432,686,c),
(430,686,o),
(169,675,o),
(79,686,c),
(65,687,o),
(53,678,o),
(51,664,cs),
(50,650,o),
(59,638,o),
(73,636,cs)
);
}
);
width = 509;
}
);
unicode = 55;
},
{
glyphname = eight;
layers = (
{
layerId = "22F7FBB9-6A27-4F4A-9FDC-2CC606CA4AF4";
shapes = (
{
closed = 1;
nodes = (
(-21,163,o),
(58,21,o),
(162,2,cs),
(292,-22,o),
(361,120,o),
(294,240,cs),
(251,318,o),
(137,448,o),
(191,554,cs),
(204,580,o),
(217,585,o),
(239,585,cs),
(278,585,o),
(291,542,o),
(284,519,cs),
(257,437,o),
(220,460,o),
(152,376,cs)
);
},
{
closed = 1;
nodes = (
(278,372,o),
(341,375,o),
(378,487,cs),
(404,564,o),
(358,685,o),
(238,685,cs),
(189,685,o),
(135,666,o),
(101,598,cs),
(19,435,o),
(164,269,o),
(206,192,cs),
(224,159,o),
(230,91,o),
(180,100,cs),
(137,108,o),
(132,191,o),
(230,312,cs)
);
}
);
width = 436;
},
{
layerId = "625C7B41-5CAD-42BA-9A13-A89677FC7E21";
shapes = (
{
closed = 1;
nodes = (
(-14,177,o),
(59,18,o),
(152,1,cs),
(267,-20,o),
(321,127,o),
(268,223,cs),
(225,301,o),
(74,460,o),
(134,580,cs),
(153,617,o),
(197,635,o),
(224,635,cs),
(280,636,o),
(317,567,o),
(303,526,cs),
(274,437,o),
(202,443,o),
(138,365,cs)
);
},
{
closed = 1;
nodes = (
(228,398,o),
(316,405,o),
(351,510,cs),
(373,577,o),
(320,686,o),
(224,685,cs),
(183,685,o),
(120,661,o),
(90,602,cs),
(15,452,o),
(182,277,o),
(224,199,cs),
(261,133,o),
(225,39,o),
(162,51,cs),
(106,61,o),
(51,180,o),
(176,333,cs)
);
}
);
width = 406;
}
);
unicode = 56;
},
{
glyphname = nine;
layers = (
{
layerId = "22F7FBB9-6A27-4F4A-9FDC-2CC606CA4AF4";
shapes = (
{
closed = 1;
nodes = (
(364,667,o),
(319,694,o),
(235,694,cs),
(104,694,o),
(44,600,o),
(51,487,cs),
(56,399,o),
(121,324,o),
(231,324,cs),
(252,324,o),
(270,329,o),
(279,332,c),
(266,249,o),
(254,115,o),
(294,26,cs),
(306,1,o),
(335,-10,o),
(361,1,c),
(386,13,o),
(397,42,o),
(386,68,c),
(349,148,o),
(370,325,o),
(415,484,cs),
(432,545,o),
(345,575,o),
(321,517,cs),
(299,466,o),
(264,424,o),
(231,424,cs),
(166,424,o),
(152,466,o),
(151,492,cs),
(145,590,o),
(205,594,o),
(235,594,cs),
(284,594,o),
(304,584,o),
(347,537,cs),
(365,516,o),
(397,515,o),
(417,533,cs),
(438,552,o),
(440,583,o),
(421,603,cs)
);
}
);
width = 485;
},
{
layerId = "625C7B41-5CAD-42BA-9A13-A89677FC7E21";
shapes = (
{
closed = 1;
nodes = (
(344,669,o),
(305,692,o),
(230,692,cs),
(98,692,o),
(46,586,o),
(51,510,cs),
(55,435,o),
(105,362,o),
(226,362,cs),
(274,362,o),
(310,386,o),
(335,410,c),
(317,315,o),
(293,114,o),
(338,14,cs),
(344,1,o),
(359,-4,o),
(371,1,cs),
(384,7,o),
(389,22,o),
(384,34,cs),
(342,126,o),
(366,360,o),
(410,514,cs),
(418,542,o),
(381,559,o),
(365,535,cs),
(328,478,o),
(292,412,o),
(226,412,cs),
(125,412,o),
(104,471,o),
(101,513,cs),
(99,555,o),
(122,642,o),
(230,642,cs),
(287,642,o),
(313,628,o),
(360,576,cs),
(369,566,o),
(385,564,o),
(396,574,cs),
(406,583,o),
(407,599,o),
(398,610,c)
);
}
);
width = 462;
}
);
unicode = 57;
},
{
glyphname = kn_k_ottu;
layers = (
{
layerId = "22F7FBB9-6A27-4F4A-9FDC-2CC606CA4AF4";
shapes = (
{
closed = 1;
nodes = (
(-47,-41,o),
(-47,-67,o),
(-46,-82,c),
(-69,-98,o),
(-110,-109,o),
(-110,-184,cs),
(-110,-260,o),
(-53,-303,o),
(9,-303,cs),
(81,-303,o),
(125,-238,o),
(125,-184,cs),
(125,-110,o),
(81,-49,o),
(-46,-49,cs),
(-195,-49,o),
(-170,-158,o),
(-55,-158,cs),
(-47,-158,o),
(67,-169,o),
(126,-145,cs),
(151,-135,o),
(164,-106,o),
(153,-80,cs),
(143,-55,o),
(113,-43,o),
(87,-53,cs),
(50,-67,o),
(-47,-58,o),
(-55,-58,cs),
(-60,-58,o),
(-81,-56,o),
(-87,-55,c),
(-91,-150,l),
(-89,-150,o),
(-77,-149,o),
(-46,-149,cs),
(22,-149,o),
(25,-162,o),
(25,-184,cs),
(25,-190,o),
(16,-203,o),
(9,-203,cs),
(2,-203,o),
(-10,-197,o),
(-10,-184,cs),
(-10,-145,o),
(9,-174,o),
(37,-144,cs),
(71,-109,o),
(44,-89,o),
(60,-27,cs),
(67,0,o),
(52,27,o),
(25,34,cs),
(-2,41,o),
(-29,26,o),
(-36,-1,cs)
);
}
);
width = 127;
},
{
layerId = "625C7B41-5CAD-42BA-9A13-A89677FC7E21";
shapes = (
{
closed = 1;
nodes = (
(-48,-23,o),
(-44,-46,o),
(-42,-59,c),
(-60,-74,o),
(-103,-94,o),
(-103,-169,cs),
(-103,-231,o),
(-61,-270,o),
(-14,-270,cs),
(43,-270,o),
(71,-210,o),
(71,-169,cs),
(71,-43,o),
(-36,-39,o),
(-69,-39,cs),
(-188,-39,o),
(-162,-98,o),
(-78,-98,cs),
(-69,-98,o),
(40,-109,o),
(93,-87,cs),
(106,-82,o),
(112,-67,o),
(107,-55,cs),
(102,-41,o),
(86,-37,o),
(73,-42,cs),
(30,-58,o),
(-69,-48,o),
(-78,-48,cs),
(-82,-48,o),
(-110,-45,o),
(-116,-44,c),
(-118,-90,l),
(-116,-90,o),
(-107,-89,o),
(-69,-89,cs),
(16,-89,o),
(21,-137,o),
(21,-169,cs),
(21,-195,o),
(4,-220,o),
(-14,-220,cs),
(-32,-220,o),
(-53,-206,o),
(-53,-169,cs),
(-53,-115,o),
(-26,-114,o),
(-3,-91,cs),
(22,-64,o),
(-6,-56,o),
(13,15,cs),
(16,28,o),
(9,41,o),
(-5,45,cs),
(-18,48,o),
(-32,41,o),
(-35,27,cs)
);
}
);
width = 79;
}
);
},
{
glyphname = kn_kh_ottu;
layers = (
{
layerId = "22F7FBB9-6A27-4F4A-9FDC-2CC606CA4AF4";
shapes = (
{
closed = 1;
nodes = (
(-86,-114,l),
(-85,-114,o),
(-82,-115,o),
(-82,-115,cs),
(-57,-127,o),
(-51,-133,o),
(-60,-178,cs),
(-63,-197,o),
(-94,-244,o),
(-115,-248,cs),
(-119,-249,o),
(-128,-256,o),
(-126,-260,cs),
(-124,-265,o),
(-116,-261,o),
(-111,-262,cs),
(-57,-275,o),
(-43,-302,o),
(22,-325,cs),
(34,-329,o),
(154,-367,o),
(170,-193,cs),
(177,-116,o),
(162,-56,o),
(138,-21,cs),
(123,2,o),
(92,8,o),
(69,-8,cs),
(46,-23,o),
(40,-54,o),
(56,-77,cs),
(70,-98,o),
(75,-135,o),
(70,-183,cs),
(69,-192,o),
(69,-234,o),
(53,-229,cs),
(6,-214,o),
(-9,-183,o),
(-86,-171,cs),
(-153,-160,o),
(-200,-213,o),
(-200,-262,cs),
(-200,-306,o),
(-159,-356,o),
(-92,-339,cs),
(-35,-325,o),
(25,-262,o),
(38,-198,cs),
(64,-68,o),
(-14,-37,o),
(-38,-25,cs),
(-92,2,o),
(-166,-22,o),
(-166,-88,cs),
(-166,-116,o),
(-144,-138,o),
(-116,-138,cs),
(-88,-138,o),
(-66,-116,o),
(-66,-88,c)
);
}
);
width = 172;
},
{
layerId = "625C7B41-5CAD-42BA-9A13-A89677FC7E21";
shapes = (
{
closed = 1;
nodes = (
(-118,-66,l),
(-115,-65,o),
(-103,-65,o),
(-96,-68,cs),
(-80,-75,o),
(-45,-99,o),
(-61,-176,cs),
(-68,-213,o),
(-106,-251,o),
(-135,-259,cs),
(-140,-260,o),
(-150,-261,o),
(-150,-255,cs),
(-150,-252,o),
(-144,-234,o),
(-123,-238,cs),
(-63,-248,o),
(-56,-274,o),
(4,-294,cs),
(85,-321,o),
(124,-253,o),
(137,-186,cs),
(152,-112,o),
(108,-39,o),
(89,-11,cs),
(81,0,o),
(65,3,o),
(54,-4,cs),
(43,-12,o),
(40,-28,o),
(47,-39,cs),
(66,-67,o),
(97,-124,o),
(87,-176,cs),
(71,-261,o),
(35,-251,o),
(20,-246,cs),
(-32,-229,o),
(-43,-200,o),
(-115,-188,cs),
(-168,-180,o),
(-200,-222,o),
(-200,-255,cs),
(-200,-283,o),
(-175,-320,o),
(-123,-307,cs),
(-75,-295,o),
(-22,-241,o),
(-11,-186,cs),
(8,-87,o),
(-36,-42,o),
(-74,-23,cs),
(-106,-6,o),
(-166,-13,o),
(-166,-64,cs),
(-166,-78,o),
(-155,-89,o),
(-141,-89,cs),
(-127,-89,o),
(-116,-78,o),
(-116,-64,c)
);
}
);
width = 141;
}
);
},
{
glyphname = kn_g_ottu;
layers = (
{
layerId = "22F7FBB9-6A27-4F4A-9FDC-2CC606CA4AF4";
shapes = (
{
closed = 1;
nodes = (
(-87,-153,o),
(-53,-102,o),
(-36,-100,c),
(-7,-124,o),
(18,-242,o),
(18,-269,cs),
(18,-297,o),
(40,-319,o),
(68,-319,cs),
(96,-319,o),
(118,-297,o),
(118,-269,cs),
(118,-269,o),
(98,0,o),
(-33,0,cs),
(-156,0,o),
(-190,-172,o),
(-199,-261,cs),
(-202,-288,o),
(-182,-313,o),
(-154,-316,cs),
(-127,-319,o),
(-99,-297,o),
(-99,-269,c)
);
}
);
width = 118;
},
{
layerId = "625C7B41-5CAD-42BA-9A13-A89677FC7E21";
shapes = (
{
closed = 1;
nodes = (
(-150,-197,o),
(-102,-50,o),
(-36,-50,cs),
(16,-50,o),
(68,-222,o),
(58,-280,cs),
(56,-294,o),
(65,-306,o),
(79,-309,cs),
(93,-311,o),
(106,-302,o),
(108,-288,cs),
(120,-221,o),
(68,0,o),
(-36,0,cs),
(-147,0,o),
(-200,-186,o),
(-200,-284,cs),
(-200,-298,o),
(-189,-309,o),
(-175,-309,cs),
(-161,-309,o),
(-150,-298,o),
(-150,-284,cs)
);
}
);
width = 110;
}
);
},
{
glyphname = kn_gh_ottu;
layers = (
{
layerId = "22F7FBB9-6A27-4F4A-9FDC-2CC606CA4AF4";
shapes = (
{
closed = 1;
nodes = (
(-201,-79,o),
(-300,-152,o),
(-300,-228,cs),
(-300,-282,o),
(-255,-352,o),
(-160,-351,cs),
(-99,-350,o),
(-48,-310,o),
(-34,-297,c),
(-11,-315,o),
(40,-346,o),
(96,-346,cs),
(246,-346,o),
(179,-133,o),
(112,-64,cs),
(13,36,o),
(-89,-166,o),
(109,-166,cs),
(228,-166,o),
(228,-70,o),
(230,-63,cs),
(237,-36,o),
(222,-9,o),
(195,-2,cs),
(168,5,o),
(141,-10,o),
(134,-37,cs),
(129,-61,o),
(138,-66,o),
(109,-66,cs),
(89,-66,o),
(81,-63,o),
(80,-62,c),
(40,-134,l),
(42,-136,o),
(48,-142,o),
(54,-150,cs),
(75,-176,o),
(106,-222,o),
(88,-245,cs),
(67,-270,o),
(17,-215,o),
(13,-202,cs),
(-3,-152,o),
(-72,-161,o),
(-83,-204,cs),
(-88,-224,o),
(-132,-251,o),
(-162,-251,cs),
(-167,-251,o),
(-187,-252,o),
(-197,-245,cs),
(-208,-238,o),
(-208,-224,o),
(-197,-225,cs),
(-169,-229,o),
(-146,-246,o),
(-126,-227,cs),
(-106,-207,o),
(-106,-176,o),
(-125,-156,cs)
);
},
{
closed = 1;
nodes = (
(-77,-404,l),
(-77,-432,o),
(-55,-454,o),
(-27,-454,cs),
(1,-454,o),
(23,-432,o),
(23,-404,c),
(22,-369,l),
(18,-341,o),
(-7,-322,o),
(-34,-325,cs),
(-62,-329,o),
(-81,-354,o),
(-78,-381,c)
);
}
);
width = 232;
},
{
layerId = "625C7B41-5CAD-42BA-9A13-A89677FC7E21";
shapes = (
{
closed = 1;
nodes = (
(-227,-88,o),
(-299,-147,o),
(-299,-202,cs),
(-299,-224,o),
(-305,-301,o),
(-185,-300,cs),
(-131,-300,o),
(-81,-263,o),
(-59,-237,c),
(-32,-267,o),
(20,-301,o),
(72,-301,cs),
(199,-301,o),
(114,-100,o),
(70,-56,cs),
(3,11,o),
(-63,-115,o),
(85,-115,cs),
(178,-115,o),
(197,-50,o),
(181,-14,cs),
(175,-1,o),
(160,4,o),
(148,-1,cs),
(135,-7,o),
(130,-22,o),
(135,-34,cs),
(138,-40,o),
(137,-65,o),
(85,-65,cs),
(54,-65,o),
(44,-59,o),
(43,-58,c),
(28,-86,l),
(29,-86,o),
(31,-87,o),
(34,-91,cs),
(58,-115,o),
(119,-251,o),
(72,-251,cs),
(24,-251,o),
(-30,-203,o),
(-35,-185,cs),
(-42,-158,o),
(-80,-160,o),
(-84,-188,cs),
(-85,-196,o),
(-134,-250,o),
(-185,-250,cs),
(-255,-251,o),
(-249,-226,o),
(-249,-202,cs),
(-249,-189,o),
(-228,-157,o),
(-203,-182,cs),
(-193,-192,o),
(-177,-193,o),
(-168,-183,cs),
(-158,-173,o),
(-158,-158,o),
(-167,-148,cs)
);
},
{
closed = 1;
nodes = (
(-94,-304,o),
(-87,-335,o),
(-80,-347,cs),
(-73,-359,o),
(-58,-364,o),
(-46,-357,cs),
(-34,-350,o),
(-29,-335,o),
(-36,-323,c),
(-36,-301,l),
(-29,-288,o),
(-34,-273,o),
(-46,-267,cs),
(-59,-260,o),
(-74,-265,o),
(-80,-277,cs)
);
}
);
width = 187;
}
);
},
{
glyphname = kn_ng_ottu;
layers = (
{
layerId = "22F7FBB9-6A27-4F4A-9FDC-2CC606CA4AF4";
shapes = (
{
closed = 1;
nodes = (
(-130,-94,o),
(-130,-108,o),
(-130,-110,cs),
(-130,-113,o),
(-112,-113,o),
(-116,-118,cs),
(-135,-145,o),
(-200,-206,o),
(-200,-253,cs),
(-200,-296,o),
(-177,-358,o),
(-95,-358,cs),
(-69,-358,o),
(-47,-348,o),
(-31,-337,c),
(-13,-351,o),
(12,-363,o),
(42,-363,cs),
(130,-363,o),
(169,-268,o),
(142,-214,cs),
(129,-189,o),
(98,-178,o),
(75,-191,cs),
(44,-209,o),
(53,-224,o),
(55,-239,cs),
(56,-247,o),
(56,-256,o),
(52,-262,cs),
(40,-279,o),
(23,-253,o),
(18,-241,cs),
(2,-198,o),
(-58,-197,o),
(-75,-239,cs),
(-78,-245,o),
(-89,-254,o),
(-95,-258,cs),
(-101,-262,o),
(-103,-257,o),
(-103,-257,cs),
(-98,-234,o),
(-34,-182,o),
(-34,-121,cs),
(-34,-55,o),
(-71,-23,o),
(-121,-23,cs),
(-146,-23,o),
(-196,-44,o),
(-196,-94,cs),
(-196,-122,o),
(-174,-144,o),
(-146,-144,cs),
(-118,-144,o),
(-79,-103,o),
(-107,-98,cs)
);
},
{
closed = 1;
nodes = (
(99,6,o),
(-29,49,o),
(-116,-80,cs),
(-132,-103,o),
(-126,-134,o),
(-103,-149,cs),
(-80,-165,o),
(-49,-159,o),
(-34,-136,cs),
(-14,-107,o),
(20,-77,o),
(36,-130,cs),
(44,-156,o),
(72,-171,o),
(99,-163,cs),
(125,-155,o),
(140,-127,o),
(132,-100,cs)
);
},
{
closed = 1;
nodes = (
(-19,-137,l),
(-37,-147,o),
(-45,-169,o),
(-36,-188,c),
(-26,-206,o),
(-4,-214,o),
(15,-205,cs),
(44,-190,o),
(44,-146,o),
(15,-131,cs),
(-4,-122,o),
(-26,-130,o),
(-36,-148,c),
(-45,-167,o),
(-37,-189,o),
(-19,-199,c)
);
}
);
width = 151;
},
{
layerId = "625C7B41-5CAD-42BA-9A13-A89677FC7E21";
shapes = (
{
closed = 1;
nodes = (
(-152,-61,o),
(-147,-73,o),
(-145,-73,cs),
(-133,-73,o),
(-134,-87,o),
(-134,-96,cs),
(-134,-129,o),
(-200,-178,o),
(-200,-228,cs),
(-200,-273,o),
(-175,-308,o),
(-120,-308,cs),
(-85,-308,o),
(-61,-285,o),
(-55,-278,c),
(-43,-292,o),
(-19,-313,o),
(17,-313,cs),
(86,-313,o),
(114,-238,o),
(94,-200,cs),
(87,-187,o),
(73,-183,o),
(61,-189,cs),
(48,-196,o),
(43,-210,o),
(50,-222,cs),
(53,-228,o),
(48,-263,o),
(17,-263,cs),
(-6,-263,o),
(-25,-240,o),
(-31,-224,cs),
(-38,-203,o),
(-68,-202,o),
(-77,-223,cs),
(-83,-237,o),
(-101,-258,o),
(-120,-258,cs),
(-142,-258,o),
(-150,-251,o),
(-150,-228,cs),
(-150,-202,o),
(-84,-149,o),
(-84,-96,cs),
(-84,-57,o),
(-99,-23,o),
(-146,-23,cs),
(-164,-23,o),
(-196,-39,o),
(-196,-69,cs),
(-196,-83,o),
(-185,-94,o),
(-171,-94,cs),
(-157,-94,o),
(-138,-80,o),
(-146,-69,cs)
);
},
{
closed = 1;
nodes = (
(57,0,o),
(-45,40,o),
(-120,-72,cs),
(-128,-84,o),
(-124,-100,o),
(-113,-107,cs),
(-101,-115,o),
(-86,-111,o),
(-78,-100,cs),
(-25,-21,o),
(23,-58,o),
(36,-100,cs),
(40,-114,o),
(54,-121,o),
(67,-117,cs),
(81,-113,o),
(88,-99,o),
(84,-86,cs)
);
},
{
closed = 1;
nodes = (
(-47,-105,l),
(-59,-112,o),
(-63,-127,o),
(-55,-139,cs),
(-48,-151,o),
(-33,-154,o),
(-21,-147,cs),
(0,-134,o),
(0,-106,o),
(-21,-93,cs),
(-33,-86,o),
(-48,-89,o),
(-55,-101,cs),
(-63,-113,o),
(-59,-128,o),
(-47,-135,c)
);
}
);
width = 101;
}
);
},
{
glyphname = kn_c_ottu;
layers = (
{
layerId = "22F7FBB9-6A27-4F4A-9FDC-2CC606CA4AF4";
shapes = (
{
closed = 1;
nodes = (
(-130,-156,o),
(-135,-149,o),
(-137,-154,cs),
(-137,-154,o),
(-244,-335,o),
(-93,-335,cs),
(-67,-335,o),
(-45,-329,o),
(-27,-320,c),
(-12,-329,o),
(6,-335,o),
(27,-335,cs),
(132,-335,o),
(148,-244,o),
(148,-215,cs),
(148,-187,o),
(132,-151,o),
(113,-126,c),
(133,-94,o),
(145,-46,o),
(122,-1,cs),
(109,23,o),
(79,34,o),
(54,21,cs),
(30,9,o),
(21,-22,o),
(32,-47,cs),
(38,-60,o),
(26,-80,o),
(18,-83,cs),
(-29,-101,o),
(-22,-167,o),
(25,-179,cs),
(34,-181,o),
(48,-204,o),
(48,-216,cs),
(49,-231,o),
(41,-235,o),
(27,-235,cs),
(21,-235,o),
(18,-228,o),
(12,-220,cs),
(-2,-202,o),
(-25,-199,o),
(-41,-220,cs),
(-53,-236,o),
(-67,-233,o),
(-62,-223,cs),
(-57,-212,o),
(-45,-190,o),
(-44,-185,cs),
(-24,-100,o),
(-80,-45,o),
(-158,-58,cs),
(-186,-62,o),
(-203,-88,o),
(-199,-115,cs),
(-194,-145,o),
(-167,-156,o),
(-140,-156,cs)
);
},
{
closed = 1;
nodes = (
(89,-71,o),
(43,-82,o),
(25,-80,cs),
(-3,-78,o),
(-27,-99,o),
(-29,-126,cs),
(-31,-154,o),
(-10,-178,o),
(17,-180,cs),
(50,-182,o),
(94,-172,o),
(143,-162,cs),
(170,-156,o),
(188,-130,o),
(182,-103,cs),
(176,-76,o),
(150,-58,o),
(123,-64,cs)
);
}
);
width = 184;
},
{
layerId = "625C7B41-5CAD-42BA-9A13-A89677FC7E21";
shapes = (
{
closed = 1;
nodes = (
(-140,-127,o),
(-134,-141,o),
(-141,-167,cs),
(-146,-188,o),
(-228,-310,o),
(-117,-310,cs),
(-81,-310,o),
(-58,-296,o),
(-49,-290,c),
(-43,-296,o),
(-25,-310,o),
(3,-310,cs),
(73,-310,o),
(99,-258,o),
(99,-215,cs),
(99,-189,o),
(79,-149,o),
(57,-128,c),
(79,-104,o),
(97,-56,o),
(75,-13,cs),
(69,0,o),
(54,4,o),
(42,-2,cs),
(29,-9,o),
(25,-23,o),
(31,-35,cs),
(44,-62,o),
(23,-99,o),
(3,-107,cs),
(-20,-116,o),
(-17,-151,o),
(7,-155,cs),
(27,-159,o),
(49,-201,o),
(49,-215,cs),
(49,-244,o),
(32,-260,o),
(3,-260,cs),
(-14,-260,o),
(-16,-250,o),
(-29,-237,cs),
(-39,-227,o),
(-55,-228,o),
(-65,-237,cs),
(-74,-246,o),
(-87,-260,o),
(-117,-260,cs),
(-143,-260,o),
(-99,-207,o),
(-93,-179,cs),
(-77,-112,o),
(-118,-71,o),
(-178,-82,cs),
(-192,-84,o),
(-201,-97,o),
(-199,-111,cs),
(-196,-125,o),
(-184,-134,o),
(-170,-132,cs)
);
},
{
closed = 1;
nodes = (
(83,-93,o),
(-2,-112,o),
(-20,-106,cs),
(-33,-102,o),
(-47,-109,o),
(-52,-122,cs),
(-56,-135,o),
(-49,-149,o),
(-36,-154,cs),
(-6,-164,o),
(52,-149,o),
(114,-137,cs),
(128,-134,o),
(135,-121,o),
(133,-108,cs),
(130,-94,o),
(117,-86,o),
(104,-89,cs)
);
}
);
width = 134;
}
);
},
{
glyphname = kn_ch_ottu;
layers = (
{
layerId = "22F7FBB9-6A27-4F4A-9FDC-2CC606CA4AF4";
shapes = (
{
closed = 1;
nodes = (
(-3,-112,o),
(-21,-10,o),
(-98,-10,cs),
(-141,-10,o),
(-200,-48,o),
(-200,-168,cs),
(-200,-271,o),
(-129,-319,o),
(-54,-319,cs),
(-19,-319,o),
(7,-305,o),
(23,-291,c),
(34,-300,o),
(61,-319,o),
(107,-319,cs),
(222,-319,o),
(237,-167,o),
(201,-87,c),
(212,-83,o),
(224,-77,o),
(237,-70,cs),
(261,-57,o),
(270,-26,o),
(257,-2,cs),
(244,22,o),
(213,31,o),
(189,18,cs),
(132,-11,o),
(114,-15,o),
(53,-10,cs),
(-13,-5,o),
(-22,-104,o),
(44,-110,cs),
(63,-112,o),
(90,-114,o),
(104,-115,c),
(117,-133,o),
(132,-211,o),
(108,-219,cs),
(86,-226,o),
(80,-211,o),
(62,-180,cs),
(40,-143,o),
(-16,-150,o),
(-29,-192,cs),
(-37,-219,o),
(-49,-219,o),
(-54,-219,cs),
(-91,-219,o),
(-100,-197,o),
(-100,-168,cs),
(-100,-157,o),
(-99,-148,o),
(-98,-140,c),
(-98,-140,o),
(-86,-143,o),
(-71,-138,c)
);
},
{
closed = 1;
nodes = (
(-24,-391,l),
(-24,-419,o),
(-2,-441,o),
(26,-441,cs),
(54,-441,o),
(76,-419,o),
(76,-391,c),
(75,-356,l),
(71,-328,o),
(46,-309,o),
(19,-312,cs),
(-9,-316,o),
(-28,-341,o),
(-25,-368,c)
);
}
);
width = 263;
},
{
layerId = "625C7B41-5CAD-42BA-9A13-A89677FC7E21";
shapes = (
{
closed = 1;
nodes = (
(-63,-99,o),
(-74,-35,o),
(-123,-35,cs),
(-157,-35,o),
(-200,-69,o),
(-200,-168,cs),
(-200,-261,o),
(-136,-306,o),
(-79,-306,cs),
(-34,-306,o),
(-11,-282,o),
(-3,-272,c),
(26,-304,o),
(65,-306,o),
(82,-306,cs),
(183,-306,o),
(186,-142,o),
(141,-74,c),
(150,-71,o),
(172,-63,o),
(200,-48,cs),
(212,-41,o),
(217,-26,o),
(210,-14,cs),
(203,-2,o),
(188,3,o),
(176,-4,cs),
(101,-45,o),
(63,-38,o),
(26,-35,cs),
(-7,-33,o),
(-11,-82,o),
(22,-85,cs),
(88,-91,l),
(119,-93,o),
(139,-256,o),
(82,-256,cs),
(44,-256,o),
(33,-240,o),
(15,-211,cs),
(4,-193,o),
(-24,-196,o),
(-30,-217,cs),
(-40,-249,o),
(-60,-256,o),
(-79,-256,cs),
(-108,-256,o),
(-150,-233,o),
(-150,-168,cs),
(-150,-133,o),
(-144,-112,o),
(-137,-100,c),
(-133,-113,o),
(-118,-119,o),
(-105,-114,cs)
);
},
{
closed = 1;
nodes = (
(-36,-332,o),
(-29,-363,o),
(-22,-375,cs),
(-15,-387,o),
(0,-392,o),
(12,-385,cs),
(24,-378,o),
(29,-363,o),
(22,-351,c),
(22,-329,l),
(29,-316,o),
(24,-301,o),
(12,-295,cs),
(-1,-288,o),
(-16,-293,o),
(-22,-305,cs)
);
}
);
width = 214;
}
);
},
{
glyphname = kn_j_ottu;
layers = (
{
layerId = "22F7FBB9-6A27-4F4A-9FDC-2CC606CA4AF4";
shapes = (
{
closed = 1;
nodes = (
(-130,-111,l),
(-130,-111,o),
(-129,-114,o),
(-129,-122,cs),
(-129,-145,o),
(-200,-205,o),
(-200,-265,cs),
(-200,-311,o),
(-177,-374,o),
(-91,-374,cs),
(-63,-374,o),
(-39,-363,o),
(-22,-351,c),
(-3,-366,o),
(24,-380,o),
(57,-380,cs),
(148,-380,o),
(189,-281,o),
(161,-225,cs),
(148,-200,o),
(119,-191,o),
(94,-202,cs),
(76,-210,o),
(64,-225,o),
(69,-251,cs),
(71,-262,o),
(73,-280,o),
(57,-280,cs),
(42,-280,o),
(29,-260,o),
(26,-252,cs),
(10,-211,o),
(-48,-210,o),
(-66,-251,cs),
(-69,-258,o),
(-81,-274,o),
(-91,-274,cs),
(-98,-274,o),
(-105,-269,o),
(-100,-259,cs),
(-77,-210,o),
(-29,-193,o),
(-29,-122,cs),
(-29,20,o),
(-196,-1,o),
(-196,-93,cs),
(-196,-121,o),
(-174,-143,o),
(-146,-143,cs),
(-118,-143,o),
(-96,-121,o),
(-96,-93,c)
);
},
{
closed = 1;
nodes = (
(-26,-242,o),
(122,-202,o),
(85,-57,cs),
(78,-30,o),
(51,-15,o),
(25,-21,cs),
(-2,-28,o),
(-12,-49,o),
(-7,-75,cs),
(-2,-103,o),
(-13,-116,o),
(-40,-92,cs),
(-61,-74,o),
(-92,-75,o),
(-111,-95,cs),
(-130,-115,o),
(-128,-147,o),
(-108,-166,cs)
);
}
);
width = 170;
},
{
layerId = "625C7B41-5CAD-42BA-9A13-A89677FC7E21";
shapes = (
{
closed = 1;
nodes = (
(-147,-72,l),
(-144,-68,o),
(-129,-64,o),
(-129,-97,cs),
(-129,-134,o),
(-200,-187,o),
(-200,-240,cs),
(-200,-278,o),
(-183,-324,o),
(-116,-324,cs),
(-85,-324,o),
(-61,-307,o),
(-46,-291,c),
(-30,-310,o),
(-4,-330,o),
(32,-330,cs),
(104,-330,o),
(134,-251,o),
(113,-211,cs),
(107,-198,o),
(92,-194,o),
(80,-200,cs),
(67,-207,o),
(62,-221,o),
(69,-233,cs),
(73,-241,o),
(66,-280,o),
(32,-280,cs),
(5,-280,o),
(-15,-254,o),
(-22,-237,cs),
(-30,-216,o),
(-59,-216,o),
(-68,-236,cs),
(-75,-252,o),
(-94,-274,o),
(-116,-274,cs),
(-145,-274,o),
(-150,-262,o),
(-150,-240,cs),
(-150,-211,o),
(-79,-154,o),
(-79,-97,cs),
(-79,12,o),
(-196,-9,o),
(-196,-68,cs),
(-196,-82,o),
(-185,-93,o),
(-171,-93,cs),
(-157,-93,o),
(-146,-82,o),
(-146,-68,c)
);
},
{
closed = 1;
nodes = (
(-54,-180,o),
(67,-161,o),
(36,-38,cs),
(32,-24,o),
(19,-17,o),
(6,-20,cs),
(-8,-24,o),
(-15,-37,o),
(-12,-50,cs),
(9,-128,o),
(-63,-104,o),
(-82,-86,cs),
(-92,-76,o),
(-108,-77,o),
(-117,-87,cs),
(-127,-97,o),
(-126,-113,o),
(-116,-122,cs)
);
}
);
width = 120;
}
);
},
{
glyphname = kn_jh_ottu;
layers = (
{
layerId = "22F7FBB9-6A27-4F4A-9FDC-2CC606CA4AF4";
shapes = (
{
closed = 1;
nodes = (
(-331,-92,o),
(-253,-2,o),
(-161,-2,cs),
(-36,-2,o),
(33,-153,o),
(-11,-254,cs),
(-56,-357,o),
(-238,-381,o),
(-287,-229,cs)
);
},
{
closed = 1;
nodes = (
(-171,-261,o),
(-112,-235,o),
(-103,-214,cs),
(-86,-176,o),
(-113,-102,o),
(-161,-102,cs),
(-193,-102,o),
(-210,-139,o),
(-191,-199,cs)
);
},
{
closed = 1;
nodes = (
(-96,-179,o),
(-74,-157,o),
(-46,-157,cs),
(-18,-157,o),
(4,-179,o),
(4,-207,cs),
(4,-267,o),
(113,-254,o),
(15,-72,cs),
(2,-47,o),
(11,-17,o),
(35,-4,cs),
(60,9,o),
(90,0,o),
(103,-24,cs),
(294,-379,o),
(-96,-423,o),
(-96,-207,cs)
);
},
{
closed = 1;
nodes = (
(59,-213,o),
(74,-186,o),
(101,-178,cs),
(128,-170,o),
(155,-185,o),
(163,-212,cs),
(179,-267,o),
(248,-260,o),
(181,-68,cs),
(172,-42,o),
(185,-14,o),
(212,-5,cs),
(238,4,o),
(266,-9,o),
(275,-36,cs),
(403,-401,o),
(113,-400,o),
(67,-240,cs)
);
},
{
closed = 1;
nodes = (
(60,-386,l),
(57,-359,o),
(76,-334,o),
(104,-330,cs),
(131,-327,o),
(156,-346,o),
(160,-374,c),
(161,-409,l),
(161,-437,o),
(139,-459,o),
(111,-459,cs),
(83,-459,o),
(61,-437,o),
(61,-409,c)
);
}
);
width = 308;
},
{
layerId = "625C7B41-5CAD-42BA-9A13-A89677FC7E21";
shapes = (
{
closed = 1;
nodes = (
(-326,-94,o),
(-263,-3,o),
(-186,-3,cs),
(-79,-3,o),
(-22,-151,o),
(-59,-235,cs),
(-95,-318,o),
(-247,-342,o),
(-288,-213,cs)
);
},
{
closed = 1;
nodes = (
(-213,-282,o),
(-123,-256,o),
(-105,-215,cs),
(-81,-161,o),
(-119,-53,o),
(-186,-53,cs),
(-228,-53,o),
(-268,-112,o),
(-240,-197,cs)
);
},
{
closed = 1;
nodes = (
(-96,-169,o),
(-85,-158,o),
(-71,-158,cs),
(-57,-158,o),
(-46,-169,o),
(-46,-183,cs),
(-46,-297,o),
(158,-286,o),
(24,-36,cs),
(17,-24,o),
(22,-9,o),
(34,-2,cs),
(46,5,o),
(61,0,o),
(68,-12,cs),
(247,-346,o),
(-96,-373,o),
(-96,-183,cs)
);
},
{
closed = 1;
nodes = (
(67,-196,o),
(75,-182,o),
(88,-178,cs),
(101,-174,o),
(115,-182,o),
(119,-195,cs),
(140,-269,o),
(282,-323,o),
(196,-35,cs),
(192,-22,o),
(200,-8,o),
(213,-4,cs),
(226,0,o),
(240,-8,o),
(244,-21,cs),
(352,-385,o),
(108,-338,o),
(71,-209,cs)
);
},
{
closed = 1;
nodes = (
(77,-298,o),
(92,-293,o),
(105,-300,cs),
(117,-306,o),
(122,-321,o),
(115,-334,c),
(115,-356,l),
(122,-368,o),
(117,-383,o),
(105,-390,cs),
(93,-397,o),
(78,-392,o),
(71,-380,cs),
(64,-368,o),
(57,-337,o),
(71,-310,cs)
);
}
);
width = 272;
}
);
},
{
glyphname = kn_ny_ottu;
layers = (
{
layerId = "22F7FBB9-6A27-4F4A-9FDC-2CC606CA4AF4";
shapes = (
{
closed = 1;
nodes = (
(84,-92,o),
(118,-93,o),
(125,-123,cs),
(132,-150,o),
(159,-166,o),
(186,-160,cs),
(213,-153,o),
(229,-126,o),
(223,-99,cs),
(194,21,o),
(32,37,o),
(-21,-82,cs),
(-32,-107,o),
(-20,-137,o),
(5,-148,cs),
(30,-159,o),
(60,-147,o),
(71,-122,cs)
);
},
{
closed = 1;
nodes = (
(-203,-116,o),
(-196,-113,o),
(-190,-112,cs),
(-179,-110,o),
(-160,-146,o),
(-153,-154,cs),
(-129,-183,o),
(-83,-176,o),
(-69,-141,cs),
(-61,-122,o),
(-63,-99,o),
(-54,-94,cs),
(-42,-87,o),
(-5,-129,o),
(-38,-213,cs),
(-58,-263,o),
(-87,-244,o),
(-91,-265,cs),
(-92,-270,o),
(-76,-284,o),
(-72,-287,cs),
(-10,-328,o),
(25,-413,o),
(126,-413,cs),
(154,-413,o),
(176,-391,o),
(176,-363,cs),
(176,-335,o),
(154,-313,o),
(126,-313,cs),
(79,-313,o),
(55,-251,o),
(-18,-203,cs),
(-78,-164,o),
(-191,-185,o),
(-189,-278,cs),
(-187,-387,o),
(-18,-432,o),
(54,-251,cs),
(116,-96,o),
(32,6,o),
(-53,6,cs),
(-100,6,o),
(-123,-17,o),
(-131,-28,c),
(-145,-19,o),
(-171,-7,o),
(-208,-14,cs),
(-304,-32,o),
(-328,-139,o),
(-262,-197,cs),
(-241,-216,o),
(-210,-214,o),
(-192,-193,cs),
(-173,-172,o),
(-175,-140,o),
(-196,-122,c)
);
}
);
width = 225;
},
{
layerId = "625C7B41-5CAD-42BA-9A13-A89677FC7E21";
shapes = (
{
closed = 1;
nodes = (
(44,-34,o),
(110,-40,o),
(123,-92,cs),
(126,-105,o),
(139,-114,o),
(153,-110,cs),
(166,-107,o),
(174,-94,o),
(171,-80,cs),
(147,18,o),
(17,30,o),
(-25,-67,cs),
(-31,-80,o),
(-25,-94,o),
(-12,-100,cs),
(1,-105,o),
(15,-100,o),
(21,-87,cs)
);
},
{
closed = 1;
nodes = (
(-257,-95,o),
(-255,-69,o),
(-221,-63,cs),
(-191,-57,o),
(-174,-112,o),
(-174,-114,cs),
(-168,-137,o),
(-136,-139,o),
(-127,-116,cs),
(-115,-86,o),
(-112,-44,o),
(-80,-44,cs),
(-47,-44,o),
(-2,-96,o),
(-42,-198,cs),
(-77,-284,o),
(-141,-289,o),
(-141,-252,cs),
(-141,-228,o),
(-98,-233,o),
(-86,-241,cs),
(-19,-284,o),
(10,-363,o),
(99,-363,cs),
(113,-363,o),
(124,-352,o),
(124,-338,cs),
(124,-324,o),
(113,-313,o),
(99,-313,cs),
(37,-313,o),
(14,-246,o),
(-58,-199,cs),
(-103,-170,o),
(-192,-181,o),
(-191,-252,cs),
(-190,-338,o),
(-56,-368,o),
(4,-216,cs),
(59,-78,o),
(-13,6,o),
(-80,6,cs),
(-123,6,o),
(-144,-21,o),
(-154,-45,c),
(-164,-32,o),
(-191,-6,o),
(-231,-13,cs),
(-306,-27,o),
(-324,-109,o),
(-260,-155,cs),
(-248,-163,o),
(-233,-161,o),
(-225,-150,cs),
(-217,-138,o),
(-219,-123,o),
(-230,-115,cs)
);
}
);
width = 172;
}
);
},
{
glyphname = kn_tt_ottu;
layers = (
{
layerId = "22F7FBB9-6A27-4F4A-9FDC-2CC606CA4AF4";
shapes = (
{
closed = 1;
nodes = (
(-231,-132,o),
(-227,-155,o),
(-221,-169,c),
(-225,-175,o),
(-251,-215,o),
(-251,-272,cs),
(-251,-356,o),
(-161,-386,o),
(-76,-339,c),
(-63,-346,o),
(-31,-361,o),
(6,-361,cs),
(120,-361,o),
(110,-219,o),
(82,-171,cs),
(77,-162,o),
(66,-150,o),
(62,-147,c),
(80,-119,o),
(95,-71,o),
(64,-26,cs),
(49,-3,o),
(18,3,o),
(-5,-13,cs),
(-28,-28,o),
(-31,-57,o),
(-18,-82,cs),
(-15,-88,o),
(-27,-108,o),
(-39,-113,cs),
(-81,-132,o),
(-81,-195,o),
(-33,-207,cs),
(-23,-210,o),
(-8,-213,o),
(-3,-223,cs),
(0,-230,o),
(9,-251,o),
(1,-261,cs),
(-4,-267,o),
(-24,-256,o),
(-48,-239,cs),
(-68,-225,o),
(-94,-227,o),
(-111,-244,cs),
(-119,-251,o),
(-144,-271,o),
(-150,-260,cs),
(-159,-242,o),
(-139,-219,o),
(-131,-215,cs),
(-97,-199,o),
(-101,-155,o),
(-126,-135,cs),
(-130,-132,o),
(-130,-118,o),
(-132,-113,cs),
(-136,-98,o),
(-139,-80,o),
(-159,-74,cs),
(-185,-65,o),
(-214,-79,o),
(-222,-105,cs)
);
}
);
width = 101;
},
{
layerId = "625C7B41-5CAD-42BA-9A13-A89677FC7E21";
shapes = (
{
closed = 1;
nodes = (
(-210,-119,o),
(-195,-141,o),
(-192,-146,c),
(-202,-158,o),
(-226,-196,o),
(-226,-247,cs),
(-226,-330,o),
(-125,-319,o),
(-76,-286,c),
(-51,-300,o),
(-23,-311,o),
(6,-311,cs),
(96,-311,o),
(81,-192,o),
(61,-160,cs),
(50,-143,o),
(37,-132,o),
(28,-127,c),
(47,-105,o),
(73,-58,o),
(44,-15,cs),
(36,-4,o),
(21,0,o),
(9,-8,cs),
(-2,-15,o),
(-6,-31,o),
(2,-43,cs),
(17,-66,o),
(-16,-107,o),
(-26,-110,cs),
(-51,-116,o),
(-51,-152,o),
(-26,-158,cs),
(-8,-163,o),
(9,-170,o),
(19,-186,cs),
(25,-197,o),
(37,-261,o),
(6,-261,cs),
(-15,-261,o),
(-38,-252,o),
(-63,-235,cs),
(-72,-228,o),
(-85,-229,o),
(-94,-237,cs),
(-110,-252,o),
(-176,-278,o),
(-176,-247,cs),
(-176,-202,o),
(-150,-171,o),
(-143,-168,cs),
(-120,-160,o),
(-122,-126,o),
(-147,-121,cs),
(-150,-120,o),
(-155,-114,o),
(-151,-104,cs),
(-147,-91,o),
(-154,-77,o),
(-167,-72,cs),
(-180,-68,o),
(-195,-75,o),
(-199,-88,cs)
);
}
);
width = 77;
}
);
},
{
glyphname = kn_tth_ottu;
layers = (
{
layerId = "22F7FBB9-6A27-4F4A-9FDC-2CC606CA4AF4";
shapes = (
{
closed = 1;
nodes = (
(-134,-9,o),
(-200,-93,o),
(-200,-180,cs),
(-200,-261,o),
(-149,-372,o),
(-6,-359,cs),
(127,-346,o),
(169,-256,o),
(169,-180,cs),
(169,-106,o),
(118,-9,o),
(12,0,cs),
(-16,3,o),
(-41,-18,o),
(-43,-45,cs),
(-46,-73,o),
(-25,-97,o),
(2,-100,cs),
(42,-104,o),
(69,-142,o),
(69,-180,cs),
(69,-214,o),
(55,-253,o),
(-16,-259,cs),
(-77,-265,o),
(-100,-227,o),
(-100,-180,cs),
(-100,-137,o),
(-66,-103,o),
(-38,-100,cs),
(-10,-97,o),
(10,-72,o),
(7,-45,cs),
(4,-17,o),
(-21,3,o),
(-48,0,cs)
);
},
{
closed = 1;
nodes = (
(-98,-230,o),
(23,-250,o),
(23,-176,cs),
(23,-155,o),
(7,-139,o),
(-14,-139,cs),
(-35,-139,o),
(-52,-155,o),
(-52,-176,c),
(8,-194,l),
(18,-176,o),
(11,-153,o),
(-7,-143,cs),
(-25,-133,o),
(-48,-140,o),
(-58,-158,cs)
);
}
);
width = 169;
},
{
layerId = "625C7B41-5CAD-42BA-9A13-A89677FC7E21";
shapes = (
{
closed = 1;
nodes = (
(-142,-8,o),
(-200,-79,o),
(-200,-155,cs),
(-200,-227,o),
(-156,-320,o),
(-34,-309,cs),
(84,-298,o),
(119,-220,o),
(119,-155,cs),
(119,-90,o),
(74,-9,o),
(-16,0,cs),
(-29,1,o),
(-42,-9,o),
(-43,-23,cs),
(-44,-36,o),
(-34,-49,o),
(-20,-50,cs),
(36,-55,o),
(69,-108,o),
(69,-155,cs),
(69,-200,o),
(48,-251,o),
(-38,-259,cs),
(-120,-267,o),
(-150,-211,o),
(-150,-155,cs),
(-150,-101,o),
(-108,-54,o),
(-65,-50,c),
(-52,-48,o),
(-42,-36,o),
(-43,-22,c),
(-45,-9,o),
(-57,1,o),
(-71,0,cs)
);
},
{
closed = 1;
nodes = (
(-102,-206,o),
(-14,-217,o),
(-14,-164,cs),
(-14,-150,o),
(-25,-139,o),
(-39,-139,cs),
(-53,-139,o),
(-64,-150,o),
(-64,-164,c),
(-29,-177,l),
(-19,-167,o),
(-27,-148,o),
(-38,-142,cs),
(-50,-135,o),
(-65,-140,o),
(-72,-152,cs)
);
}
);
width = 119;
}
);
},
{
glyphname = kn_dd_ottu;
layers = (
{
layerId = "22F7FBB9-6A27-4F4A-9FDC-2CC606CA4AF4";
shapes = (
{
closed = 1;
nodes = (
(-17,-124,o),
(29,-97,o),
(52,-100,cs),
(56,-101,o),
(47,-118,o),
(30,-141,cs),
(29,-143,o),
(28,-143,o),
(28,-143,c),
(84,-199,l),
(88,-199,o),
(92,-201,o),
(97,-205,cs),
(109,-214,o),
(121,-231,o),
(121,-240,cs),
(121,-258,o),
(99,-260,o),
(85,-260,cs),
(48,-260,o),
(34,-250,o),
(25,-243,cs),
(8,-232,o),
(-11,-230,o),
(-29,-239,cs),
(-64,-256,o),
(-79,-260,o),
(-86,-260,cs),
(-94,-260,o),
(-96,-261,o),
(-100,-254,cs),
(-102,-244,o),
(-89,-196,o),
(-51,-157,c)
);
},
{
closed = 1;
nodes = (
(-171,-137,o),
(-211,-218,o),
(-196,-278,cs),
(-194,-288,o),
(-176,-360,o),
(-86,-360,cs),
(-75,-360,o),
(-50,-359,o),
(-8,-340,c),
(14,-351,o),
(44,-360,o),
(85,-360,cs),
(167,-360,o),
(221,-310,o),
(221,-240,cs),
(221,-160,o),
(118,-63,o),
(35,-112,cs),
(-79,-181,o),
(34,-302,o),
(110,-201,cs),
(183,-103,o),
(147,-45,o),
(116,-20,cs),
(51,32,o),
(-60,-26,o),
(-121,-87,cs)
);
}
);
width = 221;
},
{
layerId = "625C7B41-5CAD-42BA-9A13-A89677FC7E21";
shapes = (
{
closed = 1;
nodes = (
(-44,-65,o),
(26,-39,o),
(44,-53,cs),
(68,-72,o),
(23,-132,o),
(19,-137,cs),
(14,-143,o),
(11,-145,o),
(11,-145,c),
(30,-166,l),
(30,-166,o),
(33,-161,o),
(43,-155,cs),
(68,-139,o),
(121,-187,o),
(121,-215,cs),
(121,-241,o),
(102,-260,o),
(60,-260,cs),
(16,-260,o),
(-3,-247,o),
(-15,-238,cs),
(-23,-232,o),
(-33,-231,o),
(-41,-236,cs),
(-53,-242,o),
(-90,-260,o),
(-111,-260,cs),
(-132,-260,o),
(-144,-254,o),
(-149,-235,cs),
(-155,-212,o),
(-134,-156,o),
(-93,-115,cs)
);
},
{
closed = 1;
nodes = (
(-175,-126,o),
(-209,-199,o),
(-197,-247,cs),
(-193,-264,o),
(-177,-310,o),
(-111,-310,cs),
(-98,-310,o),
(-74,-307,o),
(-32,-287,c),
(-13,-299,o),
(16,-310,o),
(60,-310,cs),
(127,-310,o),
(171,-272,o),
(171,-215,cs),
(171,-152,o),
(81,-74,o),
(17,-113,cs),
(-63,-161,o),
(8,-235,o),
(59,-167,cs),
(124,-81,o),
(101,-35,o),
(76,-15,cs),
(24,27,o),
(-74,-24,o),
(-129,-79,cs)
);
}
);
width = 171;
}
);
},
{
glyphname = kn_ddh_ottu;
layers = (
{
layerId = "22F7FBB9-6A27-4F4A-9FDC-2CC606CA4AF4";
shapes = (
{
closed = 1;
nodes = (
(-17,-124,o),
(29,-97,o),
(52,-100,cs),
(56,-101,o),
(47,-118,o),
(30,-141,cs),
(29,-143,o),
(28,-143,o),
(28,-143,c),
(84,-199,l),
(88,-199,o),
(92,-201,o),
(97,-205,cs),
(109,-214,o),
(121,-231,o),
(121,-240,cs),
(121,-258,o),
(99,-260,o),
(85,-260,cs),
(48,-260,o),
(34,-250,o),
(25,-243,cs),
(8,-232,o),
(-11,-230,o),
(-29,-239,cs),
(-64,-256,o),
(-79,-260,o),
(-86,-260,cs),
(-94,-260,o),
(-96,-261,o),
(-100,-254,cs),
(-102,-244,o),
(-89,-196,o),
(-51,-157,c)
);
},
{
closed = 1;
nodes = (
(-171,-137,o),
(-211,-218,o),
(-196,-278,cs),
(-194,-288,o),
(-176,-360,o),
(-86,-360,cs),
(-75,-360,o),
(-50,-359,o),
(-8,-340,c),
(14,-351,o),
(44,-360,o),
(85,-360,cs),
(167,-360,o),
(221,-310,o),
(221,-240,cs),
(221,-160,o),
(118,-63,o),
(35,-112,cs),
(-79,-181,o),
(34,-302,o),
(110,-201,cs),
(183,-103,o),
(147,-45,o),
(116,-20,cs),
(51,32,o),
(-60,-26,o),
(-121,-87,cs)
);
},
{
closed = 1;
nodes = (
(-58,-432,l),
(-58,-460,o),
(-36,-482,o),
(-8,-482,cs),
(20,-482,o),
(42,-460,o),
(42,-432,c),
(41,-397,l),
(37,-369,o),
(12,-350,o),
(-15,-353,cs),
(-43,-357,o),
(-62,-382,o),
(-59,-409,c)
);
}
);
width = 221;
},
{
layerId = "625C7B41-5CAD-42BA-9A13-A89677FC7E21";
shapes = (
{
closed = 1;
nodes = (
(-44,-65,o),
(26,-39,o),
(44,-53,cs),
(68,-72,o),
(23,-132,o),
(19,-137,cs),
(14,-143,o),
(11,-145,o),
(11,-145,c),
(30,-166,l),
(30,-166,o),
(33,-161,o),
(43,-155,cs),
(68,-139,o),
(121,-187,o),
(121,-215,cs),
(121,-241,o),
(102,-260,o),
(60,-260,cs),
(16,-260,o),
(-3,-247,o),
(-15,-238,cs),
(-23,-232,o),
(-33,-231,o),
(-41,-236,cs),
(-53,-242,o),
(-90,-260,o),
(-111,-260,cs),
(-132,-260,o),
(-144,-254,o),
(-149,-235,cs),
(-155,-212,o),
(-134,-156,o),
(-93,-115,cs)
);
},
{
closed = 1;
nodes = (
(-175,-126,o),
(-209,-199,o),
(-197,-247,cs),
(-193,-264,o),
(-177,-310,o),
(-111,-310,cs),
(-98,-310,o),
(-74,-307,o),
(-32,-287,c),
(-13,-299,o),
(16,-310,o),
(60,-310,cs),
(127,-310,o),
(171,-272,o),
(171,-215,cs),
(171,-152,o),
(81,-74,o),
(17,-113,cs),
(-63,-161,o),
(8,-235,o),
(59,-167,cs),
(124,-81,o),
(101,-35,o),
(76,-15,cs),
(24,27,o),
(-74,-24,o),
(-129,-79,cs)
);
},
{
closed = 1;
nodes = (
(-69,-337,o),
(-62,-368,o),
(-55,-380,cs),
(-48,-392,o),
(-33,-397,o),
(-21,-390,cs),
(-9,-383,o),
(-4,-368,o),
(-11,-356,c),
(-11,-334,l),
(-4,-321,o),
(-9,-306,o),
(-21,-300,cs),
(-34,-293,o),
(-49,-298,o),
(-55,-310,cs)
);
}
);
width = 171;
}
);
},
{
glyphname = kn_nn_ottu;
layers = (
{
layerId = "22F7FBB9-6A27-4F4A-9FDC-2CC606CA4AF4";
shapes = (
{
closed = 1;
nodes = (
(-77,-238,o),
(-79,-235,o),
(-70,-233,cs),
(-29,-224,o),
(-32,-154,o),
(-73,-143,cs),
(-90,-138,o),
(-106,-116,o),
(-91,-107,cs),
(-82,-101,o),
(-63,-120,o),
(-52,-125,cs),
(-38,-132,o),
(-21,-132,o),
(-7,-124,cs),
(8,-116,o),
(18,-101,o),
(24,-100,cs),
(67,-96,o),
(71,-207,o),
(16,-243,cs),
(-7,-258,o),
(-14,-289,o),
(1,-312,cs),
(16,-335,o),
(47,-342,o),
(70,-327,cs),
(192,-248,o),
(181,-60,o),
(73,-11,cs),
(23,11,o),
(-13,-2,o),
(-36,-20,c),
(-90,5,o),
(-153,-3,o),
(-187,-73,cs),
(-214,-127,o),
(-190,-173,o),
(-169,-195,c),
(-177,-210,o),
(-199,-270,o),
(-122,-326,cs),
(-100,-342,o),
(-68,-337,o),
(-52,-314,cs),
(-26,-279,o),
(-43,-246,o),
(-70,-240,cs)
);
}
);
width = 158;
},
{
layerId = "625C7B41-5CAD-42BA-9A13-A89677FC7E21";
shapes = (
{
closed = 1;
nodes = (
(-149,-233,o),
(-123,-194,o),
(-108,-186,cs),
(-89,-177,o),
(-90,-150,o),
(-109,-141,cs),
(-132,-131,o),
(-160,-109,o),
(-146,-81,cs),
(-125,-38,o),
(-88,-67,o),
(-59,-80,cs),
(-51,-84,o),
(-43,-83,o),
(-36,-79,cs),
(-7,-63,o),
(0,-40,o),
(34,-55,cs),
(85,-78,o),
(96,-216,o),
(21,-264,cs),
(10,-271,o),
(6,-287,o),
(14,-299,cs),
(21,-310,o),
(37,-314,o),
(49,-306,cs),
(154,-238,o),
(145,-50,o),
(54,-9,cs),
(0,15,o),
(-32,-14,o),
(-50,-28,c),
(-141,22,o),
(-177,-34,o),
(-190,-59,cs),
(-214,-107,o),
(-187,-148,o),
(-160,-168,c),
(-183,-198,o),
(-195,-261,o),
(-134,-305,cs),
(-122,-313,o),
(-107,-311,o),
(-99,-300,cs),
(-91,-288,o),
(-93,-273,o),
(-104,-265,cs)
);
}
);
width = 126;
}
);
},
